%TF.GenerationSoftware,KiCad,Pcbnew,7.0.10*%
%TF.CreationDate,2024-01-09T13:23:14-06:00*%
%TF.ProjectId,LPT Blaster,4c505420-426c-4617-9374-65722e6b6963,rev?*%
%TF.SameCoordinates,Original*%
%TF.FileFunction,Legend,Top*%
%TF.FilePolarity,Positive*%
%FSLAX46Y46*%
G04 Gerber Fmt 4.6, Leading zero omitted, Abs format (unit mm)*
G04 Created by KiCad (PCBNEW 7.0.10) date 2024-01-09 13:23:14*
%MOMM*%
%LPD*%
G01*
G04 APERTURE LIST*
%ADD10C,0.150000*%
%ADD11C,0.200000*%
%ADD12C,0.254000*%
%ADD13C,0.120000*%
%ADD14C,0.100000*%
G04 APERTURE END LIST*
D10*
X100369819Y-62377506D02*
X101084104Y-62377506D01*
X101084104Y-62377506D02*
X101226961Y-62425125D01*
X101226961Y-62425125D02*
X101322200Y-62520363D01*
X101322200Y-62520363D02*
X101369819Y-62663220D01*
X101369819Y-62663220D02*
X101369819Y-62758458D01*
X101369819Y-61425125D02*
X101369819Y-61901315D01*
X101369819Y-61901315D02*
X100369819Y-61901315D01*
X101274580Y-60520363D02*
X101322200Y-60567982D01*
X101322200Y-60567982D02*
X101369819Y-60710839D01*
X101369819Y-60710839D02*
X101369819Y-60806077D01*
X101369819Y-60806077D02*
X101322200Y-60948934D01*
X101322200Y-60948934D02*
X101226961Y-61044172D01*
X101226961Y-61044172D02*
X101131723Y-61091791D01*
X101131723Y-61091791D02*
X100941247Y-61139410D01*
X100941247Y-61139410D02*
X100798390Y-61139410D01*
X100798390Y-61139410D02*
X100607914Y-61091791D01*
X100607914Y-61091791D02*
X100512676Y-61044172D01*
X100512676Y-61044172D02*
X100417438Y-60948934D01*
X100417438Y-60948934D02*
X100369819Y-60806077D01*
X100369819Y-60806077D02*
X100369819Y-60710839D01*
X100369819Y-60710839D02*
X100417438Y-60567982D01*
X100417438Y-60567982D02*
X100465057Y-60520363D01*
X100369819Y-59806077D02*
X101084104Y-59806077D01*
X101084104Y-59806077D02*
X101226961Y-59853696D01*
X101226961Y-59853696D02*
X101322200Y-59948934D01*
X101322200Y-59948934D02*
X101369819Y-60091791D01*
X101369819Y-60091791D02*
X101369819Y-60187029D01*
X101369819Y-58853696D02*
X101369819Y-59329886D01*
X101369819Y-59329886D02*
X100369819Y-59329886D01*
X101274580Y-57948934D02*
X101322200Y-57996553D01*
X101322200Y-57996553D02*
X101369819Y-58139410D01*
X101369819Y-58139410D02*
X101369819Y-58234648D01*
X101369819Y-58234648D02*
X101322200Y-58377505D01*
X101322200Y-58377505D02*
X101226961Y-58472743D01*
X101226961Y-58472743D02*
X101131723Y-58520362D01*
X101131723Y-58520362D02*
X100941247Y-58567981D01*
X100941247Y-58567981D02*
X100798390Y-58567981D01*
X100798390Y-58567981D02*
X100607914Y-58520362D01*
X100607914Y-58520362D02*
X100512676Y-58472743D01*
X100512676Y-58472743D02*
X100417438Y-58377505D01*
X100417438Y-58377505D02*
X100369819Y-58234648D01*
X100369819Y-58234648D02*
X100369819Y-58139410D01*
X100369819Y-58139410D02*
X100417438Y-57996553D01*
X100417438Y-57996553D02*
X100465057Y-57948934D01*
X100369819Y-57234648D02*
X101084104Y-57234648D01*
X101084104Y-57234648D02*
X101226961Y-57282267D01*
X101226961Y-57282267D02*
X101322200Y-57377505D01*
X101322200Y-57377505D02*
X101369819Y-57520362D01*
X101369819Y-57520362D02*
X101369819Y-57615600D01*
X101369819Y-56282267D02*
X101369819Y-56758457D01*
X101369819Y-56758457D02*
X100369819Y-56758457D01*
X101274580Y-55377505D02*
X101322200Y-55425124D01*
X101322200Y-55425124D02*
X101369819Y-55567981D01*
X101369819Y-55567981D02*
X101369819Y-55663219D01*
X101369819Y-55663219D02*
X101322200Y-55806076D01*
X101322200Y-55806076D02*
X101226961Y-55901314D01*
X101226961Y-55901314D02*
X101131723Y-55948933D01*
X101131723Y-55948933D02*
X100941247Y-55996552D01*
X100941247Y-55996552D02*
X100798390Y-55996552D01*
X100798390Y-55996552D02*
X100607914Y-55948933D01*
X100607914Y-55948933D02*
X100512676Y-55901314D01*
X100512676Y-55901314D02*
X100417438Y-55806076D01*
X100417438Y-55806076D02*
X100369819Y-55663219D01*
X100369819Y-55663219D02*
X100369819Y-55567981D01*
X100369819Y-55567981D02*
X100417438Y-55425124D01*
X100417438Y-55425124D02*
X100465057Y-55377505D01*
X100369819Y-54663219D02*
X101084104Y-54663219D01*
X101084104Y-54663219D02*
X101226961Y-54710838D01*
X101226961Y-54710838D02*
X101322200Y-54806076D01*
X101322200Y-54806076D02*
X101369819Y-54948933D01*
X101369819Y-54948933D02*
X101369819Y-55044171D01*
X101369819Y-53710838D02*
X101369819Y-54187028D01*
X101369819Y-54187028D02*
X100369819Y-54187028D01*
X101274580Y-52806076D02*
X101322200Y-52853695D01*
X101322200Y-52853695D02*
X101369819Y-52996552D01*
X101369819Y-52996552D02*
X101369819Y-53091790D01*
X101369819Y-53091790D02*
X101322200Y-53234647D01*
X101322200Y-53234647D02*
X101226961Y-53329885D01*
X101226961Y-53329885D02*
X101131723Y-53377504D01*
X101131723Y-53377504D02*
X100941247Y-53425123D01*
X100941247Y-53425123D02*
X100798390Y-53425123D01*
X100798390Y-53425123D02*
X100607914Y-53377504D01*
X100607914Y-53377504D02*
X100512676Y-53329885D01*
X100512676Y-53329885D02*
X100417438Y-53234647D01*
X100417438Y-53234647D02*
X100369819Y-53091790D01*
X100369819Y-53091790D02*
X100369819Y-52996552D01*
X100369819Y-52996552D02*
X100417438Y-52853695D01*
X100417438Y-52853695D02*
X100465057Y-52806076D01*
D11*
X146156861Y-78726191D02*
X146156861Y-79142857D01*
X146811623Y-79142857D02*
X145561623Y-79142857D01*
X145561623Y-79142857D02*
X145561623Y-78547619D01*
X146811623Y-78071428D02*
X145978290Y-78071428D01*
X145561623Y-78071428D02*
X145621147Y-78130952D01*
X145621147Y-78130952D02*
X145680671Y-78071428D01*
X145680671Y-78071428D02*
X145621147Y-78011905D01*
X145621147Y-78011905D02*
X145561623Y-78071428D01*
X145561623Y-78071428D02*
X145680671Y-78071428D01*
X146811623Y-77297619D02*
X146752100Y-77416667D01*
X146752100Y-77416667D02*
X146633052Y-77476190D01*
X146633052Y-77476190D02*
X145561623Y-77476190D01*
X145978290Y-77000000D02*
X145978290Y-76523809D01*
X145561623Y-76821428D02*
X146633052Y-76821428D01*
X146633052Y-76821428D02*
X146752100Y-76761905D01*
X146752100Y-76761905D02*
X146811623Y-76642857D01*
X146811623Y-76642857D02*
X146811623Y-76523809D01*
X146752100Y-75630952D02*
X146811623Y-75750000D01*
X146811623Y-75750000D02*
X146811623Y-75988095D01*
X146811623Y-75988095D02*
X146752100Y-76107142D01*
X146752100Y-76107142D02*
X146633052Y-76166666D01*
X146633052Y-76166666D02*
X146156861Y-76166666D01*
X146156861Y-76166666D02*
X146037814Y-76107142D01*
X146037814Y-76107142D02*
X145978290Y-75988095D01*
X145978290Y-75988095D02*
X145978290Y-75750000D01*
X145978290Y-75750000D02*
X146037814Y-75630952D01*
X146037814Y-75630952D02*
X146156861Y-75571428D01*
X146156861Y-75571428D02*
X146275909Y-75571428D01*
X146275909Y-75571428D02*
X146394957Y-76166666D01*
X146811623Y-75035713D02*
X145978290Y-75035713D01*
X146216385Y-75035713D02*
X146097338Y-74976190D01*
X146097338Y-74976190D02*
X146037814Y-74916666D01*
X146037814Y-74916666D02*
X145978290Y-74797618D01*
X145978290Y-74797618D02*
X145978290Y-74678571D01*
X147990790Y-79827381D02*
X148347933Y-80779761D01*
X148347933Y-80779761D02*
X148705076Y-79827381D01*
X148347933Y-79232142D02*
X148347933Y-78279762D01*
X148824123Y-76136904D02*
X148824123Y-76732142D01*
X148824123Y-76732142D02*
X147574123Y-76732142D01*
X148764600Y-75244047D02*
X148824123Y-75363095D01*
X148824123Y-75363095D02*
X148824123Y-75601190D01*
X148824123Y-75601190D02*
X148764600Y-75720237D01*
X148764600Y-75720237D02*
X148645552Y-75779761D01*
X148645552Y-75779761D02*
X148169361Y-75779761D01*
X148169361Y-75779761D02*
X148050314Y-75720237D01*
X148050314Y-75720237D02*
X147990790Y-75601190D01*
X147990790Y-75601190D02*
X147990790Y-75363095D01*
X147990790Y-75363095D02*
X148050314Y-75244047D01*
X148050314Y-75244047D02*
X148169361Y-75184523D01*
X148169361Y-75184523D02*
X148288409Y-75184523D01*
X148288409Y-75184523D02*
X148407457Y-75779761D01*
X148764600Y-74708332D02*
X148824123Y-74589285D01*
X148824123Y-74589285D02*
X148824123Y-74351189D01*
X148824123Y-74351189D02*
X148764600Y-74232142D01*
X148764600Y-74232142D02*
X148645552Y-74172618D01*
X148645552Y-74172618D02*
X148586028Y-74172618D01*
X148586028Y-74172618D02*
X148466980Y-74232142D01*
X148466980Y-74232142D02*
X148407457Y-74351189D01*
X148407457Y-74351189D02*
X148407457Y-74529761D01*
X148407457Y-74529761D02*
X148347933Y-74648808D01*
X148347933Y-74648808D02*
X148228885Y-74708332D01*
X148228885Y-74708332D02*
X148169361Y-74708332D01*
X148169361Y-74708332D02*
X148050314Y-74648808D01*
X148050314Y-74648808D02*
X147990790Y-74529761D01*
X147990790Y-74529761D02*
X147990790Y-74351189D01*
X147990790Y-74351189D02*
X148050314Y-74232142D01*
X148764600Y-73696427D02*
X148824123Y-73577380D01*
X148824123Y-73577380D02*
X148824123Y-73339284D01*
X148824123Y-73339284D02*
X148764600Y-73220237D01*
X148764600Y-73220237D02*
X148645552Y-73160713D01*
X148645552Y-73160713D02*
X148586028Y-73160713D01*
X148586028Y-73160713D02*
X148466980Y-73220237D01*
X148466980Y-73220237D02*
X148407457Y-73339284D01*
X148407457Y-73339284D02*
X148407457Y-73517856D01*
X148407457Y-73517856D02*
X148347933Y-73636903D01*
X148347933Y-73636903D02*
X148228885Y-73696427D01*
X148228885Y-73696427D02*
X148169361Y-73696427D01*
X148169361Y-73696427D02*
X148050314Y-73636903D01*
X148050314Y-73636903D02*
X147990790Y-73517856D01*
X147990790Y-73517856D02*
X147990790Y-73339284D01*
X147990790Y-73339284D02*
X148050314Y-73220237D01*
X150836623Y-80928570D02*
X149586623Y-80928570D01*
X149586623Y-80928570D02*
X150479480Y-80511904D01*
X150479480Y-80511904D02*
X149586623Y-80095237D01*
X149586623Y-80095237D02*
X150836623Y-80095237D01*
X150836623Y-79321428D02*
X150777100Y-79440476D01*
X150777100Y-79440476D02*
X150717576Y-79499999D01*
X150717576Y-79499999D02*
X150598528Y-79559523D01*
X150598528Y-79559523D02*
X150241385Y-79559523D01*
X150241385Y-79559523D02*
X150122338Y-79499999D01*
X150122338Y-79499999D02*
X150062814Y-79440476D01*
X150062814Y-79440476D02*
X150003290Y-79321428D01*
X150003290Y-79321428D02*
X150003290Y-79142857D01*
X150003290Y-79142857D02*
X150062814Y-79023809D01*
X150062814Y-79023809D02*
X150122338Y-78964285D01*
X150122338Y-78964285D02*
X150241385Y-78904761D01*
X150241385Y-78904761D02*
X150598528Y-78904761D01*
X150598528Y-78904761D02*
X150717576Y-78964285D01*
X150717576Y-78964285D02*
X150777100Y-79023809D01*
X150777100Y-79023809D02*
X150836623Y-79142857D01*
X150836623Y-79142857D02*
X150836623Y-79321428D01*
X150836623Y-78369047D02*
X150003290Y-78369047D01*
X150241385Y-78369047D02*
X150122338Y-78309524D01*
X150122338Y-78309524D02*
X150062814Y-78250000D01*
X150062814Y-78250000D02*
X150003290Y-78130952D01*
X150003290Y-78130952D02*
X150003290Y-78011905D01*
X150777100Y-77119047D02*
X150836623Y-77238095D01*
X150836623Y-77238095D02*
X150836623Y-77476190D01*
X150836623Y-77476190D02*
X150777100Y-77595237D01*
X150777100Y-77595237D02*
X150658052Y-77654761D01*
X150658052Y-77654761D02*
X150181861Y-77654761D01*
X150181861Y-77654761D02*
X150062814Y-77595237D01*
X150062814Y-77595237D02*
X150003290Y-77476190D01*
X150003290Y-77476190D02*
X150003290Y-77238095D01*
X150003290Y-77238095D02*
X150062814Y-77119047D01*
X150062814Y-77119047D02*
X150181861Y-77059523D01*
X150181861Y-77059523D02*
X150300909Y-77059523D01*
X150300909Y-77059523D02*
X150419957Y-77654761D01*
X150360433Y-75571427D02*
X150360433Y-74619047D01*
X150003290Y-74023808D02*
X150360433Y-73071428D01*
X150360433Y-73071428D02*
X150717576Y-74023808D01*
D10*
X132077142Y-71041919D02*
X131743809Y-70565728D01*
X131505714Y-71041919D02*
X131505714Y-70041919D01*
X131505714Y-70041919D02*
X131886666Y-70041919D01*
X131886666Y-70041919D02*
X131981904Y-70089538D01*
X131981904Y-70089538D02*
X132029523Y-70137157D01*
X132029523Y-70137157D02*
X132077142Y-70232395D01*
X132077142Y-70232395D02*
X132077142Y-70375252D01*
X132077142Y-70375252D02*
X132029523Y-70470490D01*
X132029523Y-70470490D02*
X131981904Y-70518109D01*
X131981904Y-70518109D02*
X131886666Y-70565728D01*
X131886666Y-70565728D02*
X131505714Y-70565728D01*
X133029523Y-71041919D02*
X132458095Y-71041919D01*
X132743809Y-71041919D02*
X132743809Y-70041919D01*
X132743809Y-70041919D02*
X132648571Y-70184776D01*
X132648571Y-70184776D02*
X132553333Y-70280014D01*
X132553333Y-70280014D02*
X132458095Y-70327633D01*
X133886666Y-70375252D02*
X133886666Y-71041919D01*
X133648571Y-69994300D02*
X133410476Y-70708585D01*
X133410476Y-70708585D02*
X134029523Y-70708585D01*
X118353333Y-54741919D02*
X118020000Y-54265728D01*
X117781905Y-54741919D02*
X117781905Y-53741919D01*
X117781905Y-53741919D02*
X118162857Y-53741919D01*
X118162857Y-53741919D02*
X118258095Y-53789538D01*
X118258095Y-53789538D02*
X118305714Y-53837157D01*
X118305714Y-53837157D02*
X118353333Y-53932395D01*
X118353333Y-53932395D02*
X118353333Y-54075252D01*
X118353333Y-54075252D02*
X118305714Y-54170490D01*
X118305714Y-54170490D02*
X118258095Y-54218109D01*
X118258095Y-54218109D02*
X118162857Y-54265728D01*
X118162857Y-54265728D02*
X117781905Y-54265728D01*
X118686667Y-53741919D02*
X119305714Y-53741919D01*
X119305714Y-53741919D02*
X118972381Y-54122871D01*
X118972381Y-54122871D02*
X119115238Y-54122871D01*
X119115238Y-54122871D02*
X119210476Y-54170490D01*
X119210476Y-54170490D02*
X119258095Y-54218109D01*
X119258095Y-54218109D02*
X119305714Y-54313347D01*
X119305714Y-54313347D02*
X119305714Y-54551442D01*
X119305714Y-54551442D02*
X119258095Y-54646680D01*
X119258095Y-54646680D02*
X119210476Y-54694300D01*
X119210476Y-54694300D02*
X119115238Y-54741919D01*
X119115238Y-54741919D02*
X118829524Y-54741919D01*
X118829524Y-54741919D02*
X118734286Y-54694300D01*
X118734286Y-54694300D02*
X118686667Y-54646680D01*
X132077142Y-76463419D02*
X131743809Y-75987228D01*
X131505714Y-76463419D02*
X131505714Y-75463419D01*
X131505714Y-75463419D02*
X131886666Y-75463419D01*
X131886666Y-75463419D02*
X131981904Y-75511038D01*
X131981904Y-75511038D02*
X132029523Y-75558657D01*
X132029523Y-75558657D02*
X132077142Y-75653895D01*
X132077142Y-75653895D02*
X132077142Y-75796752D01*
X132077142Y-75796752D02*
X132029523Y-75891990D01*
X132029523Y-75891990D02*
X131981904Y-75939609D01*
X131981904Y-75939609D02*
X131886666Y-75987228D01*
X131886666Y-75987228D02*
X131505714Y-75987228D01*
X133029523Y-76463419D02*
X132458095Y-76463419D01*
X132743809Y-76463419D02*
X132743809Y-75463419D01*
X132743809Y-75463419D02*
X132648571Y-75606276D01*
X132648571Y-75606276D02*
X132553333Y-75701514D01*
X132553333Y-75701514D02*
X132458095Y-75749133D01*
X133934285Y-75463419D02*
X133458095Y-75463419D01*
X133458095Y-75463419D02*
X133410476Y-75939609D01*
X133410476Y-75939609D02*
X133458095Y-75891990D01*
X133458095Y-75891990D02*
X133553333Y-75844371D01*
X133553333Y-75844371D02*
X133791428Y-75844371D01*
X133791428Y-75844371D02*
X133886666Y-75891990D01*
X133886666Y-75891990D02*
X133934285Y-75939609D01*
X133934285Y-75939609D02*
X133981904Y-76034847D01*
X133981904Y-76034847D02*
X133981904Y-76272942D01*
X133981904Y-76272942D02*
X133934285Y-76368180D01*
X133934285Y-76368180D02*
X133886666Y-76415800D01*
X133886666Y-76415800D02*
X133791428Y-76463419D01*
X133791428Y-76463419D02*
X133553333Y-76463419D01*
X133553333Y-76463419D02*
X133458095Y-76415800D01*
X133458095Y-76415800D02*
X133410476Y-76368180D01*
X118353333Y-81884819D02*
X118020000Y-81408628D01*
X117781905Y-81884819D02*
X117781905Y-80884819D01*
X117781905Y-80884819D02*
X118162857Y-80884819D01*
X118162857Y-80884819D02*
X118258095Y-80932438D01*
X118258095Y-80932438D02*
X118305714Y-80980057D01*
X118305714Y-80980057D02*
X118353333Y-81075295D01*
X118353333Y-81075295D02*
X118353333Y-81218152D01*
X118353333Y-81218152D02*
X118305714Y-81313390D01*
X118305714Y-81313390D02*
X118258095Y-81361009D01*
X118258095Y-81361009D02*
X118162857Y-81408628D01*
X118162857Y-81408628D02*
X117781905Y-81408628D01*
X118924762Y-81313390D02*
X118829524Y-81265771D01*
X118829524Y-81265771D02*
X118781905Y-81218152D01*
X118781905Y-81218152D02*
X118734286Y-81122914D01*
X118734286Y-81122914D02*
X118734286Y-81075295D01*
X118734286Y-81075295D02*
X118781905Y-80980057D01*
X118781905Y-80980057D02*
X118829524Y-80932438D01*
X118829524Y-80932438D02*
X118924762Y-80884819D01*
X118924762Y-80884819D02*
X119115238Y-80884819D01*
X119115238Y-80884819D02*
X119210476Y-80932438D01*
X119210476Y-80932438D02*
X119258095Y-80980057D01*
X119258095Y-80980057D02*
X119305714Y-81075295D01*
X119305714Y-81075295D02*
X119305714Y-81122914D01*
X119305714Y-81122914D02*
X119258095Y-81218152D01*
X119258095Y-81218152D02*
X119210476Y-81265771D01*
X119210476Y-81265771D02*
X119115238Y-81313390D01*
X119115238Y-81313390D02*
X118924762Y-81313390D01*
X118924762Y-81313390D02*
X118829524Y-81361009D01*
X118829524Y-81361009D02*
X118781905Y-81408628D01*
X118781905Y-81408628D02*
X118734286Y-81503866D01*
X118734286Y-81503866D02*
X118734286Y-81694342D01*
X118734286Y-81694342D02*
X118781905Y-81789580D01*
X118781905Y-81789580D02*
X118829524Y-81837200D01*
X118829524Y-81837200D02*
X118924762Y-81884819D01*
X118924762Y-81884819D02*
X119115238Y-81884819D01*
X119115238Y-81884819D02*
X119210476Y-81837200D01*
X119210476Y-81837200D02*
X119258095Y-81789580D01*
X119258095Y-81789580D02*
X119305714Y-81694342D01*
X119305714Y-81694342D02*
X119305714Y-81503866D01*
X119305714Y-81503866D02*
X119258095Y-81408628D01*
X119258095Y-81408628D02*
X119210476Y-81361009D01*
X119210476Y-81361009D02*
X119115238Y-81313390D01*
X132077142Y-60199119D02*
X131743809Y-59722928D01*
X131505714Y-60199119D02*
X131505714Y-59199119D01*
X131505714Y-59199119D02*
X131886666Y-59199119D01*
X131886666Y-59199119D02*
X131981904Y-59246738D01*
X131981904Y-59246738D02*
X132029523Y-59294357D01*
X132029523Y-59294357D02*
X132077142Y-59389595D01*
X132077142Y-59389595D02*
X132077142Y-59532452D01*
X132077142Y-59532452D02*
X132029523Y-59627690D01*
X132029523Y-59627690D02*
X131981904Y-59675309D01*
X131981904Y-59675309D02*
X131886666Y-59722928D01*
X131886666Y-59722928D02*
X131505714Y-59722928D01*
X133029523Y-60199119D02*
X132458095Y-60199119D01*
X132743809Y-60199119D02*
X132743809Y-59199119D01*
X132743809Y-59199119D02*
X132648571Y-59341976D01*
X132648571Y-59341976D02*
X132553333Y-59437214D01*
X132553333Y-59437214D02*
X132458095Y-59484833D01*
X133410476Y-59294357D02*
X133458095Y-59246738D01*
X133458095Y-59246738D02*
X133553333Y-59199119D01*
X133553333Y-59199119D02*
X133791428Y-59199119D01*
X133791428Y-59199119D02*
X133886666Y-59246738D01*
X133886666Y-59246738D02*
X133934285Y-59294357D01*
X133934285Y-59294357D02*
X133981904Y-59389595D01*
X133981904Y-59389595D02*
X133981904Y-59484833D01*
X133981904Y-59484833D02*
X133934285Y-59627690D01*
X133934285Y-59627690D02*
X133362857Y-60199119D01*
X133362857Y-60199119D02*
X133981904Y-60199119D01*
D12*
X99054318Y-69748332D02*
X99961461Y-69748332D01*
X99961461Y-69748332D02*
X100142889Y-69808809D01*
X100142889Y-69808809D02*
X100263842Y-69929761D01*
X100263842Y-69929761D02*
X100324318Y-70111190D01*
X100324318Y-70111190D02*
X100324318Y-70232142D01*
X99175270Y-69204047D02*
X99114794Y-69143571D01*
X99114794Y-69143571D02*
X99054318Y-69022618D01*
X99054318Y-69022618D02*
X99054318Y-68720237D01*
X99054318Y-68720237D02*
X99114794Y-68599285D01*
X99114794Y-68599285D02*
X99175270Y-68538809D01*
X99175270Y-68538809D02*
X99296222Y-68478332D01*
X99296222Y-68478332D02*
X99417175Y-68478332D01*
X99417175Y-68478332D02*
X99598603Y-68538809D01*
X99598603Y-68538809D02*
X100324318Y-69264523D01*
X100324318Y-69264523D02*
X100324318Y-68478332D01*
X139873365Y-91711666D02*
X139933842Y-91772142D01*
X139933842Y-91772142D02*
X139994318Y-91953571D01*
X139994318Y-91953571D02*
X139994318Y-92074523D01*
X139994318Y-92074523D02*
X139933842Y-92255952D01*
X139933842Y-92255952D02*
X139812889Y-92376904D01*
X139812889Y-92376904D02*
X139691937Y-92437381D01*
X139691937Y-92437381D02*
X139450032Y-92497857D01*
X139450032Y-92497857D02*
X139268603Y-92497857D01*
X139268603Y-92497857D02*
X139026699Y-92437381D01*
X139026699Y-92437381D02*
X138905746Y-92376904D01*
X138905746Y-92376904D02*
X138784794Y-92255952D01*
X138784794Y-92255952D02*
X138724318Y-92074523D01*
X138724318Y-92074523D02*
X138724318Y-91953571D01*
X138724318Y-91953571D02*
X138784794Y-91772142D01*
X138784794Y-91772142D02*
X138845270Y-91711666D01*
X139994318Y-90502142D02*
X139994318Y-91227857D01*
X139994318Y-90865000D02*
X138724318Y-90865000D01*
X138724318Y-90865000D02*
X138905746Y-90985952D01*
X138905746Y-90985952D02*
X139026699Y-91106904D01*
X139026699Y-91106904D02*
X139087175Y-91227857D01*
D10*
X132077142Y-65620519D02*
X131743809Y-65144328D01*
X131505714Y-65620519D02*
X131505714Y-64620519D01*
X131505714Y-64620519D02*
X131886666Y-64620519D01*
X131886666Y-64620519D02*
X131981904Y-64668138D01*
X131981904Y-64668138D02*
X132029523Y-64715757D01*
X132029523Y-64715757D02*
X132077142Y-64810995D01*
X132077142Y-64810995D02*
X132077142Y-64953852D01*
X132077142Y-64953852D02*
X132029523Y-65049090D01*
X132029523Y-65049090D02*
X131981904Y-65096709D01*
X131981904Y-65096709D02*
X131886666Y-65144328D01*
X131886666Y-65144328D02*
X131505714Y-65144328D01*
X133029523Y-65620519D02*
X132458095Y-65620519D01*
X132743809Y-65620519D02*
X132743809Y-64620519D01*
X132743809Y-64620519D02*
X132648571Y-64763376D01*
X132648571Y-64763376D02*
X132553333Y-64858614D01*
X132553333Y-64858614D02*
X132458095Y-64906233D01*
X133362857Y-64620519D02*
X133981904Y-64620519D01*
X133981904Y-64620519D02*
X133648571Y-65001471D01*
X133648571Y-65001471D02*
X133791428Y-65001471D01*
X133791428Y-65001471D02*
X133886666Y-65049090D01*
X133886666Y-65049090D02*
X133934285Y-65096709D01*
X133934285Y-65096709D02*
X133981904Y-65191947D01*
X133981904Y-65191947D02*
X133981904Y-65430042D01*
X133981904Y-65430042D02*
X133934285Y-65525280D01*
X133934285Y-65525280D02*
X133886666Y-65572900D01*
X133886666Y-65572900D02*
X133791428Y-65620519D01*
X133791428Y-65620519D02*
X133505714Y-65620519D01*
X133505714Y-65620519D02*
X133410476Y-65572900D01*
X133410476Y-65572900D02*
X133362857Y-65525280D01*
X118353333Y-49313419D02*
X118020000Y-48837228D01*
X117781905Y-49313419D02*
X117781905Y-48313419D01*
X117781905Y-48313419D02*
X118162857Y-48313419D01*
X118162857Y-48313419D02*
X118258095Y-48361038D01*
X118258095Y-48361038D02*
X118305714Y-48408657D01*
X118305714Y-48408657D02*
X118353333Y-48503895D01*
X118353333Y-48503895D02*
X118353333Y-48646752D01*
X118353333Y-48646752D02*
X118305714Y-48741990D01*
X118305714Y-48741990D02*
X118258095Y-48789609D01*
X118258095Y-48789609D02*
X118162857Y-48837228D01*
X118162857Y-48837228D02*
X117781905Y-48837228D01*
X118734286Y-48408657D02*
X118781905Y-48361038D01*
X118781905Y-48361038D02*
X118877143Y-48313419D01*
X118877143Y-48313419D02*
X119115238Y-48313419D01*
X119115238Y-48313419D02*
X119210476Y-48361038D01*
X119210476Y-48361038D02*
X119258095Y-48408657D01*
X119258095Y-48408657D02*
X119305714Y-48503895D01*
X119305714Y-48503895D02*
X119305714Y-48599133D01*
X119305714Y-48599133D02*
X119258095Y-48741990D01*
X119258095Y-48741990D02*
X118686667Y-49313419D01*
X118686667Y-49313419D02*
X119305714Y-49313419D01*
X132077142Y-81884819D02*
X131743809Y-81408628D01*
X131505714Y-81884819D02*
X131505714Y-80884819D01*
X131505714Y-80884819D02*
X131886666Y-80884819D01*
X131886666Y-80884819D02*
X131981904Y-80932438D01*
X131981904Y-80932438D02*
X132029523Y-80980057D01*
X132029523Y-80980057D02*
X132077142Y-81075295D01*
X132077142Y-81075295D02*
X132077142Y-81218152D01*
X132077142Y-81218152D02*
X132029523Y-81313390D01*
X132029523Y-81313390D02*
X131981904Y-81361009D01*
X131981904Y-81361009D02*
X131886666Y-81408628D01*
X131886666Y-81408628D02*
X131505714Y-81408628D01*
X133029523Y-81884819D02*
X132458095Y-81884819D01*
X132743809Y-81884819D02*
X132743809Y-80884819D01*
X132743809Y-80884819D02*
X132648571Y-81027676D01*
X132648571Y-81027676D02*
X132553333Y-81122914D01*
X132553333Y-81122914D02*
X132458095Y-81170533D01*
X133886666Y-80884819D02*
X133696190Y-80884819D01*
X133696190Y-80884819D02*
X133600952Y-80932438D01*
X133600952Y-80932438D02*
X133553333Y-80980057D01*
X133553333Y-80980057D02*
X133458095Y-81122914D01*
X133458095Y-81122914D02*
X133410476Y-81313390D01*
X133410476Y-81313390D02*
X133410476Y-81694342D01*
X133410476Y-81694342D02*
X133458095Y-81789580D01*
X133458095Y-81789580D02*
X133505714Y-81837200D01*
X133505714Y-81837200D02*
X133600952Y-81884819D01*
X133600952Y-81884819D02*
X133791428Y-81884819D01*
X133791428Y-81884819D02*
X133886666Y-81837200D01*
X133886666Y-81837200D02*
X133934285Y-81789580D01*
X133934285Y-81789580D02*
X133981904Y-81694342D01*
X133981904Y-81694342D02*
X133981904Y-81456247D01*
X133981904Y-81456247D02*
X133934285Y-81361009D01*
X133934285Y-81361009D02*
X133886666Y-81313390D01*
X133886666Y-81313390D02*
X133791428Y-81265771D01*
X133791428Y-81265771D02*
X133600952Y-81265771D01*
X133600952Y-81265771D02*
X133505714Y-81313390D01*
X133505714Y-81313390D02*
X133458095Y-81361009D01*
X133458095Y-81361009D02*
X133410476Y-81456247D01*
D12*
X144513842Y-78467619D02*
X144574318Y-78286190D01*
X144574318Y-78286190D02*
X144574318Y-77983809D01*
X144574318Y-77983809D02*
X144513842Y-77862857D01*
X144513842Y-77862857D02*
X144453365Y-77802381D01*
X144453365Y-77802381D02*
X144332413Y-77741904D01*
X144332413Y-77741904D02*
X144211461Y-77741904D01*
X144211461Y-77741904D02*
X144090508Y-77802381D01*
X144090508Y-77802381D02*
X144030032Y-77862857D01*
X144030032Y-77862857D02*
X143969556Y-77983809D01*
X143969556Y-77983809D02*
X143909080Y-78225714D01*
X143909080Y-78225714D02*
X143848603Y-78346666D01*
X143848603Y-78346666D02*
X143788127Y-78407143D01*
X143788127Y-78407143D02*
X143667175Y-78467619D01*
X143667175Y-78467619D02*
X143546222Y-78467619D01*
X143546222Y-78467619D02*
X143425270Y-78407143D01*
X143425270Y-78407143D02*
X143364794Y-78346666D01*
X143364794Y-78346666D02*
X143304318Y-78225714D01*
X143304318Y-78225714D02*
X143304318Y-77923333D01*
X143304318Y-77923333D02*
X143364794Y-77741904D01*
X144574318Y-76532380D02*
X144574318Y-77258095D01*
X144574318Y-76895238D02*
X143304318Y-76895238D01*
X143304318Y-76895238D02*
X143485746Y-77016190D01*
X143485746Y-77016190D02*
X143606699Y-77137142D01*
X143606699Y-77137142D02*
X143667175Y-77258095D01*
D10*
X118353333Y-65599119D02*
X118020000Y-65122928D01*
X117781905Y-65599119D02*
X117781905Y-64599119D01*
X117781905Y-64599119D02*
X118162857Y-64599119D01*
X118162857Y-64599119D02*
X118258095Y-64646738D01*
X118258095Y-64646738D02*
X118305714Y-64694357D01*
X118305714Y-64694357D02*
X118353333Y-64789595D01*
X118353333Y-64789595D02*
X118353333Y-64932452D01*
X118353333Y-64932452D02*
X118305714Y-65027690D01*
X118305714Y-65027690D02*
X118258095Y-65075309D01*
X118258095Y-65075309D02*
X118162857Y-65122928D01*
X118162857Y-65122928D02*
X117781905Y-65122928D01*
X119258095Y-64599119D02*
X118781905Y-64599119D01*
X118781905Y-64599119D02*
X118734286Y-65075309D01*
X118734286Y-65075309D02*
X118781905Y-65027690D01*
X118781905Y-65027690D02*
X118877143Y-64980071D01*
X118877143Y-64980071D02*
X119115238Y-64980071D01*
X119115238Y-64980071D02*
X119210476Y-65027690D01*
X119210476Y-65027690D02*
X119258095Y-65075309D01*
X119258095Y-65075309D02*
X119305714Y-65170547D01*
X119305714Y-65170547D02*
X119305714Y-65408642D01*
X119305714Y-65408642D02*
X119258095Y-65503880D01*
X119258095Y-65503880D02*
X119210476Y-65551500D01*
X119210476Y-65551500D02*
X119115238Y-65599119D01*
X119115238Y-65599119D02*
X118877143Y-65599119D01*
X118877143Y-65599119D02*
X118781905Y-65551500D01*
X118781905Y-65551500D02*
X118734286Y-65503880D01*
D12*
X146954318Y-60923332D02*
X147861461Y-60923332D01*
X147861461Y-60923332D02*
X148042889Y-60983809D01*
X148042889Y-60983809D02*
X148163842Y-61104761D01*
X148163842Y-61104761D02*
X148224318Y-61286190D01*
X148224318Y-61286190D02*
X148224318Y-61407142D01*
X148224318Y-59653332D02*
X148224318Y-60379047D01*
X148224318Y-60016190D02*
X146954318Y-60016190D01*
X146954318Y-60016190D02*
X147135746Y-60137142D01*
X147135746Y-60137142D02*
X147256699Y-60258094D01*
X147256699Y-60258094D02*
X147317175Y-60379047D01*
D10*
X118353333Y-76456219D02*
X118020000Y-75980028D01*
X117781905Y-76456219D02*
X117781905Y-75456219D01*
X117781905Y-75456219D02*
X118162857Y-75456219D01*
X118162857Y-75456219D02*
X118258095Y-75503838D01*
X118258095Y-75503838D02*
X118305714Y-75551457D01*
X118305714Y-75551457D02*
X118353333Y-75646695D01*
X118353333Y-75646695D02*
X118353333Y-75789552D01*
X118353333Y-75789552D02*
X118305714Y-75884790D01*
X118305714Y-75884790D02*
X118258095Y-75932409D01*
X118258095Y-75932409D02*
X118162857Y-75980028D01*
X118162857Y-75980028D02*
X117781905Y-75980028D01*
X118686667Y-75456219D02*
X119353333Y-75456219D01*
X119353333Y-75456219D02*
X118924762Y-76456219D01*
X132077142Y-49356219D02*
X131743809Y-48880028D01*
X131505714Y-49356219D02*
X131505714Y-48356219D01*
X131505714Y-48356219D02*
X131886666Y-48356219D01*
X131886666Y-48356219D02*
X131981904Y-48403838D01*
X131981904Y-48403838D02*
X132029523Y-48451457D01*
X132029523Y-48451457D02*
X132077142Y-48546695D01*
X132077142Y-48546695D02*
X132077142Y-48689552D01*
X132077142Y-48689552D02*
X132029523Y-48784790D01*
X132029523Y-48784790D02*
X131981904Y-48832409D01*
X131981904Y-48832409D02*
X131886666Y-48880028D01*
X131886666Y-48880028D02*
X131505714Y-48880028D01*
X133029523Y-49356219D02*
X132458095Y-49356219D01*
X132743809Y-49356219D02*
X132743809Y-48356219D01*
X132743809Y-48356219D02*
X132648571Y-48499076D01*
X132648571Y-48499076D02*
X132553333Y-48594314D01*
X132553333Y-48594314D02*
X132458095Y-48641933D01*
X133648571Y-48356219D02*
X133743809Y-48356219D01*
X133743809Y-48356219D02*
X133839047Y-48403838D01*
X133839047Y-48403838D02*
X133886666Y-48451457D01*
X133886666Y-48451457D02*
X133934285Y-48546695D01*
X133934285Y-48546695D02*
X133981904Y-48737171D01*
X133981904Y-48737171D02*
X133981904Y-48975266D01*
X133981904Y-48975266D02*
X133934285Y-49165742D01*
X133934285Y-49165742D02*
X133886666Y-49260980D01*
X133886666Y-49260980D02*
X133839047Y-49308600D01*
X133839047Y-49308600D02*
X133743809Y-49356219D01*
X133743809Y-49356219D02*
X133648571Y-49356219D01*
X133648571Y-49356219D02*
X133553333Y-49308600D01*
X133553333Y-49308600D02*
X133505714Y-49260980D01*
X133505714Y-49260980D02*
X133458095Y-49165742D01*
X133458095Y-49165742D02*
X133410476Y-48975266D01*
X133410476Y-48975266D02*
X133410476Y-48737171D01*
X133410476Y-48737171D02*
X133458095Y-48546695D01*
X133458095Y-48546695D02*
X133505714Y-48451457D01*
X133505714Y-48451457D02*
X133553333Y-48403838D01*
X133553333Y-48403838D02*
X133648571Y-48356219D01*
D12*
X115453365Y-91711666D02*
X115513842Y-91772142D01*
X115513842Y-91772142D02*
X115574318Y-91953571D01*
X115574318Y-91953571D02*
X115574318Y-92074523D01*
X115574318Y-92074523D02*
X115513842Y-92255952D01*
X115513842Y-92255952D02*
X115392889Y-92376904D01*
X115392889Y-92376904D02*
X115271937Y-92437381D01*
X115271937Y-92437381D02*
X115030032Y-92497857D01*
X115030032Y-92497857D02*
X114848603Y-92497857D01*
X114848603Y-92497857D02*
X114606699Y-92437381D01*
X114606699Y-92437381D02*
X114485746Y-92376904D01*
X114485746Y-92376904D02*
X114364794Y-92255952D01*
X114364794Y-92255952D02*
X114304318Y-92074523D01*
X114304318Y-92074523D02*
X114304318Y-91953571D01*
X114304318Y-91953571D02*
X114364794Y-91772142D01*
X114364794Y-91772142D02*
X114425270Y-91711666D01*
X114727651Y-90623095D02*
X115574318Y-90623095D01*
X114243842Y-90925476D02*
X115150984Y-91227857D01*
X115150984Y-91227857D02*
X115150984Y-90441666D01*
X131733365Y-91711666D02*
X131793842Y-91772142D01*
X131793842Y-91772142D02*
X131854318Y-91953571D01*
X131854318Y-91953571D02*
X131854318Y-92074523D01*
X131854318Y-92074523D02*
X131793842Y-92255952D01*
X131793842Y-92255952D02*
X131672889Y-92376904D01*
X131672889Y-92376904D02*
X131551937Y-92437381D01*
X131551937Y-92437381D02*
X131310032Y-92497857D01*
X131310032Y-92497857D02*
X131128603Y-92497857D01*
X131128603Y-92497857D02*
X130886699Y-92437381D01*
X130886699Y-92437381D02*
X130765746Y-92376904D01*
X130765746Y-92376904D02*
X130644794Y-92255952D01*
X130644794Y-92255952D02*
X130584318Y-92074523D01*
X130584318Y-92074523D02*
X130584318Y-91953571D01*
X130584318Y-91953571D02*
X130644794Y-91772142D01*
X130644794Y-91772142D02*
X130705270Y-91711666D01*
X130705270Y-91227857D02*
X130644794Y-91167381D01*
X130644794Y-91167381D02*
X130584318Y-91046428D01*
X130584318Y-91046428D02*
X130584318Y-90744047D01*
X130584318Y-90744047D02*
X130644794Y-90623095D01*
X130644794Y-90623095D02*
X130705270Y-90562619D01*
X130705270Y-90562619D02*
X130826222Y-90502142D01*
X130826222Y-90502142D02*
X130947175Y-90502142D01*
X130947175Y-90502142D02*
X131128603Y-90562619D01*
X131128603Y-90562619D02*
X131854318Y-91288333D01*
X131854318Y-91288333D02*
X131854318Y-90502142D01*
D10*
X118353333Y-43884819D02*
X118020000Y-43408628D01*
X117781905Y-43884819D02*
X117781905Y-42884819D01*
X117781905Y-42884819D02*
X118162857Y-42884819D01*
X118162857Y-42884819D02*
X118258095Y-42932438D01*
X118258095Y-42932438D02*
X118305714Y-42980057D01*
X118305714Y-42980057D02*
X118353333Y-43075295D01*
X118353333Y-43075295D02*
X118353333Y-43218152D01*
X118353333Y-43218152D02*
X118305714Y-43313390D01*
X118305714Y-43313390D02*
X118258095Y-43361009D01*
X118258095Y-43361009D02*
X118162857Y-43408628D01*
X118162857Y-43408628D02*
X117781905Y-43408628D01*
X119305714Y-43884819D02*
X118734286Y-43884819D01*
X119020000Y-43884819D02*
X119020000Y-42884819D01*
X119020000Y-42884819D02*
X118924762Y-43027676D01*
X118924762Y-43027676D02*
X118829524Y-43122914D01*
X118829524Y-43122914D02*
X118734286Y-43170533D01*
D12*
X123593365Y-91711666D02*
X123653842Y-91772142D01*
X123653842Y-91772142D02*
X123714318Y-91953571D01*
X123714318Y-91953571D02*
X123714318Y-92074523D01*
X123714318Y-92074523D02*
X123653842Y-92255952D01*
X123653842Y-92255952D02*
X123532889Y-92376904D01*
X123532889Y-92376904D02*
X123411937Y-92437381D01*
X123411937Y-92437381D02*
X123170032Y-92497857D01*
X123170032Y-92497857D02*
X122988603Y-92497857D01*
X122988603Y-92497857D02*
X122746699Y-92437381D01*
X122746699Y-92437381D02*
X122625746Y-92376904D01*
X122625746Y-92376904D02*
X122504794Y-92255952D01*
X122504794Y-92255952D02*
X122444318Y-92074523D01*
X122444318Y-92074523D02*
X122444318Y-91953571D01*
X122444318Y-91953571D02*
X122504794Y-91772142D01*
X122504794Y-91772142D02*
X122565270Y-91711666D01*
X122444318Y-91288333D02*
X122444318Y-90502142D01*
X122444318Y-90502142D02*
X122928127Y-90925476D01*
X122928127Y-90925476D02*
X122928127Y-90744047D01*
X122928127Y-90744047D02*
X122988603Y-90623095D01*
X122988603Y-90623095D02*
X123049080Y-90562619D01*
X123049080Y-90562619D02*
X123170032Y-90502142D01*
X123170032Y-90502142D02*
X123472413Y-90502142D01*
X123472413Y-90502142D02*
X123593365Y-90562619D01*
X123593365Y-90562619D02*
X123653842Y-90623095D01*
X123653842Y-90623095D02*
X123714318Y-90744047D01*
X123714318Y-90744047D02*
X123714318Y-91106904D01*
X123714318Y-91106904D02*
X123653842Y-91227857D01*
X123653842Y-91227857D02*
X123593365Y-91288333D01*
D10*
X132553333Y-43934819D02*
X132220000Y-43458628D01*
X131981905Y-43934819D02*
X131981905Y-42934819D01*
X131981905Y-42934819D02*
X132362857Y-42934819D01*
X132362857Y-42934819D02*
X132458095Y-42982438D01*
X132458095Y-42982438D02*
X132505714Y-43030057D01*
X132505714Y-43030057D02*
X132553333Y-43125295D01*
X132553333Y-43125295D02*
X132553333Y-43268152D01*
X132553333Y-43268152D02*
X132505714Y-43363390D01*
X132505714Y-43363390D02*
X132458095Y-43411009D01*
X132458095Y-43411009D02*
X132362857Y-43458628D01*
X132362857Y-43458628D02*
X131981905Y-43458628D01*
X133029524Y-43934819D02*
X133220000Y-43934819D01*
X133220000Y-43934819D02*
X133315238Y-43887200D01*
X133315238Y-43887200D02*
X133362857Y-43839580D01*
X133362857Y-43839580D02*
X133458095Y-43696723D01*
X133458095Y-43696723D02*
X133505714Y-43506247D01*
X133505714Y-43506247D02*
X133505714Y-43125295D01*
X133505714Y-43125295D02*
X133458095Y-43030057D01*
X133458095Y-43030057D02*
X133410476Y-42982438D01*
X133410476Y-42982438D02*
X133315238Y-42934819D01*
X133315238Y-42934819D02*
X133124762Y-42934819D01*
X133124762Y-42934819D02*
X133029524Y-42982438D01*
X133029524Y-42982438D02*
X132981905Y-43030057D01*
X132981905Y-43030057D02*
X132934286Y-43125295D01*
X132934286Y-43125295D02*
X132934286Y-43363390D01*
X132934286Y-43363390D02*
X132981905Y-43458628D01*
X132981905Y-43458628D02*
X133029524Y-43506247D01*
X133029524Y-43506247D02*
X133124762Y-43553866D01*
X133124762Y-43553866D02*
X133315238Y-43553866D01*
X133315238Y-43553866D02*
X133410476Y-43506247D01*
X133410476Y-43506247D02*
X133458095Y-43458628D01*
X133458095Y-43458628D02*
X133505714Y-43363390D01*
X132077142Y-54777719D02*
X131743809Y-54301528D01*
X131505714Y-54777719D02*
X131505714Y-53777719D01*
X131505714Y-53777719D02*
X131886666Y-53777719D01*
X131886666Y-53777719D02*
X131981904Y-53825338D01*
X131981904Y-53825338D02*
X132029523Y-53872957D01*
X132029523Y-53872957D02*
X132077142Y-53968195D01*
X132077142Y-53968195D02*
X132077142Y-54111052D01*
X132077142Y-54111052D02*
X132029523Y-54206290D01*
X132029523Y-54206290D02*
X131981904Y-54253909D01*
X131981904Y-54253909D02*
X131886666Y-54301528D01*
X131886666Y-54301528D02*
X131505714Y-54301528D01*
X133029523Y-54777719D02*
X132458095Y-54777719D01*
X132743809Y-54777719D02*
X132743809Y-53777719D01*
X132743809Y-53777719D02*
X132648571Y-53920576D01*
X132648571Y-53920576D02*
X132553333Y-54015814D01*
X132553333Y-54015814D02*
X132458095Y-54063433D01*
X133981904Y-54777719D02*
X133410476Y-54777719D01*
X133696190Y-54777719D02*
X133696190Y-53777719D01*
X133696190Y-53777719D02*
X133600952Y-53920576D01*
X133600952Y-53920576D02*
X133505714Y-54015814D01*
X133505714Y-54015814D02*
X133410476Y-54063433D01*
X118353333Y-60170519D02*
X118020000Y-59694328D01*
X117781905Y-60170519D02*
X117781905Y-59170519D01*
X117781905Y-59170519D02*
X118162857Y-59170519D01*
X118162857Y-59170519D02*
X118258095Y-59218138D01*
X118258095Y-59218138D02*
X118305714Y-59265757D01*
X118305714Y-59265757D02*
X118353333Y-59360995D01*
X118353333Y-59360995D02*
X118353333Y-59503852D01*
X118353333Y-59503852D02*
X118305714Y-59599090D01*
X118305714Y-59599090D02*
X118258095Y-59646709D01*
X118258095Y-59646709D02*
X118162857Y-59694328D01*
X118162857Y-59694328D02*
X117781905Y-59694328D01*
X119210476Y-59503852D02*
X119210476Y-60170519D01*
X118972381Y-59122900D02*
X118734286Y-59837185D01*
X118734286Y-59837185D02*
X119353333Y-59837185D01*
X118353333Y-71027719D02*
X118020000Y-70551528D01*
X117781905Y-71027719D02*
X117781905Y-70027719D01*
X117781905Y-70027719D02*
X118162857Y-70027719D01*
X118162857Y-70027719D02*
X118258095Y-70075338D01*
X118258095Y-70075338D02*
X118305714Y-70122957D01*
X118305714Y-70122957D02*
X118353333Y-70218195D01*
X118353333Y-70218195D02*
X118353333Y-70361052D01*
X118353333Y-70361052D02*
X118305714Y-70456290D01*
X118305714Y-70456290D02*
X118258095Y-70503909D01*
X118258095Y-70503909D02*
X118162857Y-70551528D01*
X118162857Y-70551528D02*
X117781905Y-70551528D01*
X119210476Y-70027719D02*
X119020000Y-70027719D01*
X119020000Y-70027719D02*
X118924762Y-70075338D01*
X118924762Y-70075338D02*
X118877143Y-70122957D01*
X118877143Y-70122957D02*
X118781905Y-70265814D01*
X118781905Y-70265814D02*
X118734286Y-70456290D01*
X118734286Y-70456290D02*
X118734286Y-70837242D01*
X118734286Y-70837242D02*
X118781905Y-70932480D01*
X118781905Y-70932480D02*
X118829524Y-70980100D01*
X118829524Y-70980100D02*
X118924762Y-71027719D01*
X118924762Y-71027719D02*
X119115238Y-71027719D01*
X119115238Y-71027719D02*
X119210476Y-70980100D01*
X119210476Y-70980100D02*
X119258095Y-70932480D01*
X119258095Y-70932480D02*
X119305714Y-70837242D01*
X119305714Y-70837242D02*
X119305714Y-70599147D01*
X119305714Y-70599147D02*
X119258095Y-70503909D01*
X119258095Y-70503909D02*
X119210476Y-70456290D01*
X119210476Y-70456290D02*
X119115238Y-70408671D01*
X119115238Y-70408671D02*
X118924762Y-70408671D01*
X118924762Y-70408671D02*
X118829524Y-70456290D01*
X118829524Y-70456290D02*
X118781905Y-70503909D01*
X118781905Y-70503909D02*
X118734286Y-70599147D01*
D13*
%TO.C,R14*%
X128680000Y-72957100D02*
X129450000Y-72957100D01*
X129450000Y-71587100D02*
X129450000Y-74327100D01*
X129450000Y-74327100D02*
X135990000Y-74327100D01*
X135990000Y-71587100D02*
X129450000Y-71587100D01*
X135990000Y-74327100D02*
X135990000Y-71587100D01*
X136760000Y-72957100D02*
X135990000Y-72957100D01*
%TO.C,R3*%
X114480000Y-56657100D02*
X115250000Y-56657100D01*
X115250000Y-55287100D02*
X115250000Y-58027100D01*
X115250000Y-58027100D02*
X121790000Y-58027100D01*
X121790000Y-55287100D02*
X115250000Y-55287100D01*
X121790000Y-58027100D02*
X121790000Y-55287100D01*
X122560000Y-56657100D02*
X121790000Y-56657100D01*
%TO.C,R15*%
X128680000Y-78378600D02*
X129450000Y-78378600D01*
X129450000Y-77008600D02*
X129450000Y-79748600D01*
X129450000Y-79748600D02*
X135990000Y-79748600D01*
X135990000Y-77008600D02*
X129450000Y-77008600D01*
X135990000Y-79748600D02*
X135990000Y-77008600D01*
X136760000Y-78378600D02*
X135990000Y-78378600D01*
%TO.C,R8*%
X114480000Y-83800000D02*
X115250000Y-83800000D01*
X115250000Y-82430000D02*
X115250000Y-85170000D01*
X115250000Y-85170000D02*
X121790000Y-85170000D01*
X121790000Y-82430000D02*
X115250000Y-82430000D01*
X121790000Y-85170000D02*
X121790000Y-82430000D01*
X122560000Y-83800000D02*
X121790000Y-83800000D01*
%TO.C,R12*%
X128680000Y-62114300D02*
X129450000Y-62114300D01*
X129450000Y-60744300D02*
X129450000Y-63484300D01*
X129450000Y-63484300D02*
X135990000Y-63484300D01*
X135990000Y-60744300D02*
X129450000Y-60744300D01*
X135990000Y-63484300D02*
X135990000Y-60744300D01*
X136760000Y-62114300D02*
X135990000Y-62114300D01*
D11*
%TO.C,J2*%
X110540000Y-52705000D02*
G75*
G03*
X110440000Y-52705000I-50000J0D01*
G01*
X110540000Y-52705000D02*
G75*
G03*
X110440000Y-52705000I-50000J0D01*
G01*
X110440000Y-52705000D02*
G75*
G03*
X110540000Y-52705000I50000J0D01*
G01*
X95500000Y-95870000D02*
X109900000Y-95870000D01*
X109900000Y-95870000D02*
X109900000Y-42780000D01*
X89600000Y-88805000D02*
X89600000Y-49845000D01*
X95500000Y-88805000D02*
X89600000Y-88805000D01*
X110440000Y-52705000D02*
X110440000Y-52705000D01*
X110540000Y-52705000D02*
X110540000Y-52705000D01*
X110540000Y-52705000D02*
X110540000Y-52705000D01*
X89600000Y-49845000D02*
X95500000Y-49845000D01*
X95500000Y-49845000D02*
X95500000Y-88805000D01*
X95500000Y-42780000D02*
X95500000Y-95870000D01*
X109900000Y-42780000D02*
X95500000Y-42780000D01*
D14*
%TO.C,C1*%
X141940000Y-87900000D02*
X141940000Y-95100000D01*
X136900000Y-87900000D02*
X141940000Y-87900000D01*
X141940000Y-95100000D02*
X136900000Y-95100000D01*
X136900000Y-95100000D02*
X136900000Y-87900000D01*
D13*
%TO.C,R13*%
X128680000Y-67535700D02*
X129450000Y-67535700D01*
X129450000Y-66165700D02*
X129450000Y-68905700D01*
X129450000Y-68905700D02*
X135990000Y-68905700D01*
X135990000Y-66165700D02*
X129450000Y-66165700D01*
X135990000Y-68905700D02*
X135990000Y-66165700D01*
X136760000Y-67535700D02*
X135990000Y-67535700D01*
%TO.C,R2*%
X114480000Y-51228600D02*
X115250000Y-51228600D01*
X115250000Y-49858600D02*
X115250000Y-52598600D01*
X115250000Y-52598600D02*
X121790000Y-52598600D01*
X121790000Y-49858600D02*
X115250000Y-49858600D01*
X121790000Y-52598600D02*
X121790000Y-49858600D01*
X122560000Y-51228600D02*
X121790000Y-51228600D01*
%TO.C,R16*%
X128680000Y-83800000D02*
X129450000Y-83800000D01*
X129450000Y-82430000D02*
X129450000Y-85170000D01*
X129450000Y-85170000D02*
X135990000Y-85170000D01*
X135990000Y-82430000D02*
X129450000Y-82430000D01*
X135990000Y-85170000D02*
X135990000Y-82430000D01*
X136760000Y-83800000D02*
X135990000Y-83800000D01*
D14*
%TO.C,S1*%
X140425000Y-84800000D02*
X140425000Y-70200000D01*
X141375000Y-84800000D02*
X140425000Y-84800000D01*
X143775000Y-84800000D02*
X144725000Y-84800000D01*
X144725000Y-84800000D02*
X144725000Y-70200000D01*
X144775000Y-82500000D02*
X147575000Y-82500000D01*
X147575000Y-82500000D02*
X147575000Y-81500000D01*
X147575000Y-81500000D02*
X144725000Y-81500000D01*
X140425000Y-70200000D02*
X141375000Y-70200000D01*
X144725000Y-70200000D02*
X143775000Y-70200000D01*
D13*
%TO.C,R5*%
X114480000Y-67514300D02*
X115250000Y-67514300D01*
X115250000Y-66144300D02*
X115250000Y-68884300D01*
X115250000Y-68884300D02*
X121790000Y-68884300D01*
X121790000Y-66144300D02*
X115250000Y-66144300D01*
X121790000Y-68884300D02*
X121790000Y-66144300D01*
X122560000Y-67514300D02*
X121790000Y-67514300D01*
D14*
%TO.C,J1*%
X148000000Y-53800000D02*
X148000000Y-53800000D01*
X148000000Y-53900000D02*
X148000000Y-53900000D01*
D11*
X151500000Y-54500000D02*
X151500000Y-66500000D01*
X144500000Y-54500000D02*
X151500000Y-54500000D01*
X142000000Y-54500000D02*
X140500000Y-54500000D01*
X140500000Y-54500000D02*
X140500000Y-66500000D01*
X152500000Y-56000000D02*
X152500000Y-58500000D01*
X151500000Y-56000000D02*
X152500000Y-56000000D01*
X154800000Y-57500000D02*
X154800000Y-63500000D01*
X152500000Y-57500000D02*
X154800000Y-57500000D01*
X152500000Y-58500000D02*
X151500000Y-58500000D01*
X152500000Y-62500000D02*
X152500000Y-65000000D01*
X151500000Y-62500000D02*
X152500000Y-62500000D01*
X154800000Y-63500000D02*
X152500000Y-63500000D01*
X152500000Y-65000000D02*
X151500000Y-65000000D01*
X151500000Y-66500000D02*
X144500000Y-66500000D01*
X140500000Y-66500000D02*
X142000000Y-66500000D01*
D14*
X148000000Y-53900000D02*
G75*
G03*
X148000000Y-53800000I0J50000D01*
G01*
X148000000Y-53800000D02*
G75*
G03*
X148000000Y-53900000I0J-50000D01*
G01*
D13*
%TO.C,R7*%
X114480000Y-78371400D02*
X115250000Y-78371400D01*
X115250000Y-77001400D02*
X115250000Y-79741400D01*
X115250000Y-79741400D02*
X121790000Y-79741400D01*
X121790000Y-77001400D02*
X115250000Y-77001400D01*
X121790000Y-79741400D02*
X121790000Y-77001400D01*
X122560000Y-78371400D02*
X121790000Y-78371400D01*
%TO.C,R10*%
X128680000Y-51271400D02*
X129450000Y-51271400D01*
X129450000Y-49901400D02*
X129450000Y-52641400D01*
X129450000Y-52641400D02*
X135990000Y-52641400D01*
X135990000Y-49901400D02*
X129450000Y-49901400D01*
X135990000Y-52641400D02*
X135990000Y-49901400D01*
X136760000Y-51271400D02*
X135990000Y-51271400D01*
D14*
%TO.C,C4*%
X117520000Y-87900000D02*
X117520000Y-95100000D01*
X112480000Y-87900000D02*
X117520000Y-87900000D01*
X117520000Y-95100000D02*
X112480000Y-95100000D01*
X112480000Y-95100000D02*
X112480000Y-87900000D01*
%TO.C,C2*%
X133800000Y-87900000D02*
X133800000Y-95100000D01*
X128760000Y-87900000D02*
X133800000Y-87900000D01*
X133800000Y-95100000D02*
X128760000Y-95100000D01*
X128760000Y-95100000D02*
X128760000Y-87900000D01*
D13*
%TO.C,R1*%
X114480000Y-45800000D02*
X115250000Y-45800000D01*
X115250000Y-44430000D02*
X115250000Y-47170000D01*
X115250000Y-47170000D02*
X121790000Y-47170000D01*
X121790000Y-44430000D02*
X115250000Y-44430000D01*
X121790000Y-47170000D02*
X121790000Y-44430000D01*
X122560000Y-45800000D02*
X121790000Y-45800000D01*
D14*
%TO.C,C3*%
X125660000Y-87900000D02*
X125660000Y-95100000D01*
X120620000Y-87900000D02*
X125660000Y-87900000D01*
X125660000Y-95100000D02*
X120620000Y-95100000D01*
X120620000Y-95100000D02*
X120620000Y-87900000D01*
D13*
%TO.C,R9*%
X128680000Y-45850000D02*
X129450000Y-45850000D01*
X129450000Y-44480000D02*
X129450000Y-47220000D01*
X129450000Y-47220000D02*
X135990000Y-47220000D01*
X135990000Y-44480000D02*
X129450000Y-44480000D01*
X135990000Y-47220000D02*
X135990000Y-44480000D01*
X136760000Y-45850000D02*
X135990000Y-45850000D01*
%TO.C,R11*%
X128680000Y-56692900D02*
X129450000Y-56692900D01*
X129450000Y-55322900D02*
X129450000Y-58062900D01*
X129450000Y-58062900D02*
X135990000Y-58062900D01*
X135990000Y-55322900D02*
X129450000Y-55322900D01*
X135990000Y-58062900D02*
X135990000Y-55322900D01*
X136760000Y-56692900D02*
X135990000Y-56692900D01*
%TO.C,R4*%
X114480000Y-62085700D02*
X115250000Y-62085700D01*
X115250000Y-60715700D02*
X115250000Y-63455700D01*
X115250000Y-63455700D02*
X121790000Y-63455700D01*
X121790000Y-60715700D02*
X115250000Y-60715700D01*
X121790000Y-63455700D02*
X121790000Y-60715700D01*
X122560000Y-62085700D02*
X121790000Y-62085700D01*
%TO.C,R6*%
X114480000Y-72942900D02*
X115250000Y-72942900D01*
X115250000Y-71572900D02*
X115250000Y-74312900D01*
X115250000Y-74312900D02*
X121790000Y-74312900D01*
X121790000Y-71572900D02*
X115250000Y-71572900D01*
X121790000Y-74312900D02*
X121790000Y-71572900D01*
X122560000Y-72942900D02*
X121790000Y-72942900D01*
%TD*%
M02*
