M48
; DRILL file {KiCad 7.0.10} date Tue Jan  9 13:23:08 2024
; FORMAT={-:-/ absolute / inch / decimal}
; #@! TF.CreationDate,2024-01-09T13:23:08-06:00
; #@! TF.GenerationSoftware,Kicad,Pcbnew,7.0.10
; #@! TF.FileFunction,Plated,1,2,PTH
FMAT,2
INCH
; #@! TA.AperFunction,Plated,PTH,ComponentDrill
T1C0.0295
; #@! TA.AperFunction,Plated,PTH,ComponentDrill
T2C0.0315
; #@! TA.AperFunction,Plated,PTH,ComponentDrill
T3C0.0433
; #@! TA.AperFunction,Plated,PTH,ComponentDrill
T4C0.0492
; #@! TA.AperFunction,Plated,PTH,ComponentDrill
T5C0.0669
; #@! TA.AperFunction,Plated,PTH,ComponentDrill
T6C0.1260
%
G90
G05
T1
X4.5268Y-3.5039
X4.5268Y-3.7008
X4.8472Y-3.5039
X4.8472Y-3.7008
X5.1677Y-3.5039
X5.1677Y-3.7008
X5.4882Y-3.5039
X5.4882Y-3.7008
T2
X4.4661Y-1.8031
X4.4661Y-2.0169
X4.4661Y-2.2306
X4.4661Y-2.4443
X4.4661Y-2.658
X4.4661Y-2.8718
X4.4661Y-3.0855
X4.4661Y-3.2992
X4.8661Y-1.8031
X4.8661Y-2.0169
X4.8661Y-2.2306
X4.8661Y-2.4443
X4.8661Y-2.658
X4.8661Y-2.8718
X4.8661Y-3.0855
X4.8661Y-3.2992
X5.0252Y-1.8051
X5.0252Y-2.0186
X5.0252Y-2.232
X5.0252Y-2.4454
X5.0252Y-2.6589
X5.0252Y-2.8723
X5.0252Y-3.0858
X5.0252Y-3.2992
X5.4252Y-1.8051
X5.4252Y-2.0186
X5.4252Y-2.232
X5.4252Y-2.4454
X5.4252Y-2.6589
X5.4252Y-2.8723
X5.4252Y-3.0858
X5.4252Y-3.2992
X5.6132Y-2.8543
X5.6132Y-2.9331
X5.6132Y-3.0118
X5.6132Y-3.0906
X5.6132Y-3.1693
X5.6132Y-3.248
T3
X4.1654Y-2.1295
X4.1654Y-2.2386
X4.1654Y-2.3476
X4.1654Y-2.4567
X4.1654Y-2.5657
X4.1654Y-2.6748
X4.1654Y-2.7839
X4.1654Y-2.8929
X4.1654Y-3.002
X4.1654Y-3.111
X4.1654Y-3.2201
X4.1654Y-3.3291
X4.2654Y-2.075
X4.2654Y-2.1841
X4.2654Y-2.2931
X4.2654Y-2.4022
X4.2654Y-2.5112
X4.2654Y-2.6203
X4.2654Y-2.7293
X4.2654Y-2.8384
X4.2654Y-2.9474
X4.2654Y-3.0565
X4.2654Y-3.1656
X4.2654Y-3.2746
X4.2654Y-3.3837
T4
X5.6132Y-2.7717
X5.6132Y-3.3307
T5
X5.6299Y-2.185
X5.6299Y-2.2835
X5.6299Y-2.4803
X5.6299Y-2.5787
X5.8268Y-2.3819
T6
X4.2154Y-1.8033
X4.2154Y-3.6553
M30
