%TF.GenerationSoftware,KiCad,Pcbnew,7.0.10*%
%TF.CreationDate,2024-01-09T13:23:14-06:00*%
%TF.ProjectId,LPT Blaster,4c505420-426c-4617-9374-65722e6b6963,rev?*%
%TF.SameCoordinates,Original*%
%TF.FileFunction,Copper,L1,Top*%
%TF.FilePolarity,Positive*%
%FSLAX46Y46*%
G04 Gerber Fmt 4.6, Leading zero omitted, Abs format (unit mm)*
G04 Created by KiCad (PCBNEW 7.0.10) date 2024-01-09 13:23:14*
%MOMM*%
%LPD*%
G01*
G04 APERTURE LIST*
%TA.AperFunction,ComponentPad*%
%ADD10C,1.600000*%
%TD*%
%TA.AperFunction,ComponentPad*%
%ADD11O,1.600000X1.600000*%
%TD*%
%TA.AperFunction,ComponentPad*%
%ADD12C,4.800000*%
%TD*%
%TA.AperFunction,ComponentPad*%
%ADD13C,1.650000*%
%TD*%
%TA.AperFunction,ComponentPad*%
%ADD14R,1.650000X1.650000*%
%TD*%
%TA.AperFunction,ComponentPad*%
%ADD15C,1.200000*%
%TD*%
%TA.AperFunction,ComponentPad*%
%ADD16C,1.300000*%
%TD*%
%TA.AperFunction,ComponentPad*%
%ADD17C,1.875000*%
%TD*%
%TA.AperFunction,ComponentPad*%
%ADD18R,2.550000X2.550000*%
%TD*%
%TA.AperFunction,ComponentPad*%
%ADD19C,2.300000*%
%TD*%
%TA.AperFunction,Conductor*%
%ADD20C,0.250000*%
%TD*%
G04 APERTURE END LIST*
D10*
%TO.P,R14,1*%
%TO.N,Net-(R13-Pad2)*%
X127640000Y-72957100D03*
D11*
%TO.P,R14,2*%
%TO.N,Net-(R14-Pad2)*%
X137800000Y-72957100D03*
%TD*%
D10*
%TO.P,R3,1*%
%TO.N,D2*%
X113440000Y-56657100D03*
D11*
%TO.P,R3,2*%
%TO.N,Net-(R10-Pad2)*%
X123600000Y-56657100D03*
%TD*%
D10*
%TO.P,R15,1*%
%TO.N,Net-(R14-Pad2)*%
X127640000Y-78378600D03*
D11*
%TO.P,R15,2*%
%TO.N,DAC OUT*%
X137800000Y-78378600D03*
%TD*%
D10*
%TO.P,R8,1*%
%TO.N,D7*%
X113440000Y-83800000D03*
D11*
%TO.P,R8,2*%
%TO.N,DAC OUT*%
X123600000Y-83800000D03*
%TD*%
D10*
%TO.P,R12,1*%
%TO.N,Net-(R11-Pad2)*%
X127640000Y-62114300D03*
D11*
%TO.P,R12,2*%
%TO.N,Net-(R12-Pad2)*%
X137800000Y-62114300D03*
%TD*%
D12*
%TO.P,J2,MH2,MH2*%
%TO.N,unconnected-(J2-PadMH2)*%
X107070000Y-92845000D03*
%TO.P,J2,MH1,MH1*%
%TO.N,unconnected-(J2-PadMH1)*%
X107070000Y-45805000D03*
D13*
%TO.P,J2,25,25*%
%TO.N,GND*%
X105800000Y-84560000D03*
%TO.P,J2,24,24*%
X105800000Y-81790000D03*
%TO.P,J2,23,23*%
X105800000Y-79020000D03*
%TO.P,J2,22,22*%
X105800000Y-76250000D03*
%TO.P,J2,21,21*%
X105800000Y-73480000D03*
%TO.P,J2,20,20*%
X105800000Y-70710000D03*
%TO.P,J2,19,19*%
X105800000Y-67940000D03*
%TO.P,J2,18,18*%
X105800000Y-65170000D03*
%TO.P,J2,17,17*%
%TO.N,unconnected-(J2-Pad17)*%
X105800000Y-62400000D03*
%TO.P,J2,16,16*%
%TO.N,unconnected-(J2-Pad16)*%
X105800000Y-59630000D03*
%TO.P,J2,15,15*%
%TO.N,unconnected-(J2-Pad15)*%
X105800000Y-56860000D03*
%TO.P,J2,14,14*%
%TO.N,unconnected-(J2-Pad14)*%
X105800000Y-54090000D03*
%TO.P,J2,13,13*%
%TO.N,unconnected-(J2-Pad13)*%
X108340000Y-85945000D03*
%TO.P,J2,12,12*%
%TO.N,unconnected-(J2-Pad12)*%
X108340000Y-83175000D03*
%TO.P,J2,11,11*%
%TO.N,unconnected-(J2-Pad11)*%
X108340000Y-80405000D03*
%TO.P,J2,10,10*%
%TO.N,unconnected-(J2-Pad10)*%
X108340000Y-77635000D03*
%TO.P,J2,9,9*%
%TO.N,D7*%
X108340000Y-74865000D03*
%TO.P,J2,8,8*%
%TO.N,D6*%
X108340000Y-72095000D03*
%TO.P,J2,7,7*%
%TO.N,D5*%
X108340000Y-69325000D03*
%TO.P,J2,6,6*%
%TO.N,D4*%
X108340000Y-66555000D03*
%TO.P,J2,5,5*%
%TO.N,D3*%
X108340000Y-63785000D03*
%TO.P,J2,4,4*%
%TO.N,D2*%
X108340000Y-61015000D03*
%TO.P,J2,3,3*%
%TO.N,D1*%
X108340000Y-58245000D03*
%TO.P,J2,2,2*%
%TO.N,D0*%
X108340000Y-55475000D03*
D14*
%TO.P,J2,1,1*%
%TO.N,unconnected-(J2-Pad1)*%
X108340000Y-52705000D03*
%TD*%
D15*
%TO.P,C1,1,1*%
%TO.N,DAC OUT*%
X139400000Y-89000000D03*
%TO.P,C1,2,2*%
%TO.N,Net-(C1-Pad2)*%
X139400000Y-94000000D03*
%TD*%
D10*
%TO.P,R13,1*%
%TO.N,Net-(R12-Pad2)*%
X127640000Y-67535700D03*
D11*
%TO.P,R13,2*%
%TO.N,Net-(R13-Pad2)*%
X137800000Y-67535700D03*
%TD*%
D10*
%TO.P,R2,1*%
%TO.N,D1*%
X113440000Y-51228600D03*
D11*
%TO.P,R2,2*%
%TO.N,Net-(R10-Pad1)*%
X123600000Y-51228600D03*
%TD*%
D10*
%TO.P,R16,1*%
%TO.N,DAC OUT*%
X127640000Y-83800000D03*
D11*
%TO.P,R16,2*%
%TO.N,GND*%
X137800000Y-83800000D03*
%TD*%
D16*
%TO.P,S1,1,1*%
%TO.N,unconnected-(S1-Pad1)*%
X142575000Y-82500000D03*
%TO.P,S1,2,2*%
%TO.N,Net-(C1-Pad2)*%
X142575000Y-80500000D03*
%TO.P,S1,3,3*%
%TO.N,GND*%
X142575000Y-78500000D03*
%TO.P,S1,4,4*%
X142575000Y-76500000D03*
%TO.P,S1,5,5*%
%TO.N,Net-(C2-Pad2)*%
X142575000Y-74500000D03*
%TO.P,S1,6,6*%
%TO.N,Net-(C3-Pad2)*%
X142575000Y-72500000D03*
D17*
%TO.P,S1,MH1,MH1*%
%TO.N,unconnected-(S1-PadMH1)*%
X142575000Y-84600000D03*
%TO.P,S1,MH2,MH2*%
%TO.N,unconnected-(S1-PadMH2)*%
X142575000Y-70400000D03*
%TD*%
D10*
%TO.P,R5,1*%
%TO.N,D4*%
X113440000Y-67514300D03*
D11*
%TO.P,R5,2*%
%TO.N,Net-(R12-Pad2)*%
X123600000Y-67514300D03*
%TD*%
D18*
%TO.P,J1,1,SLEEVE*%
%TO.N,GND*%
X148000000Y-60500000D03*
D19*
%TO.P,J1,2,TIP*%
%TO.N,Filter Out*%
X143000000Y-55500000D03*
%TO.P,J1,3,RING*%
X143000000Y-65500000D03*
%TO.P,J1,10,TIP_SWITCH*%
%TO.N,unconnected-(J1-TIP_SWITCH-Pad10)*%
X143000000Y-58000000D03*
%TO.P,J1,11,RING_SWITCH*%
%TO.N,unconnected-(J1-RING_SWITCH-Pad11)*%
X143000000Y-63000000D03*
%TD*%
D10*
%TO.P,R7,1*%
%TO.N,D6*%
X113440000Y-78371400D03*
D11*
%TO.P,R7,2*%
%TO.N,Net-(R14-Pad2)*%
X123600000Y-78371400D03*
%TD*%
D10*
%TO.P,R10,1*%
%TO.N,Net-(R10-Pad1)*%
X127640000Y-51271400D03*
D11*
%TO.P,R10,2*%
%TO.N,Net-(R10-Pad2)*%
X137800000Y-51271400D03*
%TD*%
D15*
%TO.P,C4,1,1*%
%TO.N,DAC OUT*%
X114980000Y-89000000D03*
%TO.P,C4,2,2*%
%TO.N,Filter Out*%
X114980000Y-94000000D03*
%TD*%
%TO.P,C2,1,1*%
%TO.N,DAC OUT*%
X131260000Y-89000000D03*
%TO.P,C2,2,2*%
%TO.N,Net-(C2-Pad2)*%
X131260000Y-94000000D03*
%TD*%
D10*
%TO.P,R1,1*%
%TO.N,D0*%
X113440000Y-45800000D03*
D11*
%TO.P,R1,2*%
%TO.N,Net-(R1-Pad2)*%
X123600000Y-45800000D03*
%TD*%
D15*
%TO.P,C3,1,1*%
%TO.N,DAC OUT*%
X123120000Y-89000000D03*
%TO.P,C3,2,2*%
%TO.N,Net-(C3-Pad2)*%
X123120000Y-94000000D03*
%TD*%
D10*
%TO.P,R9,1*%
%TO.N,Net-(R1-Pad2)*%
X127640000Y-45850000D03*
D11*
%TO.P,R9,2*%
%TO.N,Net-(R10-Pad1)*%
X137800000Y-45850000D03*
%TD*%
D10*
%TO.P,R11,1*%
%TO.N,Net-(R10-Pad2)*%
X127640000Y-56692900D03*
D11*
%TO.P,R11,2*%
%TO.N,Net-(R11-Pad2)*%
X137800000Y-56692900D03*
%TD*%
D10*
%TO.P,R4,1*%
%TO.N,D3*%
X113440000Y-62085700D03*
D11*
%TO.P,R4,2*%
%TO.N,Net-(R11-Pad2)*%
X123600000Y-62085700D03*
%TD*%
D10*
%TO.P,R6,1*%
%TO.N,D5*%
X113440000Y-72942900D03*
D11*
%TO.P,R6,2*%
%TO.N,Net-(R13-Pad2)*%
X123600000Y-72942900D03*
%TD*%
D20*
%TO.N,Net-(R14-Pad2)*%
X137800000Y-72957100D02*
X136673100Y-72957100D01*
X133061500Y-72957100D02*
X136673100Y-72957100D01*
X127640000Y-78378600D02*
X133061500Y-72957100D01*
X124734100Y-78378600D02*
X127640000Y-78378600D01*
X124726900Y-78371400D02*
X124734100Y-78378600D01*
X123600000Y-78371400D02*
X124726900Y-78371400D01*
%TO.N,Net-(R13-Pad2)*%
X127625800Y-72942900D02*
X127640000Y-72957100D01*
X123600000Y-72942900D02*
X127625800Y-72942900D01*
X131251700Y-72957100D02*
X127640000Y-72957100D01*
X136673100Y-67535700D02*
X131251700Y-72957100D01*
X137800000Y-67535700D02*
X136673100Y-67535700D01*
%TO.N,Net-(R12-Pad2)*%
X137800000Y-62114300D02*
X136673100Y-62114300D01*
X127618600Y-67514300D02*
X127640000Y-67535700D01*
X123600000Y-67514300D02*
X127618600Y-67514300D01*
X133061400Y-62114300D02*
X136673100Y-62114300D01*
X127640000Y-67535700D02*
X133061400Y-62114300D01*
%TO.N,Net-(R11-Pad2)*%
X127611400Y-62085700D02*
X127640000Y-62114300D01*
X123600000Y-62085700D02*
X127611400Y-62085700D01*
X131251700Y-62114300D02*
X127640000Y-62114300D01*
X136673100Y-56692900D02*
X131251700Y-62114300D01*
X137800000Y-56692900D02*
X136673100Y-56692900D01*
%TO.N,Net-(R10-Pad2)*%
X124762700Y-56692900D02*
X124726900Y-56657100D01*
X127640000Y-56692900D02*
X124762700Y-56692900D01*
X123600000Y-56657100D02*
X124726900Y-56657100D01*
X131251600Y-56692900D02*
X127640000Y-56692900D01*
X136673100Y-51271400D02*
X131251600Y-56692900D01*
X137800000Y-51271400D02*
X136673100Y-51271400D01*
%TO.N,Net-(R10-Pad1)*%
X137800000Y-45850000D02*
X136673100Y-45850000D01*
X131251700Y-51271400D02*
X127640000Y-51271400D01*
X136673100Y-45850000D02*
X131251700Y-51271400D01*
X124769700Y-51271400D02*
X124726900Y-51228600D01*
X127640000Y-51271400D02*
X124769700Y-51271400D01*
X123600000Y-51228600D02*
X124726900Y-51228600D01*
%TO.N,Net-(R1-Pad2)*%
X124776900Y-45850000D02*
X124726900Y-45800000D01*
X127640000Y-45850000D02*
X124776900Y-45850000D01*
X123600000Y-45800000D02*
X124726900Y-45800000D01*
%TO.N,D5*%
X109822100Y-69325000D02*
X113440000Y-72942900D01*
X108340000Y-69325000D02*
X109822100Y-69325000D01*
%TO.N,D4*%
X112480700Y-66555000D02*
X113440000Y-67514300D01*
X108340000Y-66555000D02*
X112480700Y-66555000D01*
%TO.N,D3*%
X111740700Y-63785000D02*
X113440000Y-62085700D01*
X108340000Y-63785000D02*
X111740700Y-63785000D01*
%TO.N,D2*%
X109082100Y-61015000D02*
X113440000Y-56657100D01*
X108340000Y-61015000D02*
X109082100Y-61015000D01*
%TO.N,GND*%
X138401900Y-82673100D02*
X137800000Y-82673100D01*
X142575000Y-78500000D02*
X138401900Y-82673100D01*
X137800000Y-83800000D02*
X137800000Y-82673100D01*
X136916900Y-81790000D02*
X137800000Y-82673100D01*
X105800000Y-81790000D02*
X136916900Y-81790000D01*
%TO.N,DAC OUT*%
X123600000Y-83800000D02*
X124726900Y-83800000D01*
X127640000Y-83800000D02*
X124726900Y-83800000D01*
X123600000Y-83800000D02*
X123600000Y-84926900D01*
X123120000Y-89000000D02*
X114980000Y-89000000D01*
X123120000Y-85406900D02*
X123600000Y-84926900D01*
X123120000Y-89000000D02*
X123120000Y-85406900D01*
X139400000Y-89000000D02*
X131260000Y-89000000D01*
X131260000Y-87420000D02*
X127640000Y-83800000D01*
X131260000Y-89000000D02*
X131260000Y-87420000D01*
%TD*%
M02*
