%TF.GenerationSoftware,KiCad,Pcbnew,7.0.10*%
%TF.CreationDate,2024-01-09T13:23:14-06:00*%
%TF.ProjectId,LPT Blaster,4c505420-426c-4617-9374-65722e6b6963,rev?*%
%TF.SameCoordinates,Original*%
%TF.FileFunction,Legend,Bot*%
%TF.FilePolarity,Positive*%
%FSLAX46Y46*%
G04 Gerber Fmt 4.6, Leading zero omitted, Abs format (unit mm)*
G04 Created by KiCad (PCBNEW 7.0.10) date 2024-01-09 13:23:14*
%MOMM*%
%LPD*%
G01*
G04 APERTURE LIST*
%ADD10C,0.150000*%
%ADD11C,0.200000*%
%ADD12C,0.010000*%
G04 APERTURE END LIST*
D10*
X98102200Y-73289160D02*
X98149819Y-73432017D01*
X98149819Y-73432017D02*
X98149819Y-73670112D01*
X98149819Y-73670112D02*
X98102200Y-73765350D01*
X98102200Y-73765350D02*
X98054580Y-73812969D01*
X98054580Y-73812969D02*
X97959342Y-73860588D01*
X97959342Y-73860588D02*
X97864104Y-73860588D01*
X97864104Y-73860588D02*
X97768866Y-73812969D01*
X97768866Y-73812969D02*
X97721247Y-73765350D01*
X97721247Y-73765350D02*
X97673628Y-73670112D01*
X97673628Y-73670112D02*
X97626009Y-73479636D01*
X97626009Y-73479636D02*
X97578390Y-73384398D01*
X97578390Y-73384398D02*
X97530771Y-73336779D01*
X97530771Y-73336779D02*
X97435533Y-73289160D01*
X97435533Y-73289160D02*
X97340295Y-73289160D01*
X97340295Y-73289160D02*
X97245057Y-73336779D01*
X97245057Y-73336779D02*
X97197438Y-73384398D01*
X97197438Y-73384398D02*
X97149819Y-73479636D01*
X97149819Y-73479636D02*
X97149819Y-73717731D01*
X97149819Y-73717731D02*
X97197438Y-73860588D01*
X97483152Y-74193922D02*
X98149819Y-74384398D01*
X98149819Y-74384398D02*
X97673628Y-74574874D01*
X97673628Y-74574874D02*
X98149819Y-74765350D01*
X98149819Y-74765350D02*
X97483152Y-74955826D01*
X98149819Y-75336779D02*
X97483152Y-75336779D01*
X97149819Y-75336779D02*
X97197438Y-75289160D01*
X97197438Y-75289160D02*
X97245057Y-75336779D01*
X97245057Y-75336779D02*
X97197438Y-75384398D01*
X97197438Y-75384398D02*
X97149819Y-75336779D01*
X97149819Y-75336779D02*
X97245057Y-75336779D01*
X97483152Y-75670112D02*
X97483152Y-76051064D01*
X97149819Y-75812969D02*
X98006961Y-75812969D01*
X98006961Y-75812969D02*
X98102200Y-75860588D01*
X98102200Y-75860588D02*
X98149819Y-75955826D01*
X98149819Y-75955826D02*
X98149819Y-76051064D01*
X98102200Y-76812969D02*
X98149819Y-76717731D01*
X98149819Y-76717731D02*
X98149819Y-76527255D01*
X98149819Y-76527255D02*
X98102200Y-76432017D01*
X98102200Y-76432017D02*
X98054580Y-76384398D01*
X98054580Y-76384398D02*
X97959342Y-76336779D01*
X97959342Y-76336779D02*
X97673628Y-76336779D01*
X97673628Y-76336779D02*
X97578390Y-76384398D01*
X97578390Y-76384398D02*
X97530771Y-76432017D01*
X97530771Y-76432017D02*
X97483152Y-76527255D01*
X97483152Y-76527255D02*
X97483152Y-76717731D01*
X97483152Y-76717731D02*
X97530771Y-76812969D01*
X98149819Y-77241541D02*
X97149819Y-77241541D01*
X98149819Y-77670112D02*
X97626009Y-77670112D01*
X97626009Y-77670112D02*
X97530771Y-77622493D01*
X97530771Y-77622493D02*
X97483152Y-77527255D01*
X97483152Y-77527255D02*
X97483152Y-77384398D01*
X97483152Y-77384398D02*
X97530771Y-77289160D01*
X97530771Y-77289160D02*
X97578390Y-77241541D01*
X98054580Y-78146303D02*
X98102200Y-78193922D01*
X98102200Y-78193922D02*
X98149819Y-78146303D01*
X98149819Y-78146303D02*
X98102200Y-78098684D01*
X98102200Y-78098684D02*
X98054580Y-78146303D01*
X98054580Y-78146303D02*
X98149819Y-78146303D01*
X97530771Y-78146303D02*
X97578390Y-78193922D01*
X97578390Y-78193922D02*
X97626009Y-78146303D01*
X97626009Y-78146303D02*
X97578390Y-78098684D01*
X97578390Y-78098684D02*
X97530771Y-78146303D01*
X97530771Y-78146303D02*
X97626009Y-78146303D01*
X98102200Y-79336779D02*
X98149819Y-79479636D01*
X98149819Y-79479636D02*
X98149819Y-79717731D01*
X98149819Y-79717731D02*
X98102200Y-79812969D01*
X98102200Y-79812969D02*
X98054580Y-79860588D01*
X98054580Y-79860588D02*
X97959342Y-79908207D01*
X97959342Y-79908207D02*
X97864104Y-79908207D01*
X97864104Y-79908207D02*
X97768866Y-79860588D01*
X97768866Y-79860588D02*
X97721247Y-79812969D01*
X97721247Y-79812969D02*
X97673628Y-79717731D01*
X97673628Y-79717731D02*
X97626009Y-79527255D01*
X97626009Y-79527255D02*
X97578390Y-79432017D01*
X97578390Y-79432017D02*
X97530771Y-79384398D01*
X97530771Y-79384398D02*
X97435533Y-79336779D01*
X97435533Y-79336779D02*
X97340295Y-79336779D01*
X97340295Y-79336779D02*
X97245057Y-79384398D01*
X97245057Y-79384398D02*
X97197438Y-79432017D01*
X97197438Y-79432017D02*
X97149819Y-79527255D01*
X97149819Y-79527255D02*
X97149819Y-79765350D01*
X97149819Y-79765350D02*
X97197438Y-79908207D01*
X98149819Y-80336779D02*
X97149819Y-80336779D01*
X98149819Y-80908207D02*
X97578390Y-80479636D01*
X97149819Y-80908207D02*
X97721247Y-80336779D01*
X98149819Y-81860588D02*
X98149819Y-81289160D01*
X98149819Y-81574874D02*
X97149819Y-81574874D01*
X97149819Y-81574874D02*
X97292676Y-81479636D01*
X97292676Y-81479636D02*
X97387914Y-81384398D01*
X97387914Y-81384398D02*
X97435533Y-81289160D01*
X97483152Y-82717731D02*
X98149819Y-82717731D01*
X97102200Y-82479636D02*
X97816485Y-82241541D01*
X97816485Y-82241541D02*
X97816485Y-82860588D01*
X98149819Y-83241541D02*
X97149819Y-83241541D01*
X97149819Y-83241541D02*
X97149819Y-83479636D01*
X97149819Y-83479636D02*
X97197438Y-83622493D01*
X97197438Y-83622493D02*
X97292676Y-83717731D01*
X97292676Y-83717731D02*
X97387914Y-83765350D01*
X97387914Y-83765350D02*
X97578390Y-83812969D01*
X97578390Y-83812969D02*
X97721247Y-83812969D01*
X97721247Y-83812969D02*
X97911723Y-83765350D01*
X97911723Y-83765350D02*
X98006961Y-83717731D01*
X98006961Y-83717731D02*
X98102200Y-83622493D01*
X98102200Y-83622493D02*
X98149819Y-83479636D01*
X98149819Y-83479636D02*
X98149819Y-83241541D01*
X97149819Y-84432017D02*
X97149819Y-84527255D01*
X97149819Y-84527255D02*
X97197438Y-84622493D01*
X97197438Y-84622493D02*
X97245057Y-84670112D01*
X97245057Y-84670112D02*
X97340295Y-84717731D01*
X97340295Y-84717731D02*
X97530771Y-84765350D01*
X97530771Y-84765350D02*
X97768866Y-84765350D01*
X97768866Y-84765350D02*
X97959342Y-84717731D01*
X97959342Y-84717731D02*
X98054580Y-84670112D01*
X98054580Y-84670112D02*
X98102200Y-84622493D01*
X98102200Y-84622493D02*
X98149819Y-84527255D01*
X98149819Y-84527255D02*
X98149819Y-84432017D01*
X98149819Y-84432017D02*
X98102200Y-84336779D01*
X98102200Y-84336779D02*
X98054580Y-84289160D01*
X98054580Y-84289160D02*
X97959342Y-84241541D01*
X97959342Y-84241541D02*
X97768866Y-84193922D01*
X97768866Y-84193922D02*
X97530771Y-84193922D01*
X97530771Y-84193922D02*
X97340295Y-84241541D01*
X97340295Y-84241541D02*
X97245057Y-84289160D01*
X97245057Y-84289160D02*
X97197438Y-84336779D01*
X97197438Y-84336779D02*
X97149819Y-84432017D01*
X98149819Y-85717731D02*
X98149819Y-85146303D01*
X98149819Y-85432017D02*
X97149819Y-85432017D01*
X97149819Y-85432017D02*
X97292676Y-85336779D01*
X97292676Y-85336779D02*
X97387914Y-85241541D01*
X97387914Y-85241541D02*
X97435533Y-85146303D01*
X97197438Y-86670112D02*
X97149819Y-86574874D01*
X97149819Y-86574874D02*
X97149819Y-86432017D01*
X97149819Y-86432017D02*
X97197438Y-86289160D01*
X97197438Y-86289160D02*
X97292676Y-86193922D01*
X97292676Y-86193922D02*
X97387914Y-86146303D01*
X97387914Y-86146303D02*
X97578390Y-86098684D01*
X97578390Y-86098684D02*
X97721247Y-86098684D01*
X97721247Y-86098684D02*
X97911723Y-86146303D01*
X97911723Y-86146303D02*
X98006961Y-86193922D01*
X98006961Y-86193922D02*
X98102200Y-86289160D01*
X98102200Y-86289160D02*
X98149819Y-86432017D01*
X98149819Y-86432017D02*
X98149819Y-86527255D01*
X98149819Y-86527255D02*
X98102200Y-86670112D01*
X98102200Y-86670112D02*
X98054580Y-86717731D01*
X98054580Y-86717731D02*
X97721247Y-86717731D01*
X97721247Y-86717731D02*
X97721247Y-86527255D01*
X97149819Y-87574874D02*
X97149819Y-87384398D01*
X97149819Y-87384398D02*
X97197438Y-87289160D01*
X97197438Y-87289160D02*
X97245057Y-87241541D01*
X97245057Y-87241541D02*
X97387914Y-87146303D01*
X97387914Y-87146303D02*
X97578390Y-87098684D01*
X97578390Y-87098684D02*
X97959342Y-87098684D01*
X97959342Y-87098684D02*
X98054580Y-87146303D01*
X98054580Y-87146303D02*
X98102200Y-87193922D01*
X98102200Y-87193922D02*
X98149819Y-87289160D01*
X98149819Y-87289160D02*
X98149819Y-87479636D01*
X98149819Y-87479636D02*
X98102200Y-87574874D01*
X98102200Y-87574874D02*
X98054580Y-87622493D01*
X98054580Y-87622493D02*
X97959342Y-87670112D01*
X97959342Y-87670112D02*
X97721247Y-87670112D01*
X97721247Y-87670112D02*
X97626009Y-87622493D01*
X97626009Y-87622493D02*
X97578390Y-87574874D01*
X97578390Y-87574874D02*
X97530771Y-87479636D01*
X97530771Y-87479636D02*
X97530771Y-87289160D01*
X97530771Y-87289160D02*
X97578390Y-87193922D01*
X97578390Y-87193922D02*
X97626009Y-87146303D01*
X97626009Y-87146303D02*
X97721247Y-87098684D01*
X98759819Y-73622493D02*
X99474104Y-73622493D01*
X99474104Y-73622493D02*
X99616961Y-73574874D01*
X99616961Y-73574874D02*
X99712200Y-73479636D01*
X99712200Y-73479636D02*
X99759819Y-73336779D01*
X99759819Y-73336779D02*
X99759819Y-73241541D01*
X99759819Y-74527255D02*
X99236009Y-74527255D01*
X99236009Y-74527255D02*
X99140771Y-74479636D01*
X99140771Y-74479636D02*
X99093152Y-74384398D01*
X99093152Y-74384398D02*
X99093152Y-74193922D01*
X99093152Y-74193922D02*
X99140771Y-74098684D01*
X99712200Y-74527255D02*
X99759819Y-74432017D01*
X99759819Y-74432017D02*
X99759819Y-74193922D01*
X99759819Y-74193922D02*
X99712200Y-74098684D01*
X99712200Y-74098684D02*
X99616961Y-74051065D01*
X99616961Y-74051065D02*
X99521723Y-74051065D01*
X99521723Y-74051065D02*
X99426485Y-74098684D01*
X99426485Y-74098684D02*
X99378866Y-74193922D01*
X99378866Y-74193922D02*
X99378866Y-74432017D01*
X99378866Y-74432017D02*
X99331247Y-74527255D01*
X99712200Y-75432017D02*
X99759819Y-75336779D01*
X99759819Y-75336779D02*
X99759819Y-75146303D01*
X99759819Y-75146303D02*
X99712200Y-75051065D01*
X99712200Y-75051065D02*
X99664580Y-75003446D01*
X99664580Y-75003446D02*
X99569342Y-74955827D01*
X99569342Y-74955827D02*
X99283628Y-74955827D01*
X99283628Y-74955827D02*
X99188390Y-75003446D01*
X99188390Y-75003446D02*
X99140771Y-75051065D01*
X99140771Y-75051065D02*
X99093152Y-75146303D01*
X99093152Y-75146303D02*
X99093152Y-75336779D01*
X99093152Y-75336779D02*
X99140771Y-75432017D01*
X99759819Y-75860589D02*
X98759819Y-75860589D01*
X99378866Y-75955827D02*
X99759819Y-76241541D01*
X99093152Y-76241541D02*
X99474104Y-75860589D01*
X99664580Y-76670113D02*
X99712200Y-76717732D01*
X99712200Y-76717732D02*
X99759819Y-76670113D01*
X99759819Y-76670113D02*
X99712200Y-76622494D01*
X99712200Y-76622494D02*
X99664580Y-76670113D01*
X99664580Y-76670113D02*
X99759819Y-76670113D01*
X99140771Y-76670113D02*
X99188390Y-76717732D01*
X99188390Y-76717732D02*
X99236009Y-76670113D01*
X99236009Y-76670113D02*
X99188390Y-76622494D01*
X99188390Y-76622494D02*
X99140771Y-76670113D01*
X99140771Y-76670113D02*
X99236009Y-76670113D01*
X99712200Y-77860589D02*
X99759819Y-78003446D01*
X99759819Y-78003446D02*
X99759819Y-78241541D01*
X99759819Y-78241541D02*
X99712200Y-78336779D01*
X99712200Y-78336779D02*
X99664580Y-78384398D01*
X99664580Y-78384398D02*
X99569342Y-78432017D01*
X99569342Y-78432017D02*
X99474104Y-78432017D01*
X99474104Y-78432017D02*
X99378866Y-78384398D01*
X99378866Y-78384398D02*
X99331247Y-78336779D01*
X99331247Y-78336779D02*
X99283628Y-78241541D01*
X99283628Y-78241541D02*
X99236009Y-78051065D01*
X99236009Y-78051065D02*
X99188390Y-77955827D01*
X99188390Y-77955827D02*
X99140771Y-77908208D01*
X99140771Y-77908208D02*
X99045533Y-77860589D01*
X99045533Y-77860589D02*
X98950295Y-77860589D01*
X98950295Y-77860589D02*
X98855057Y-77908208D01*
X98855057Y-77908208D02*
X98807438Y-77955827D01*
X98807438Y-77955827D02*
X98759819Y-78051065D01*
X98759819Y-78051065D02*
X98759819Y-78289160D01*
X98759819Y-78289160D02*
X98807438Y-78432017D01*
X98759819Y-79146303D02*
X99474104Y-79146303D01*
X99474104Y-79146303D02*
X99616961Y-79098684D01*
X99616961Y-79098684D02*
X99712200Y-79003446D01*
X99712200Y-79003446D02*
X99759819Y-78860589D01*
X99759819Y-78860589D02*
X99759819Y-78765351D01*
X99759819Y-80146303D02*
X99759819Y-79574875D01*
X99759819Y-79860589D02*
X98759819Y-79860589D01*
X98759819Y-79860589D02*
X98902676Y-79765351D01*
X98902676Y-79765351D02*
X98997914Y-79670113D01*
X98997914Y-79670113D02*
X99045533Y-79574875D01*
X99378866Y-80574875D02*
X99378866Y-81336780D01*
X98759819Y-81717732D02*
X98759819Y-82336779D01*
X98759819Y-82336779D02*
X99140771Y-82003446D01*
X99140771Y-82003446D02*
X99140771Y-82146303D01*
X99140771Y-82146303D02*
X99188390Y-82241541D01*
X99188390Y-82241541D02*
X99236009Y-82289160D01*
X99236009Y-82289160D02*
X99331247Y-82336779D01*
X99331247Y-82336779D02*
X99569342Y-82336779D01*
X99569342Y-82336779D02*
X99664580Y-82289160D01*
X99664580Y-82289160D02*
X99712200Y-82241541D01*
X99712200Y-82241541D02*
X99759819Y-82146303D01*
X99759819Y-82146303D02*
X99759819Y-81860589D01*
X99759819Y-81860589D02*
X99712200Y-81765351D01*
X99712200Y-81765351D02*
X99664580Y-81717732D01*
X98759819Y-83241541D02*
X98759819Y-82765351D01*
X98759819Y-82765351D02*
X99236009Y-82717732D01*
X99236009Y-82717732D02*
X99188390Y-82765351D01*
X99188390Y-82765351D02*
X99140771Y-82860589D01*
X99140771Y-82860589D02*
X99140771Y-83098684D01*
X99140771Y-83098684D02*
X99188390Y-83193922D01*
X99188390Y-83193922D02*
X99236009Y-83241541D01*
X99236009Y-83241541D02*
X99331247Y-83289160D01*
X99331247Y-83289160D02*
X99569342Y-83289160D01*
X99569342Y-83289160D02*
X99664580Y-83241541D01*
X99664580Y-83241541D02*
X99712200Y-83193922D01*
X99712200Y-83193922D02*
X99759819Y-83098684D01*
X99759819Y-83098684D02*
X99759819Y-82860589D01*
X99759819Y-82860589D02*
X99712200Y-82765351D01*
X99712200Y-82765351D02*
X99664580Y-82717732D01*
X98855057Y-83670113D02*
X98807438Y-83717732D01*
X98807438Y-83717732D02*
X98759819Y-83812970D01*
X98759819Y-83812970D02*
X98759819Y-84051065D01*
X98759819Y-84051065D02*
X98807438Y-84146303D01*
X98807438Y-84146303D02*
X98855057Y-84193922D01*
X98855057Y-84193922D02*
X98950295Y-84241541D01*
X98950295Y-84241541D02*
X99045533Y-84241541D01*
X99045533Y-84241541D02*
X99188390Y-84193922D01*
X99188390Y-84193922D02*
X99759819Y-83622494D01*
X99759819Y-83622494D02*
X99759819Y-84241541D01*
X98759819Y-85146303D02*
X98759819Y-84670113D01*
X98759819Y-84670113D02*
X99236009Y-84622494D01*
X99236009Y-84622494D02*
X99188390Y-84670113D01*
X99188390Y-84670113D02*
X99140771Y-84765351D01*
X99140771Y-84765351D02*
X99140771Y-85003446D01*
X99140771Y-85003446D02*
X99188390Y-85098684D01*
X99188390Y-85098684D02*
X99236009Y-85146303D01*
X99236009Y-85146303D02*
X99331247Y-85193922D01*
X99331247Y-85193922D02*
X99569342Y-85193922D01*
X99569342Y-85193922D02*
X99664580Y-85146303D01*
X99664580Y-85146303D02*
X99712200Y-85098684D01*
X99712200Y-85098684D02*
X99759819Y-85003446D01*
X99759819Y-85003446D02*
X99759819Y-84765351D01*
X99759819Y-84765351D02*
X99712200Y-84670113D01*
X99712200Y-84670113D02*
X99664580Y-84622494D01*
X99759819Y-85622494D02*
X98759819Y-85622494D01*
X98759819Y-85622494D02*
X99759819Y-86193922D01*
X99759819Y-86193922D02*
X98759819Y-86193922D01*
X101369819Y-73336779D02*
X100369819Y-73336779D01*
X100369819Y-73336779D02*
X100369819Y-73574874D01*
X100369819Y-73574874D02*
X100417438Y-73717731D01*
X100417438Y-73717731D02*
X100512676Y-73812969D01*
X100512676Y-73812969D02*
X100607914Y-73860588D01*
X100607914Y-73860588D02*
X100798390Y-73908207D01*
X100798390Y-73908207D02*
X100941247Y-73908207D01*
X100941247Y-73908207D02*
X101131723Y-73860588D01*
X101131723Y-73860588D02*
X101226961Y-73812969D01*
X101226961Y-73812969D02*
X101322200Y-73717731D01*
X101322200Y-73717731D02*
X101369819Y-73574874D01*
X101369819Y-73574874D02*
X101369819Y-73336779D01*
X100988866Y-74336779D02*
X100988866Y-75098684D01*
X101322200Y-75527255D02*
X101369819Y-75670112D01*
X101369819Y-75670112D02*
X101369819Y-75908207D01*
X101369819Y-75908207D02*
X101322200Y-76003445D01*
X101322200Y-76003445D02*
X101274580Y-76051064D01*
X101274580Y-76051064D02*
X101179342Y-76098683D01*
X101179342Y-76098683D02*
X101084104Y-76098683D01*
X101084104Y-76098683D02*
X100988866Y-76051064D01*
X100988866Y-76051064D02*
X100941247Y-76003445D01*
X100941247Y-76003445D02*
X100893628Y-75908207D01*
X100893628Y-75908207D02*
X100846009Y-75717731D01*
X100846009Y-75717731D02*
X100798390Y-75622493D01*
X100798390Y-75622493D02*
X100750771Y-75574874D01*
X100750771Y-75574874D02*
X100655533Y-75527255D01*
X100655533Y-75527255D02*
X100560295Y-75527255D01*
X100560295Y-75527255D02*
X100465057Y-75574874D01*
X100465057Y-75574874D02*
X100417438Y-75622493D01*
X100417438Y-75622493D02*
X100369819Y-75717731D01*
X100369819Y-75717731D02*
X100369819Y-75955826D01*
X100369819Y-75955826D02*
X100417438Y-76098683D01*
X100703152Y-76955826D02*
X101369819Y-76955826D01*
X100703152Y-76527255D02*
X101226961Y-76527255D01*
X101226961Y-76527255D02*
X101322200Y-76574874D01*
X101322200Y-76574874D02*
X101369819Y-76670112D01*
X101369819Y-76670112D02*
X101369819Y-76812969D01*
X101369819Y-76812969D02*
X101322200Y-76908207D01*
X101322200Y-76908207D02*
X101274580Y-76955826D01*
X101369819Y-77432017D02*
X100369819Y-77432017D01*
X100750771Y-77432017D02*
X100703152Y-77527255D01*
X100703152Y-77527255D02*
X100703152Y-77717731D01*
X100703152Y-77717731D02*
X100750771Y-77812969D01*
X100750771Y-77812969D02*
X100798390Y-77860588D01*
X100798390Y-77860588D02*
X100893628Y-77908207D01*
X100893628Y-77908207D02*
X101179342Y-77908207D01*
X101179342Y-77908207D02*
X101274580Y-77860588D01*
X101274580Y-77860588D02*
X101322200Y-77812969D01*
X101322200Y-77812969D02*
X101369819Y-77717731D01*
X101369819Y-77717731D02*
X101369819Y-77527255D01*
X101369819Y-77527255D02*
X101322200Y-77432017D01*
X101274580Y-78336779D02*
X101322200Y-78384398D01*
X101322200Y-78384398D02*
X101369819Y-78336779D01*
X101369819Y-78336779D02*
X101322200Y-78289160D01*
X101322200Y-78289160D02*
X101274580Y-78336779D01*
X101274580Y-78336779D02*
X101369819Y-78336779D01*
X100750771Y-78336779D02*
X100798390Y-78384398D01*
X100798390Y-78384398D02*
X100846009Y-78336779D01*
X100846009Y-78336779D02*
X100798390Y-78289160D01*
X100798390Y-78289160D02*
X100750771Y-78336779D01*
X100750771Y-78336779D02*
X100846009Y-78336779D01*
X101369819Y-80051064D02*
X101369819Y-79574874D01*
X101369819Y-79574874D02*
X100369819Y-79574874D01*
X100369819Y-80289160D02*
X100369819Y-80955826D01*
X100369819Y-80955826D02*
X101369819Y-80527255D01*
X101369819Y-81860588D02*
X101369819Y-81289160D01*
X101369819Y-81574874D02*
X100369819Y-81574874D01*
X100369819Y-81574874D02*
X100512676Y-81479636D01*
X100512676Y-81479636D02*
X100607914Y-81384398D01*
X100607914Y-81384398D02*
X100655533Y-81289160D01*
X100369819Y-82193922D02*
X100369819Y-82860588D01*
X100369819Y-82860588D02*
X101369819Y-82432017D01*
X101322200Y-83193922D02*
X101369819Y-83336779D01*
X101369819Y-83336779D02*
X101369819Y-83574874D01*
X101369819Y-83574874D02*
X101322200Y-83670112D01*
X101322200Y-83670112D02*
X101274580Y-83717731D01*
X101274580Y-83717731D02*
X101179342Y-83765350D01*
X101179342Y-83765350D02*
X101084104Y-83765350D01*
X101084104Y-83765350D02*
X100988866Y-83717731D01*
X100988866Y-83717731D02*
X100941247Y-83670112D01*
X100941247Y-83670112D02*
X100893628Y-83574874D01*
X100893628Y-83574874D02*
X100846009Y-83384398D01*
X100846009Y-83384398D02*
X100798390Y-83289160D01*
X100798390Y-83289160D02*
X100750771Y-83241541D01*
X100750771Y-83241541D02*
X100655533Y-83193922D01*
X100655533Y-83193922D02*
X100560295Y-83193922D01*
X100560295Y-83193922D02*
X100465057Y-83241541D01*
X100465057Y-83241541D02*
X100417438Y-83289160D01*
X100417438Y-83289160D02*
X100369819Y-83384398D01*
X100369819Y-83384398D02*
X100369819Y-83622493D01*
X100369819Y-83622493D02*
X100417438Y-83765350D01*
X101369819Y-84193922D02*
X100369819Y-84193922D01*
X100369819Y-84193922D02*
X100369819Y-84432017D01*
X100369819Y-84432017D02*
X100417438Y-84574874D01*
X100417438Y-84574874D02*
X100512676Y-84670112D01*
X100512676Y-84670112D02*
X100607914Y-84717731D01*
X100607914Y-84717731D02*
X100798390Y-84765350D01*
X100798390Y-84765350D02*
X100941247Y-84765350D01*
X100941247Y-84765350D02*
X101131723Y-84717731D01*
X101131723Y-84717731D02*
X101226961Y-84670112D01*
X101226961Y-84670112D02*
X101322200Y-84574874D01*
X101322200Y-84574874D02*
X101369819Y-84432017D01*
X101369819Y-84432017D02*
X101369819Y-84193922D01*
X100846009Y-85527255D02*
X100893628Y-85670112D01*
X100893628Y-85670112D02*
X100941247Y-85717731D01*
X100941247Y-85717731D02*
X101036485Y-85765350D01*
X101036485Y-85765350D02*
X101179342Y-85765350D01*
X101179342Y-85765350D02*
X101274580Y-85717731D01*
X101274580Y-85717731D02*
X101322200Y-85670112D01*
X101322200Y-85670112D02*
X101369819Y-85574874D01*
X101369819Y-85574874D02*
X101369819Y-85193922D01*
X101369819Y-85193922D02*
X100369819Y-85193922D01*
X100369819Y-85193922D02*
X100369819Y-85527255D01*
X100369819Y-85527255D02*
X100417438Y-85622493D01*
X100417438Y-85622493D02*
X100465057Y-85670112D01*
X100465057Y-85670112D02*
X100560295Y-85717731D01*
X100560295Y-85717731D02*
X100655533Y-85717731D01*
X100655533Y-85717731D02*
X100750771Y-85670112D01*
X100750771Y-85670112D02*
X100798390Y-85622493D01*
X100798390Y-85622493D02*
X100846009Y-85527255D01*
X100846009Y-85527255D02*
X100846009Y-85193922D01*
X100465057Y-86146303D02*
X100417438Y-86193922D01*
X100417438Y-86193922D02*
X100369819Y-86289160D01*
X100369819Y-86289160D02*
X100369819Y-86527255D01*
X100369819Y-86527255D02*
X100417438Y-86622493D01*
X100417438Y-86622493D02*
X100465057Y-86670112D01*
X100465057Y-86670112D02*
X100560295Y-86717731D01*
X100560295Y-86717731D02*
X100655533Y-86717731D01*
X100655533Y-86717731D02*
X100798390Y-86670112D01*
X100798390Y-86670112D02*
X101369819Y-86098684D01*
X101369819Y-86098684D02*
X101369819Y-86717731D01*
X100369819Y-87622493D02*
X100369819Y-87146303D01*
X100369819Y-87146303D02*
X100846009Y-87098684D01*
X100846009Y-87098684D02*
X100798390Y-87146303D01*
X100798390Y-87146303D02*
X100750771Y-87241541D01*
X100750771Y-87241541D02*
X100750771Y-87479636D01*
X100750771Y-87479636D02*
X100798390Y-87574874D01*
X100798390Y-87574874D02*
X100846009Y-87622493D01*
X100846009Y-87622493D02*
X100941247Y-87670112D01*
X100941247Y-87670112D02*
X101179342Y-87670112D01*
X101179342Y-87670112D02*
X101274580Y-87622493D01*
X101274580Y-87622493D02*
X101322200Y-87574874D01*
X101322200Y-87574874D02*
X101369819Y-87479636D01*
X101369819Y-87479636D02*
X101369819Y-87241541D01*
X101369819Y-87241541D02*
X101322200Y-87146303D01*
X101322200Y-87146303D02*
X101274580Y-87098684D01*
X101369819Y-88098684D02*
X100369819Y-88098684D01*
X100369819Y-88098684D02*
X100369819Y-88479636D01*
X100369819Y-88479636D02*
X100417438Y-88574874D01*
X100417438Y-88574874D02*
X100465057Y-88622493D01*
X100465057Y-88622493D02*
X100560295Y-88670112D01*
X100560295Y-88670112D02*
X100703152Y-88670112D01*
X100703152Y-88670112D02*
X100798390Y-88622493D01*
X100798390Y-88622493D02*
X100846009Y-88574874D01*
X100846009Y-88574874D02*
X100893628Y-88479636D01*
X100893628Y-88479636D02*
X100893628Y-88098684D01*
X101369819Y-89622493D02*
X101369819Y-89051065D01*
X101369819Y-89336779D02*
X100369819Y-89336779D01*
X100369819Y-89336779D02*
X100512676Y-89241541D01*
X100512676Y-89241541D02*
X100607914Y-89146303D01*
X100607914Y-89146303D02*
X100655533Y-89051065D01*
X101084104Y-90003446D02*
X101084104Y-90479636D01*
X101369819Y-89908208D02*
X100369819Y-90241541D01*
X100369819Y-90241541D02*
X101369819Y-90574874D01*
X101274580Y-91479636D02*
X101322200Y-91432017D01*
X101322200Y-91432017D02*
X101369819Y-91289160D01*
X101369819Y-91289160D02*
X101369819Y-91193922D01*
X101369819Y-91193922D02*
X101322200Y-91051065D01*
X101322200Y-91051065D02*
X101226961Y-90955827D01*
X101226961Y-90955827D02*
X101131723Y-90908208D01*
X101131723Y-90908208D02*
X100941247Y-90860589D01*
X100941247Y-90860589D02*
X100798390Y-90860589D01*
X100798390Y-90860589D02*
X100607914Y-90908208D01*
X100607914Y-90908208D02*
X100512676Y-90955827D01*
X100512676Y-90955827D02*
X100417438Y-91051065D01*
X100417438Y-91051065D02*
X100369819Y-91193922D01*
X100369819Y-91193922D02*
X100369819Y-91289160D01*
X100369819Y-91289160D02*
X100417438Y-91432017D01*
X100417438Y-91432017D02*
X100465057Y-91479636D01*
X101369819Y-91908208D02*
X100369819Y-91908208D01*
X100846009Y-91908208D02*
X100846009Y-92479636D01*
X101369819Y-92479636D02*
X100369819Y-92479636D01*
X100369819Y-92860589D02*
X100369819Y-93479636D01*
X100369819Y-93479636D02*
X100750771Y-93146303D01*
X100750771Y-93146303D02*
X100750771Y-93289160D01*
X100750771Y-93289160D02*
X100798390Y-93384398D01*
X100798390Y-93384398D02*
X100846009Y-93432017D01*
X100846009Y-93432017D02*
X100941247Y-93479636D01*
X100941247Y-93479636D02*
X101179342Y-93479636D01*
X101179342Y-93479636D02*
X101274580Y-93432017D01*
X101274580Y-93432017D02*
X101322200Y-93384398D01*
X101322200Y-93384398D02*
X101369819Y-93289160D01*
X101369819Y-93289160D02*
X101369819Y-93003446D01*
X101369819Y-93003446D02*
X101322200Y-92908208D01*
X101322200Y-92908208D02*
X101274580Y-92860589D01*
X101369819Y-94479636D02*
X100893628Y-94146303D01*
X101369819Y-93908208D02*
X100369819Y-93908208D01*
X100369819Y-93908208D02*
X100369819Y-94289160D01*
X100369819Y-94289160D02*
X100417438Y-94384398D01*
X100417438Y-94384398D02*
X100465057Y-94432017D01*
X100465057Y-94432017D02*
X100560295Y-94479636D01*
X100560295Y-94479636D02*
X100703152Y-94479636D01*
X100703152Y-94479636D02*
X100798390Y-94432017D01*
X100798390Y-94432017D02*
X100846009Y-94384398D01*
X100846009Y-94384398D02*
X100893628Y-94289160D01*
X100893628Y-94289160D02*
X100893628Y-93908208D01*
X119703152Y-57265350D02*
X120512676Y-57265350D01*
X120512676Y-57265350D02*
X120607914Y-57217731D01*
X120607914Y-57217731D02*
X120655533Y-57170112D01*
X120655533Y-57170112D02*
X120703152Y-57074874D01*
X120703152Y-57074874D02*
X120703152Y-56932017D01*
X120703152Y-56932017D02*
X120655533Y-56836779D01*
X120322200Y-57265350D02*
X120369819Y-57170112D01*
X120369819Y-57170112D02*
X120369819Y-56979636D01*
X120369819Y-56979636D02*
X120322200Y-56884398D01*
X120322200Y-56884398D02*
X120274580Y-56836779D01*
X120274580Y-56836779D02*
X120179342Y-56789160D01*
X120179342Y-56789160D02*
X119893628Y-56789160D01*
X119893628Y-56789160D02*
X119798390Y-56836779D01*
X119798390Y-56836779D02*
X119750771Y-56884398D01*
X119750771Y-56884398D02*
X119703152Y-56979636D01*
X119703152Y-56979636D02*
X119703152Y-57170112D01*
X119703152Y-57170112D02*
X119750771Y-57265350D01*
X120369819Y-57741541D02*
X119703152Y-57741541D01*
X119369819Y-57741541D02*
X119417438Y-57693922D01*
X119417438Y-57693922D02*
X119465057Y-57741541D01*
X119465057Y-57741541D02*
X119417438Y-57789160D01*
X119417438Y-57789160D02*
X119369819Y-57741541D01*
X119369819Y-57741541D02*
X119465057Y-57741541D01*
X119703152Y-58074874D02*
X119703152Y-58455826D01*
X119369819Y-58217731D02*
X120226961Y-58217731D01*
X120226961Y-58217731D02*
X120322200Y-58265350D01*
X120322200Y-58265350D02*
X120369819Y-58360588D01*
X120369819Y-58360588D02*
X120369819Y-58455826D01*
X120369819Y-58789160D02*
X119369819Y-58789160D01*
X120369819Y-59217731D02*
X119846009Y-59217731D01*
X119846009Y-59217731D02*
X119750771Y-59170112D01*
X119750771Y-59170112D02*
X119703152Y-59074874D01*
X119703152Y-59074874D02*
X119703152Y-58932017D01*
X119703152Y-58932017D02*
X119750771Y-58836779D01*
X119750771Y-58836779D02*
X119798390Y-58789160D01*
X119703152Y-60122493D02*
X120369819Y-60122493D01*
X119703152Y-59693922D02*
X120226961Y-59693922D01*
X120226961Y-59693922D02*
X120322200Y-59741541D01*
X120322200Y-59741541D02*
X120369819Y-59836779D01*
X120369819Y-59836779D02*
X120369819Y-59979636D01*
X120369819Y-59979636D02*
X120322200Y-60074874D01*
X120322200Y-60074874D02*
X120274580Y-60122493D01*
X120369819Y-60598684D02*
X119369819Y-60598684D01*
X119750771Y-60598684D02*
X119703152Y-60693922D01*
X119703152Y-60693922D02*
X119703152Y-60884398D01*
X119703152Y-60884398D02*
X119750771Y-60979636D01*
X119750771Y-60979636D02*
X119798390Y-61027255D01*
X119798390Y-61027255D02*
X119893628Y-61074874D01*
X119893628Y-61074874D02*
X120179342Y-61074874D01*
X120179342Y-61074874D02*
X120274580Y-61027255D01*
X120274580Y-61027255D02*
X120322200Y-60979636D01*
X120322200Y-60979636D02*
X120369819Y-60884398D01*
X120369819Y-60884398D02*
X120369819Y-60693922D01*
X120369819Y-60693922D02*
X120322200Y-60598684D01*
X120274580Y-61503446D02*
X120322200Y-61551065D01*
X120322200Y-61551065D02*
X120369819Y-61503446D01*
X120369819Y-61503446D02*
X120322200Y-61455827D01*
X120322200Y-61455827D02*
X120274580Y-61503446D01*
X120274580Y-61503446D02*
X120369819Y-61503446D01*
X120322200Y-62408207D02*
X120369819Y-62312969D01*
X120369819Y-62312969D02*
X120369819Y-62122493D01*
X120369819Y-62122493D02*
X120322200Y-62027255D01*
X120322200Y-62027255D02*
X120274580Y-61979636D01*
X120274580Y-61979636D02*
X120179342Y-61932017D01*
X120179342Y-61932017D02*
X119893628Y-61932017D01*
X119893628Y-61932017D02*
X119798390Y-61979636D01*
X119798390Y-61979636D02*
X119750771Y-62027255D01*
X119750771Y-62027255D02*
X119703152Y-62122493D01*
X119703152Y-62122493D02*
X119703152Y-62312969D01*
X119703152Y-62312969D02*
X119750771Y-62408207D01*
X120369819Y-62979636D02*
X120322200Y-62884398D01*
X120322200Y-62884398D02*
X120274580Y-62836779D01*
X120274580Y-62836779D02*
X120179342Y-62789160D01*
X120179342Y-62789160D02*
X119893628Y-62789160D01*
X119893628Y-62789160D02*
X119798390Y-62836779D01*
X119798390Y-62836779D02*
X119750771Y-62884398D01*
X119750771Y-62884398D02*
X119703152Y-62979636D01*
X119703152Y-62979636D02*
X119703152Y-63122493D01*
X119703152Y-63122493D02*
X119750771Y-63217731D01*
X119750771Y-63217731D02*
X119798390Y-63265350D01*
X119798390Y-63265350D02*
X119893628Y-63312969D01*
X119893628Y-63312969D02*
X120179342Y-63312969D01*
X120179342Y-63312969D02*
X120274580Y-63265350D01*
X120274580Y-63265350D02*
X120322200Y-63217731D01*
X120322200Y-63217731D02*
X120369819Y-63122493D01*
X120369819Y-63122493D02*
X120369819Y-62979636D01*
X120369819Y-63741541D02*
X119703152Y-63741541D01*
X119798390Y-63741541D02*
X119750771Y-63789160D01*
X119750771Y-63789160D02*
X119703152Y-63884398D01*
X119703152Y-63884398D02*
X119703152Y-64027255D01*
X119703152Y-64027255D02*
X119750771Y-64122493D01*
X119750771Y-64122493D02*
X119846009Y-64170112D01*
X119846009Y-64170112D02*
X120369819Y-64170112D01*
X119846009Y-64170112D02*
X119750771Y-64217731D01*
X119750771Y-64217731D02*
X119703152Y-64312969D01*
X119703152Y-64312969D02*
X119703152Y-64455826D01*
X119703152Y-64455826D02*
X119750771Y-64551065D01*
X119750771Y-64551065D02*
X119846009Y-64598684D01*
X119846009Y-64598684D02*
X120369819Y-64598684D01*
X119322200Y-65789159D02*
X120607914Y-64932017D01*
X120322200Y-66551064D02*
X120369819Y-66455826D01*
X120369819Y-66455826D02*
X120369819Y-66265350D01*
X120369819Y-66265350D02*
X120322200Y-66170112D01*
X120322200Y-66170112D02*
X120274580Y-66122493D01*
X120274580Y-66122493D02*
X120179342Y-66074874D01*
X120179342Y-66074874D02*
X119893628Y-66074874D01*
X119893628Y-66074874D02*
X119798390Y-66122493D01*
X119798390Y-66122493D02*
X119750771Y-66170112D01*
X119750771Y-66170112D02*
X119703152Y-66265350D01*
X119703152Y-66265350D02*
X119703152Y-66455826D01*
X119703152Y-66455826D02*
X119750771Y-66551064D01*
X120369819Y-66979636D02*
X119369819Y-66979636D01*
X120369819Y-67408207D02*
X119846009Y-67408207D01*
X119846009Y-67408207D02*
X119750771Y-67360588D01*
X119750771Y-67360588D02*
X119703152Y-67265350D01*
X119703152Y-67265350D02*
X119703152Y-67122493D01*
X119703152Y-67122493D02*
X119750771Y-67027255D01*
X119750771Y-67027255D02*
X119798390Y-66979636D01*
X120369819Y-68312969D02*
X119846009Y-68312969D01*
X119846009Y-68312969D02*
X119750771Y-68265350D01*
X119750771Y-68265350D02*
X119703152Y-68170112D01*
X119703152Y-68170112D02*
X119703152Y-67979636D01*
X119703152Y-67979636D02*
X119750771Y-67884398D01*
X120322200Y-68312969D02*
X120369819Y-68217731D01*
X120369819Y-68217731D02*
X120369819Y-67979636D01*
X120369819Y-67979636D02*
X120322200Y-67884398D01*
X120322200Y-67884398D02*
X120226961Y-67836779D01*
X120226961Y-67836779D02*
X120131723Y-67836779D01*
X120131723Y-67836779D02*
X120036485Y-67884398D01*
X120036485Y-67884398D02*
X119988866Y-67979636D01*
X119988866Y-67979636D02*
X119988866Y-68217731D01*
X119988866Y-68217731D02*
X119941247Y-68312969D01*
X120369819Y-69217731D02*
X119369819Y-69217731D01*
X120322200Y-69217731D02*
X120369819Y-69122493D01*
X120369819Y-69122493D02*
X120369819Y-68932017D01*
X120369819Y-68932017D02*
X120322200Y-68836779D01*
X120322200Y-68836779D02*
X120274580Y-68789160D01*
X120274580Y-68789160D02*
X120179342Y-68741541D01*
X120179342Y-68741541D02*
X119893628Y-68741541D01*
X119893628Y-68741541D02*
X119798390Y-68789160D01*
X119798390Y-68789160D02*
X119750771Y-68836779D01*
X119750771Y-68836779D02*
X119703152Y-68932017D01*
X119703152Y-68932017D02*
X119703152Y-69122493D01*
X119703152Y-69122493D02*
X119750771Y-69217731D01*
X120369819Y-69693922D02*
X119703152Y-69693922D01*
X119893628Y-69693922D02*
X119798390Y-69741541D01*
X119798390Y-69741541D02*
X119750771Y-69789160D01*
X119750771Y-69789160D02*
X119703152Y-69884398D01*
X119703152Y-69884398D02*
X119703152Y-69979636D01*
X119322200Y-71027255D02*
X120607914Y-70170113D01*
X120369819Y-71836779D02*
X120369819Y-71360589D01*
X120369819Y-71360589D02*
X119369819Y-71360589D01*
X120369819Y-72170113D02*
X119369819Y-72170113D01*
X119369819Y-72170113D02*
X119369819Y-72551065D01*
X119369819Y-72551065D02*
X119417438Y-72646303D01*
X119417438Y-72646303D02*
X119465057Y-72693922D01*
X119465057Y-72693922D02*
X119560295Y-72741541D01*
X119560295Y-72741541D02*
X119703152Y-72741541D01*
X119703152Y-72741541D02*
X119798390Y-72693922D01*
X119798390Y-72693922D02*
X119846009Y-72646303D01*
X119846009Y-72646303D02*
X119893628Y-72551065D01*
X119893628Y-72551065D02*
X119893628Y-72170113D01*
X119369819Y-73027256D02*
X119369819Y-73598684D01*
X120369819Y-73312970D02*
X119369819Y-73312970D01*
X119988866Y-73932018D02*
X119988866Y-74693923D01*
X119846009Y-75503446D02*
X119893628Y-75646303D01*
X119893628Y-75646303D02*
X119941247Y-75693922D01*
X119941247Y-75693922D02*
X120036485Y-75741541D01*
X120036485Y-75741541D02*
X120179342Y-75741541D01*
X120179342Y-75741541D02*
X120274580Y-75693922D01*
X120274580Y-75693922D02*
X120322200Y-75646303D01*
X120322200Y-75646303D02*
X120369819Y-75551065D01*
X120369819Y-75551065D02*
X120369819Y-75170113D01*
X120369819Y-75170113D02*
X119369819Y-75170113D01*
X119369819Y-75170113D02*
X119369819Y-75503446D01*
X119369819Y-75503446D02*
X119417438Y-75598684D01*
X119417438Y-75598684D02*
X119465057Y-75646303D01*
X119465057Y-75646303D02*
X119560295Y-75693922D01*
X119560295Y-75693922D02*
X119655533Y-75693922D01*
X119655533Y-75693922D02*
X119750771Y-75646303D01*
X119750771Y-75646303D02*
X119798390Y-75598684D01*
X119798390Y-75598684D02*
X119846009Y-75503446D01*
X119846009Y-75503446D02*
X119846009Y-75170113D01*
X120369819Y-76312970D02*
X120322200Y-76217732D01*
X120322200Y-76217732D02*
X120226961Y-76170113D01*
X120226961Y-76170113D02*
X119369819Y-76170113D01*
X120369819Y-77122494D02*
X119846009Y-77122494D01*
X119846009Y-77122494D02*
X119750771Y-77074875D01*
X119750771Y-77074875D02*
X119703152Y-76979637D01*
X119703152Y-76979637D02*
X119703152Y-76789161D01*
X119703152Y-76789161D02*
X119750771Y-76693923D01*
X120322200Y-77122494D02*
X120369819Y-77027256D01*
X120369819Y-77027256D02*
X120369819Y-76789161D01*
X120369819Y-76789161D02*
X120322200Y-76693923D01*
X120322200Y-76693923D02*
X120226961Y-76646304D01*
X120226961Y-76646304D02*
X120131723Y-76646304D01*
X120131723Y-76646304D02*
X120036485Y-76693923D01*
X120036485Y-76693923D02*
X119988866Y-76789161D01*
X119988866Y-76789161D02*
X119988866Y-77027256D01*
X119988866Y-77027256D02*
X119941247Y-77122494D01*
X120322200Y-77551066D02*
X120369819Y-77646304D01*
X120369819Y-77646304D02*
X120369819Y-77836780D01*
X120369819Y-77836780D02*
X120322200Y-77932018D01*
X120322200Y-77932018D02*
X120226961Y-77979637D01*
X120226961Y-77979637D02*
X120179342Y-77979637D01*
X120179342Y-77979637D02*
X120084104Y-77932018D01*
X120084104Y-77932018D02*
X120036485Y-77836780D01*
X120036485Y-77836780D02*
X120036485Y-77693923D01*
X120036485Y-77693923D02*
X119988866Y-77598685D01*
X119988866Y-77598685D02*
X119893628Y-77551066D01*
X119893628Y-77551066D02*
X119846009Y-77551066D01*
X119846009Y-77551066D02*
X119750771Y-77598685D01*
X119750771Y-77598685D02*
X119703152Y-77693923D01*
X119703152Y-77693923D02*
X119703152Y-77836780D01*
X119703152Y-77836780D02*
X119750771Y-77932018D01*
X119703152Y-78265352D02*
X119703152Y-78646304D01*
X119369819Y-78408209D02*
X120226961Y-78408209D01*
X120226961Y-78408209D02*
X120322200Y-78455828D01*
X120322200Y-78455828D02*
X120369819Y-78551066D01*
X120369819Y-78551066D02*
X120369819Y-78646304D01*
X120322200Y-79360590D02*
X120369819Y-79265352D01*
X120369819Y-79265352D02*
X120369819Y-79074876D01*
X120369819Y-79074876D02*
X120322200Y-78979638D01*
X120322200Y-78979638D02*
X120226961Y-78932019D01*
X120226961Y-78932019D02*
X119846009Y-78932019D01*
X119846009Y-78932019D02*
X119750771Y-78979638D01*
X119750771Y-78979638D02*
X119703152Y-79074876D01*
X119703152Y-79074876D02*
X119703152Y-79265352D01*
X119703152Y-79265352D02*
X119750771Y-79360590D01*
X119750771Y-79360590D02*
X119846009Y-79408209D01*
X119846009Y-79408209D02*
X119941247Y-79408209D01*
X119941247Y-79408209D02*
X120036485Y-78932019D01*
X120369819Y-79836781D02*
X119703152Y-79836781D01*
X119893628Y-79836781D02*
X119798390Y-79884400D01*
X119798390Y-79884400D02*
X119750771Y-79932019D01*
X119750771Y-79932019D02*
X119703152Y-80027257D01*
X119703152Y-80027257D02*
X119703152Y-80122495D01*
D11*
X134336623Y-46524435D02*
X134336623Y-45929197D01*
X134336623Y-45929197D02*
X133086623Y-45929197D01*
X134336623Y-46941102D02*
X133086623Y-46941102D01*
X133086623Y-46941102D02*
X133086623Y-47417292D01*
X133086623Y-47417292D02*
X133146147Y-47536340D01*
X133146147Y-47536340D02*
X133205671Y-47595863D01*
X133205671Y-47595863D02*
X133324719Y-47655387D01*
X133324719Y-47655387D02*
X133503290Y-47655387D01*
X133503290Y-47655387D02*
X133622338Y-47595863D01*
X133622338Y-47595863D02*
X133681861Y-47536340D01*
X133681861Y-47536340D02*
X133741385Y-47417292D01*
X133741385Y-47417292D02*
X133741385Y-46941102D01*
X133086623Y-48012530D02*
X133086623Y-48726816D01*
X134336623Y-48369673D02*
X133086623Y-48369673D01*
X133681861Y-50512530D02*
X133741385Y-50691102D01*
X133741385Y-50691102D02*
X133800909Y-50750625D01*
X133800909Y-50750625D02*
X133919957Y-50810149D01*
X133919957Y-50810149D02*
X134098528Y-50810149D01*
X134098528Y-50810149D02*
X134217576Y-50750625D01*
X134217576Y-50750625D02*
X134277100Y-50691102D01*
X134277100Y-50691102D02*
X134336623Y-50572054D01*
X134336623Y-50572054D02*
X134336623Y-50095864D01*
X134336623Y-50095864D02*
X133086623Y-50095864D01*
X133086623Y-50095864D02*
X133086623Y-50512530D01*
X133086623Y-50512530D02*
X133146147Y-50631578D01*
X133146147Y-50631578D02*
X133205671Y-50691102D01*
X133205671Y-50691102D02*
X133324719Y-50750625D01*
X133324719Y-50750625D02*
X133443766Y-50750625D01*
X133443766Y-50750625D02*
X133562814Y-50691102D01*
X133562814Y-50691102D02*
X133622338Y-50631578D01*
X133622338Y-50631578D02*
X133681861Y-50512530D01*
X133681861Y-50512530D02*
X133681861Y-50095864D01*
X134336623Y-51524435D02*
X134277100Y-51405387D01*
X134277100Y-51405387D02*
X134158052Y-51345864D01*
X134158052Y-51345864D02*
X133086623Y-51345864D01*
X134336623Y-52536340D02*
X133681861Y-52536340D01*
X133681861Y-52536340D02*
X133562814Y-52476816D01*
X133562814Y-52476816D02*
X133503290Y-52357768D01*
X133503290Y-52357768D02*
X133503290Y-52119673D01*
X133503290Y-52119673D02*
X133562814Y-52000626D01*
X134277100Y-52536340D02*
X134336623Y-52417292D01*
X134336623Y-52417292D02*
X134336623Y-52119673D01*
X134336623Y-52119673D02*
X134277100Y-52000626D01*
X134277100Y-52000626D02*
X134158052Y-51941102D01*
X134158052Y-51941102D02*
X134039004Y-51941102D01*
X134039004Y-51941102D02*
X133919957Y-52000626D01*
X133919957Y-52000626D02*
X133860433Y-52119673D01*
X133860433Y-52119673D02*
X133860433Y-52417292D01*
X133860433Y-52417292D02*
X133800909Y-52536340D01*
X134277100Y-53072054D02*
X134336623Y-53191101D01*
X134336623Y-53191101D02*
X134336623Y-53429197D01*
X134336623Y-53429197D02*
X134277100Y-53548244D01*
X134277100Y-53548244D02*
X134158052Y-53607768D01*
X134158052Y-53607768D02*
X134098528Y-53607768D01*
X134098528Y-53607768D02*
X133979480Y-53548244D01*
X133979480Y-53548244D02*
X133919957Y-53429197D01*
X133919957Y-53429197D02*
X133919957Y-53250625D01*
X133919957Y-53250625D02*
X133860433Y-53131578D01*
X133860433Y-53131578D02*
X133741385Y-53072054D01*
X133741385Y-53072054D02*
X133681861Y-53072054D01*
X133681861Y-53072054D02*
X133562814Y-53131578D01*
X133562814Y-53131578D02*
X133503290Y-53250625D01*
X133503290Y-53250625D02*
X133503290Y-53429197D01*
X133503290Y-53429197D02*
X133562814Y-53548244D01*
X133503290Y-53964911D02*
X133503290Y-54441102D01*
X133086623Y-54143483D02*
X134158052Y-54143483D01*
X134158052Y-54143483D02*
X134277100Y-54203006D01*
X134277100Y-54203006D02*
X134336623Y-54322054D01*
X134336623Y-54322054D02*
X134336623Y-54441102D01*
X134277100Y-55333959D02*
X134336623Y-55214911D01*
X134336623Y-55214911D02*
X134336623Y-54976816D01*
X134336623Y-54976816D02*
X134277100Y-54857769D01*
X134277100Y-54857769D02*
X134158052Y-54798245D01*
X134158052Y-54798245D02*
X133681861Y-54798245D01*
X133681861Y-54798245D02*
X133562814Y-54857769D01*
X133562814Y-54857769D02*
X133503290Y-54976816D01*
X133503290Y-54976816D02*
X133503290Y-55214911D01*
X133503290Y-55214911D02*
X133562814Y-55333959D01*
X133562814Y-55333959D02*
X133681861Y-55393483D01*
X133681861Y-55393483D02*
X133800909Y-55393483D01*
X133800909Y-55393483D02*
X133919957Y-54798245D01*
X134336623Y-55929198D02*
X133503290Y-55929198D01*
X133741385Y-55929198D02*
X133622338Y-55988721D01*
X133622338Y-55988721D02*
X133562814Y-56048245D01*
X133562814Y-56048245D02*
X133503290Y-56167293D01*
X133503290Y-56167293D02*
X133503290Y-56286340D01*
X134217576Y-56703008D02*
X134277100Y-56762531D01*
X134277100Y-56762531D02*
X134336623Y-56703008D01*
X134336623Y-56703008D02*
X134277100Y-56643484D01*
X134277100Y-56643484D02*
X134217576Y-56703008D01*
X134217576Y-56703008D02*
X134336623Y-56703008D01*
X133979480Y-58191103D02*
X133979480Y-58786341D01*
X134336623Y-58072055D02*
X133086623Y-58488722D01*
X133086623Y-58488722D02*
X134336623Y-58905388D01*
X133503290Y-60095865D02*
X133503290Y-60572056D01*
X134336623Y-60274437D02*
X133265195Y-60274437D01*
X133265195Y-60274437D02*
X133146147Y-60333960D01*
X133146147Y-60333960D02*
X133086623Y-60453008D01*
X133086623Y-60453008D02*
X133086623Y-60572056D01*
X134336623Y-61524437D02*
X133681861Y-61524437D01*
X133681861Y-61524437D02*
X133562814Y-61464913D01*
X133562814Y-61464913D02*
X133503290Y-61345865D01*
X133503290Y-61345865D02*
X133503290Y-61107770D01*
X133503290Y-61107770D02*
X133562814Y-60988723D01*
X134277100Y-61524437D02*
X134336623Y-61405389D01*
X134336623Y-61405389D02*
X134336623Y-61107770D01*
X134336623Y-61107770D02*
X134277100Y-60988723D01*
X134277100Y-60988723D02*
X134158052Y-60929199D01*
X134158052Y-60929199D02*
X134039004Y-60929199D01*
X134039004Y-60929199D02*
X133919957Y-60988723D01*
X133919957Y-60988723D02*
X133860433Y-61107770D01*
X133860433Y-61107770D02*
X133860433Y-61405389D01*
X133860433Y-61405389D02*
X133800909Y-61524437D01*
X134336623Y-62119675D02*
X133503290Y-62119675D01*
X133086623Y-62119675D02*
X133146147Y-62060151D01*
X133146147Y-62060151D02*
X133205671Y-62119675D01*
X133205671Y-62119675D02*
X133146147Y-62179198D01*
X133146147Y-62179198D02*
X133086623Y-62119675D01*
X133086623Y-62119675D02*
X133205671Y-62119675D01*
X133503290Y-62536341D02*
X133503290Y-63012532D01*
X133086623Y-62714913D02*
X134158052Y-62714913D01*
X134158052Y-62714913D02*
X134277100Y-62774436D01*
X134277100Y-62774436D02*
X134336623Y-62893484D01*
X134336623Y-62893484D02*
X134336623Y-63012532D01*
X134336623Y-63429199D02*
X133086623Y-63429199D01*
X134336623Y-63964913D02*
X133681861Y-63964913D01*
X133681861Y-63964913D02*
X133562814Y-63905389D01*
X133562814Y-63905389D02*
X133503290Y-63786341D01*
X133503290Y-63786341D02*
X133503290Y-63607770D01*
X133503290Y-63607770D02*
X133562814Y-63488722D01*
X133562814Y-63488722D02*
X133622338Y-63429199D01*
X133503290Y-64381579D02*
X133503290Y-64857770D01*
X134336623Y-64560151D02*
X133265195Y-64560151D01*
X133265195Y-64560151D02*
X133146147Y-64619674D01*
X133146147Y-64619674D02*
X133086623Y-64738722D01*
X133086623Y-64738722D02*
X133086623Y-64857770D01*
X133503290Y-65810151D02*
X134336623Y-65810151D01*
X133503290Y-65274437D02*
X134158052Y-65274437D01*
X134158052Y-65274437D02*
X134277100Y-65333960D01*
X134277100Y-65333960D02*
X134336623Y-65453008D01*
X134336623Y-65453008D02*
X134336623Y-65631579D01*
X134336623Y-65631579D02*
X134277100Y-65750627D01*
X134277100Y-65750627D02*
X134217576Y-65810151D01*
X134336623Y-66583960D02*
X134277100Y-66464912D01*
X134277100Y-66464912D02*
X134158052Y-66405389D01*
X134158052Y-66405389D02*
X133086623Y-66405389D01*
X134217576Y-68726817D02*
X134277100Y-68667293D01*
X134277100Y-68667293D02*
X134336623Y-68488722D01*
X134336623Y-68488722D02*
X134336623Y-68369674D01*
X134336623Y-68369674D02*
X134277100Y-68191103D01*
X134277100Y-68191103D02*
X134158052Y-68072055D01*
X134158052Y-68072055D02*
X134039004Y-68012532D01*
X134039004Y-68012532D02*
X133800909Y-67953008D01*
X133800909Y-67953008D02*
X133622338Y-67953008D01*
X133622338Y-67953008D02*
X133384242Y-68012532D01*
X133384242Y-68012532D02*
X133265195Y-68072055D01*
X133265195Y-68072055D02*
X133146147Y-68191103D01*
X133146147Y-68191103D02*
X133086623Y-68369674D01*
X133086623Y-68369674D02*
X133086623Y-68488722D01*
X133086623Y-68488722D02*
X133146147Y-68667293D01*
X133146147Y-68667293D02*
X133205671Y-68726817D01*
X134336623Y-69441103D02*
X134277100Y-69322055D01*
X134277100Y-69322055D02*
X134217576Y-69262532D01*
X134217576Y-69262532D02*
X134098528Y-69203008D01*
X134098528Y-69203008D02*
X133741385Y-69203008D01*
X133741385Y-69203008D02*
X133622338Y-69262532D01*
X133622338Y-69262532D02*
X133562814Y-69322055D01*
X133562814Y-69322055D02*
X133503290Y-69441103D01*
X133503290Y-69441103D02*
X133503290Y-69619674D01*
X133503290Y-69619674D02*
X133562814Y-69738722D01*
X133562814Y-69738722D02*
X133622338Y-69798246D01*
X133622338Y-69798246D02*
X133741385Y-69857770D01*
X133741385Y-69857770D02*
X134098528Y-69857770D01*
X134098528Y-69857770D02*
X134217576Y-69798246D01*
X134217576Y-69798246D02*
X134277100Y-69738722D01*
X134277100Y-69738722D02*
X134336623Y-69619674D01*
X134336623Y-69619674D02*
X134336623Y-69441103D01*
X133503290Y-70274436D02*
X134336623Y-70572055D01*
X134336623Y-70572055D02*
X133503290Y-70869674D01*
X134336623Y-71524436D02*
X134277100Y-71405388D01*
X134277100Y-71405388D02*
X134217576Y-71345865D01*
X134217576Y-71345865D02*
X134098528Y-71286341D01*
X134098528Y-71286341D02*
X133741385Y-71286341D01*
X133741385Y-71286341D02*
X133622338Y-71345865D01*
X133622338Y-71345865D02*
X133562814Y-71405388D01*
X133562814Y-71405388D02*
X133503290Y-71524436D01*
X133503290Y-71524436D02*
X133503290Y-71703007D01*
X133503290Y-71703007D02*
X133562814Y-71822055D01*
X133562814Y-71822055D02*
X133622338Y-71881579D01*
X133622338Y-71881579D02*
X133741385Y-71941103D01*
X133741385Y-71941103D02*
X134098528Y-71941103D01*
X134098528Y-71941103D02*
X134217576Y-71881579D01*
X134217576Y-71881579D02*
X134277100Y-71822055D01*
X134277100Y-71822055D02*
X134336623Y-71703007D01*
X134336623Y-71703007D02*
X134336623Y-71524436D01*
X134336623Y-72357769D02*
X133503290Y-73012531D01*
X133503290Y-72357769D02*
X134336623Y-73012531D01*
X134277100Y-74381579D02*
X134336623Y-74560150D01*
X134336623Y-74560150D02*
X134336623Y-74857769D01*
X134336623Y-74857769D02*
X134277100Y-74976817D01*
X134277100Y-74976817D02*
X134217576Y-75036341D01*
X134217576Y-75036341D02*
X134098528Y-75095864D01*
X134098528Y-75095864D02*
X133979480Y-75095864D01*
X133979480Y-75095864D02*
X133860433Y-75036341D01*
X133860433Y-75036341D02*
X133800909Y-74976817D01*
X133800909Y-74976817D02*
X133741385Y-74857769D01*
X133741385Y-74857769D02*
X133681861Y-74619674D01*
X133681861Y-74619674D02*
X133622338Y-74500626D01*
X133622338Y-74500626D02*
X133562814Y-74441103D01*
X133562814Y-74441103D02*
X133443766Y-74381579D01*
X133443766Y-74381579D02*
X133324719Y-74381579D01*
X133324719Y-74381579D02*
X133205671Y-74441103D01*
X133205671Y-74441103D02*
X133146147Y-74500626D01*
X133146147Y-74500626D02*
X133086623Y-74619674D01*
X133086623Y-74619674D02*
X133086623Y-74917293D01*
X133086623Y-74917293D02*
X133146147Y-75095864D01*
X133503290Y-75631579D02*
X134753290Y-75631579D01*
X133562814Y-75631579D02*
X133503290Y-75750626D01*
X133503290Y-75750626D02*
X133503290Y-75988721D01*
X133503290Y-75988721D02*
X133562814Y-76107769D01*
X133562814Y-76107769D02*
X133622338Y-76167293D01*
X133622338Y-76167293D02*
X133741385Y-76226817D01*
X133741385Y-76226817D02*
X134098528Y-76226817D01*
X134098528Y-76226817D02*
X134217576Y-76167293D01*
X134217576Y-76167293D02*
X134277100Y-76107769D01*
X134277100Y-76107769D02*
X134336623Y-75988721D01*
X134336623Y-75988721D02*
X134336623Y-75750626D01*
X134336623Y-75750626D02*
X134277100Y-75631579D01*
X134277100Y-77238721D02*
X134336623Y-77119673D01*
X134336623Y-77119673D02*
X134336623Y-76881578D01*
X134336623Y-76881578D02*
X134277100Y-76762531D01*
X134277100Y-76762531D02*
X134158052Y-76703007D01*
X134158052Y-76703007D02*
X133681861Y-76703007D01*
X133681861Y-76703007D02*
X133562814Y-76762531D01*
X133562814Y-76762531D02*
X133503290Y-76881578D01*
X133503290Y-76881578D02*
X133503290Y-77119673D01*
X133503290Y-77119673D02*
X133562814Y-77238721D01*
X133562814Y-77238721D02*
X133681861Y-77298245D01*
X133681861Y-77298245D02*
X133800909Y-77298245D01*
X133800909Y-77298245D02*
X133919957Y-76703007D01*
X134277100Y-78310150D02*
X134336623Y-78191102D01*
X134336623Y-78191102D02*
X134336623Y-77953007D01*
X134336623Y-77953007D02*
X134277100Y-77833960D01*
X134277100Y-77833960D02*
X134158052Y-77774436D01*
X134158052Y-77774436D02*
X133681861Y-77774436D01*
X133681861Y-77774436D02*
X133562814Y-77833960D01*
X133562814Y-77833960D02*
X133503290Y-77953007D01*
X133503290Y-77953007D02*
X133503290Y-78191102D01*
X133503290Y-78191102D02*
X133562814Y-78310150D01*
X133562814Y-78310150D02*
X133681861Y-78369674D01*
X133681861Y-78369674D02*
X133800909Y-78369674D01*
X133800909Y-78369674D02*
X133919957Y-77774436D01*
X134277100Y-79441103D02*
X134336623Y-79322055D01*
X134336623Y-79322055D02*
X134336623Y-79083960D01*
X134336623Y-79083960D02*
X134277100Y-78964912D01*
X134277100Y-78964912D02*
X134217576Y-78905389D01*
X134217576Y-78905389D02*
X134098528Y-78845865D01*
X134098528Y-78845865D02*
X133741385Y-78845865D01*
X133741385Y-78845865D02*
X133622338Y-78905389D01*
X133622338Y-78905389D02*
X133562814Y-78964912D01*
X133562814Y-78964912D02*
X133503290Y-79083960D01*
X133503290Y-79083960D02*
X133503290Y-79322055D01*
X133503290Y-79322055D02*
X133562814Y-79441103D01*
X134336623Y-79976818D02*
X133086623Y-79976818D01*
X134336623Y-80512532D02*
X133681861Y-80512532D01*
X133681861Y-80512532D02*
X133562814Y-80453008D01*
X133562814Y-80453008D02*
X133503290Y-80333960D01*
X133503290Y-80333960D02*
X133503290Y-80155389D01*
X133503290Y-80155389D02*
X133562814Y-80036341D01*
X133562814Y-80036341D02*
X133622338Y-79976818D01*
X133086623Y-81881579D02*
X133086623Y-82595865D01*
X134336623Y-82238722D02*
X133086623Y-82238722D01*
X134336623Y-83012532D02*
X133086623Y-83012532D01*
X134336623Y-83548246D02*
X133681861Y-83548246D01*
X133681861Y-83548246D02*
X133562814Y-83488722D01*
X133562814Y-83488722D02*
X133503290Y-83369674D01*
X133503290Y-83369674D02*
X133503290Y-83191103D01*
X133503290Y-83191103D02*
X133562814Y-83072055D01*
X133562814Y-83072055D02*
X133622338Y-83012532D01*
X134336623Y-84143484D02*
X133503290Y-84143484D01*
X133086623Y-84143484D02*
X133146147Y-84083960D01*
X133146147Y-84083960D02*
X133205671Y-84143484D01*
X133205671Y-84143484D02*
X133146147Y-84203007D01*
X133146147Y-84203007D02*
X133086623Y-84143484D01*
X133086623Y-84143484D02*
X133205671Y-84143484D01*
X133503290Y-84738722D02*
X134336623Y-84738722D01*
X133622338Y-84738722D02*
X133562814Y-84798245D01*
X133562814Y-84798245D02*
X133503290Y-84917293D01*
X133503290Y-84917293D02*
X133503290Y-85095864D01*
X133503290Y-85095864D02*
X133562814Y-85214912D01*
X133562814Y-85214912D02*
X133681861Y-85274436D01*
X133681861Y-85274436D02*
X134336623Y-85274436D01*
X133503290Y-86405388D02*
X134515195Y-86405388D01*
X134515195Y-86405388D02*
X134634242Y-86345864D01*
X134634242Y-86345864D02*
X134693766Y-86286340D01*
X134693766Y-86286340D02*
X134753290Y-86167293D01*
X134753290Y-86167293D02*
X134753290Y-85988721D01*
X134753290Y-85988721D02*
X134693766Y-85869674D01*
X134277100Y-86405388D02*
X134336623Y-86286340D01*
X134336623Y-86286340D02*
X134336623Y-86048245D01*
X134336623Y-86048245D02*
X134277100Y-85929197D01*
X134277100Y-85929197D02*
X134217576Y-85869674D01*
X134217576Y-85869674D02*
X134098528Y-85810150D01*
X134098528Y-85810150D02*
X133741385Y-85810150D01*
X133741385Y-85810150D02*
X133622338Y-85869674D01*
X133622338Y-85869674D02*
X133562814Y-85929197D01*
X133562814Y-85929197D02*
X133503290Y-86048245D01*
X133503290Y-86048245D02*
X133503290Y-86286340D01*
X133503290Y-86286340D02*
X133562814Y-86405388D01*
X134277100Y-88488721D02*
X134336623Y-88369673D01*
X134336623Y-88369673D02*
X134336623Y-88131578D01*
X134336623Y-88131578D02*
X134277100Y-88012530D01*
X134277100Y-88012530D02*
X134217576Y-87953007D01*
X134217576Y-87953007D02*
X134098528Y-87893483D01*
X134098528Y-87893483D02*
X133741385Y-87893483D01*
X133741385Y-87893483D02*
X133622338Y-87953007D01*
X133622338Y-87953007D02*
X133562814Y-88012530D01*
X133562814Y-88012530D02*
X133503290Y-88131578D01*
X133503290Y-88131578D02*
X133503290Y-88369673D01*
X133503290Y-88369673D02*
X133562814Y-88488721D01*
X134336623Y-89203007D02*
X134277100Y-89083959D01*
X134277100Y-89083959D02*
X134158052Y-89024436D01*
X134158052Y-89024436D02*
X133086623Y-89024436D01*
X134336623Y-89857769D02*
X134277100Y-89738721D01*
X134277100Y-89738721D02*
X134217576Y-89679198D01*
X134217576Y-89679198D02*
X134098528Y-89619674D01*
X134098528Y-89619674D02*
X133741385Y-89619674D01*
X133741385Y-89619674D02*
X133622338Y-89679198D01*
X133622338Y-89679198D02*
X133562814Y-89738721D01*
X133562814Y-89738721D02*
X133503290Y-89857769D01*
X133503290Y-89857769D02*
X133503290Y-90036340D01*
X133503290Y-90036340D02*
X133562814Y-90155388D01*
X133562814Y-90155388D02*
X133622338Y-90214912D01*
X133622338Y-90214912D02*
X133741385Y-90274436D01*
X133741385Y-90274436D02*
X134098528Y-90274436D01*
X134098528Y-90274436D02*
X134217576Y-90214912D01*
X134217576Y-90214912D02*
X134277100Y-90155388D01*
X134277100Y-90155388D02*
X134336623Y-90036340D01*
X134336623Y-90036340D02*
X134336623Y-89857769D01*
X133503290Y-90810150D02*
X134336623Y-90810150D01*
X133622338Y-90810150D02*
X133562814Y-90869673D01*
X133562814Y-90869673D02*
X133503290Y-90988721D01*
X133503290Y-90988721D02*
X133503290Y-91167292D01*
X133503290Y-91167292D02*
X133562814Y-91286340D01*
X133562814Y-91286340D02*
X133681861Y-91345864D01*
X133681861Y-91345864D02*
X134336623Y-91345864D01*
X134277100Y-92417292D02*
X134336623Y-92298244D01*
X134336623Y-92298244D02*
X134336623Y-92060149D01*
X134336623Y-92060149D02*
X134277100Y-91941102D01*
X134277100Y-91941102D02*
X134158052Y-91881578D01*
X134158052Y-91881578D02*
X133681861Y-91881578D01*
X133681861Y-91881578D02*
X133562814Y-91941102D01*
X133562814Y-91941102D02*
X133503290Y-92060149D01*
X133503290Y-92060149D02*
X133503290Y-92298244D01*
X133503290Y-92298244D02*
X133562814Y-92417292D01*
X133562814Y-92417292D02*
X133681861Y-92476816D01*
X133681861Y-92476816D02*
X133800909Y-92476816D01*
X133800909Y-92476816D02*
X133919957Y-91881578D01*
X134217576Y-93012531D02*
X134277100Y-93072054D01*
X134277100Y-93072054D02*
X134336623Y-93012531D01*
X134336623Y-93012531D02*
X134277100Y-92953007D01*
X134277100Y-92953007D02*
X134217576Y-93012531D01*
X134217576Y-93012531D02*
X134336623Y-93012531D01*
D10*
X116869819Y-59836779D02*
X117679342Y-59836779D01*
X117679342Y-59836779D02*
X117774580Y-59884398D01*
X117774580Y-59884398D02*
X117822200Y-59932017D01*
X117822200Y-59932017D02*
X117869819Y-60027255D01*
X117869819Y-60027255D02*
X117869819Y-60217731D01*
X117869819Y-60217731D02*
X117822200Y-60312969D01*
X117822200Y-60312969D02*
X117774580Y-60360588D01*
X117774580Y-60360588D02*
X117679342Y-60408207D01*
X117679342Y-60408207D02*
X116869819Y-60408207D01*
X117203152Y-60884398D02*
X117869819Y-60884398D01*
X117298390Y-60884398D02*
X117250771Y-60932017D01*
X117250771Y-60932017D02*
X117203152Y-61027255D01*
X117203152Y-61027255D02*
X117203152Y-61170112D01*
X117203152Y-61170112D02*
X117250771Y-61265350D01*
X117250771Y-61265350D02*
X117346009Y-61312969D01*
X117346009Y-61312969D02*
X117869819Y-61312969D01*
X117869819Y-62217731D02*
X116869819Y-62217731D01*
X117822200Y-62217731D02*
X117869819Y-62122493D01*
X117869819Y-62122493D02*
X117869819Y-61932017D01*
X117869819Y-61932017D02*
X117822200Y-61836779D01*
X117822200Y-61836779D02*
X117774580Y-61789160D01*
X117774580Y-61789160D02*
X117679342Y-61741541D01*
X117679342Y-61741541D02*
X117393628Y-61741541D01*
X117393628Y-61741541D02*
X117298390Y-61789160D01*
X117298390Y-61789160D02*
X117250771Y-61836779D01*
X117250771Y-61836779D02*
X117203152Y-61932017D01*
X117203152Y-61932017D02*
X117203152Y-62122493D01*
X117203152Y-62122493D02*
X117250771Y-62217731D01*
X117822200Y-63074874D02*
X117869819Y-62979636D01*
X117869819Y-62979636D02*
X117869819Y-62789160D01*
X117869819Y-62789160D02*
X117822200Y-62693922D01*
X117822200Y-62693922D02*
X117726961Y-62646303D01*
X117726961Y-62646303D02*
X117346009Y-62646303D01*
X117346009Y-62646303D02*
X117250771Y-62693922D01*
X117250771Y-62693922D02*
X117203152Y-62789160D01*
X117203152Y-62789160D02*
X117203152Y-62979636D01*
X117203152Y-62979636D02*
X117250771Y-63074874D01*
X117250771Y-63074874D02*
X117346009Y-63122493D01*
X117346009Y-63122493D02*
X117441247Y-63122493D01*
X117441247Y-63122493D02*
X117536485Y-62646303D01*
X117203152Y-63408208D02*
X117203152Y-63789160D01*
X117869819Y-63551065D02*
X117012676Y-63551065D01*
X117012676Y-63551065D02*
X116917438Y-63598684D01*
X116917438Y-63598684D02*
X116869819Y-63693922D01*
X116869819Y-63693922D02*
X116869819Y-63789160D01*
X117869819Y-64122494D02*
X117203152Y-64122494D01*
X116869819Y-64122494D02*
X116917438Y-64074875D01*
X116917438Y-64074875D02*
X116965057Y-64122494D01*
X116965057Y-64122494D02*
X116917438Y-64170113D01*
X116917438Y-64170113D02*
X116869819Y-64122494D01*
X116869819Y-64122494D02*
X116965057Y-64122494D01*
X117203152Y-64598684D02*
X117869819Y-64598684D01*
X117298390Y-64598684D02*
X117250771Y-64646303D01*
X117250771Y-64646303D02*
X117203152Y-64741541D01*
X117203152Y-64741541D02*
X117203152Y-64884398D01*
X117203152Y-64884398D02*
X117250771Y-64979636D01*
X117250771Y-64979636D02*
X117346009Y-65027255D01*
X117346009Y-65027255D02*
X117869819Y-65027255D01*
X117822200Y-65884398D02*
X117869819Y-65789160D01*
X117869819Y-65789160D02*
X117869819Y-65598684D01*
X117869819Y-65598684D02*
X117822200Y-65503446D01*
X117822200Y-65503446D02*
X117726961Y-65455827D01*
X117726961Y-65455827D02*
X117346009Y-65455827D01*
X117346009Y-65455827D02*
X117250771Y-65503446D01*
X117250771Y-65503446D02*
X117203152Y-65598684D01*
X117203152Y-65598684D02*
X117203152Y-65789160D01*
X117203152Y-65789160D02*
X117250771Y-65884398D01*
X117250771Y-65884398D02*
X117346009Y-65932017D01*
X117346009Y-65932017D02*
X117441247Y-65932017D01*
X117441247Y-65932017D02*
X117536485Y-65455827D01*
X117869819Y-66789160D02*
X116869819Y-66789160D01*
X117822200Y-66789160D02*
X117869819Y-66693922D01*
X117869819Y-66693922D02*
X117869819Y-66503446D01*
X117869819Y-66503446D02*
X117822200Y-66408208D01*
X117822200Y-66408208D02*
X117774580Y-66360589D01*
X117774580Y-66360589D02*
X117679342Y-66312970D01*
X117679342Y-66312970D02*
X117393628Y-66312970D01*
X117393628Y-66312970D02*
X117298390Y-66360589D01*
X117298390Y-66360589D02*
X117250771Y-66408208D01*
X117250771Y-66408208D02*
X117203152Y-66503446D01*
X117203152Y-66503446D02*
X117203152Y-66693922D01*
X117203152Y-66693922D02*
X117250771Y-66789160D01*
X117822200Y-67979637D02*
X117869819Y-68122494D01*
X117869819Y-68122494D02*
X117869819Y-68360589D01*
X117869819Y-68360589D02*
X117822200Y-68455827D01*
X117822200Y-68455827D02*
X117774580Y-68503446D01*
X117774580Y-68503446D02*
X117679342Y-68551065D01*
X117679342Y-68551065D02*
X117584104Y-68551065D01*
X117584104Y-68551065D02*
X117488866Y-68503446D01*
X117488866Y-68503446D02*
X117441247Y-68455827D01*
X117441247Y-68455827D02*
X117393628Y-68360589D01*
X117393628Y-68360589D02*
X117346009Y-68170113D01*
X117346009Y-68170113D02*
X117298390Y-68074875D01*
X117298390Y-68074875D02*
X117250771Y-68027256D01*
X117250771Y-68027256D02*
X117155533Y-67979637D01*
X117155533Y-67979637D02*
X117060295Y-67979637D01*
X117060295Y-67979637D02*
X116965057Y-68027256D01*
X116965057Y-68027256D02*
X116917438Y-68074875D01*
X116917438Y-68074875D02*
X116869819Y-68170113D01*
X116869819Y-68170113D02*
X116869819Y-68408208D01*
X116869819Y-68408208D02*
X116917438Y-68551065D01*
X117203152Y-68884399D02*
X117869819Y-69122494D01*
X117203152Y-69360589D02*
X117869819Y-69122494D01*
X117869819Y-69122494D02*
X118107914Y-69027256D01*
X118107914Y-69027256D02*
X118155533Y-68979637D01*
X118155533Y-68979637D02*
X118203152Y-68884399D01*
X117822200Y-69693923D02*
X117869819Y-69789161D01*
X117869819Y-69789161D02*
X117869819Y-69979637D01*
X117869819Y-69979637D02*
X117822200Y-70074875D01*
X117822200Y-70074875D02*
X117726961Y-70122494D01*
X117726961Y-70122494D02*
X117679342Y-70122494D01*
X117679342Y-70122494D02*
X117584104Y-70074875D01*
X117584104Y-70074875D02*
X117536485Y-69979637D01*
X117536485Y-69979637D02*
X117536485Y-69836780D01*
X117536485Y-69836780D02*
X117488866Y-69741542D01*
X117488866Y-69741542D02*
X117393628Y-69693923D01*
X117393628Y-69693923D02*
X117346009Y-69693923D01*
X117346009Y-69693923D02*
X117250771Y-69741542D01*
X117250771Y-69741542D02*
X117203152Y-69836780D01*
X117203152Y-69836780D02*
X117203152Y-69979637D01*
X117203152Y-69979637D02*
X117250771Y-70074875D01*
X117203152Y-70408209D02*
X117203152Y-70789161D01*
X116869819Y-70551066D02*
X117726961Y-70551066D01*
X117726961Y-70551066D02*
X117822200Y-70598685D01*
X117822200Y-70598685D02*
X117869819Y-70693923D01*
X117869819Y-70693923D02*
X117869819Y-70789161D01*
X117822200Y-71503447D02*
X117869819Y-71408209D01*
X117869819Y-71408209D02*
X117869819Y-71217733D01*
X117869819Y-71217733D02*
X117822200Y-71122495D01*
X117822200Y-71122495D02*
X117726961Y-71074876D01*
X117726961Y-71074876D02*
X117346009Y-71074876D01*
X117346009Y-71074876D02*
X117250771Y-71122495D01*
X117250771Y-71122495D02*
X117203152Y-71217733D01*
X117203152Y-71217733D02*
X117203152Y-71408209D01*
X117203152Y-71408209D02*
X117250771Y-71503447D01*
X117250771Y-71503447D02*
X117346009Y-71551066D01*
X117346009Y-71551066D02*
X117441247Y-71551066D01*
X117441247Y-71551066D02*
X117536485Y-71074876D01*
X117869819Y-71979638D02*
X117203152Y-71979638D01*
X117298390Y-71979638D02*
X117250771Y-72027257D01*
X117250771Y-72027257D02*
X117203152Y-72122495D01*
X117203152Y-72122495D02*
X117203152Y-72265352D01*
X117203152Y-72265352D02*
X117250771Y-72360590D01*
X117250771Y-72360590D02*
X117346009Y-72408209D01*
X117346009Y-72408209D02*
X117869819Y-72408209D01*
X117346009Y-72408209D02*
X117250771Y-72455828D01*
X117250771Y-72455828D02*
X117203152Y-72551066D01*
X117203152Y-72551066D02*
X117203152Y-72693923D01*
X117203152Y-72693923D02*
X117250771Y-72789162D01*
X117250771Y-72789162D02*
X117346009Y-72836781D01*
X117346009Y-72836781D02*
X117869819Y-72836781D01*
X117822200Y-73265352D02*
X117869819Y-73360590D01*
X117869819Y-73360590D02*
X117869819Y-73551066D01*
X117869819Y-73551066D02*
X117822200Y-73646304D01*
X117822200Y-73646304D02*
X117726961Y-73693923D01*
X117726961Y-73693923D02*
X117679342Y-73693923D01*
X117679342Y-73693923D02*
X117584104Y-73646304D01*
X117584104Y-73646304D02*
X117536485Y-73551066D01*
X117536485Y-73551066D02*
X117536485Y-73408209D01*
X117536485Y-73408209D02*
X117488866Y-73312971D01*
X117488866Y-73312971D02*
X117393628Y-73265352D01*
X117393628Y-73265352D02*
X117346009Y-73265352D01*
X117346009Y-73265352D02*
X117250771Y-73312971D01*
X117250771Y-73312971D02*
X117203152Y-73408209D01*
X117203152Y-73408209D02*
X117203152Y-73551066D01*
X117203152Y-73551066D02*
X117250771Y-73646304D01*
X117822200Y-74170114D02*
X117869819Y-74170114D01*
X117869819Y-74170114D02*
X117965057Y-74122495D01*
X117965057Y-74122495D02*
X118012676Y-74074876D01*
X117869819Y-75836780D02*
X117869819Y-75360590D01*
X117869819Y-75360590D02*
X116869819Y-75360590D01*
X117869819Y-76646304D02*
X117869819Y-76170114D01*
X117869819Y-76170114D02*
X116869819Y-76170114D01*
X117774580Y-77551066D02*
X117822200Y-77503447D01*
X117822200Y-77503447D02*
X117869819Y-77360590D01*
X117869819Y-77360590D02*
X117869819Y-77265352D01*
X117869819Y-77265352D02*
X117822200Y-77122495D01*
X117822200Y-77122495D02*
X117726961Y-77027257D01*
X117726961Y-77027257D02*
X117631723Y-76979638D01*
X117631723Y-76979638D02*
X117441247Y-76932019D01*
X117441247Y-76932019D02*
X117298390Y-76932019D01*
X117298390Y-76932019D02*
X117107914Y-76979638D01*
X117107914Y-76979638D02*
X117012676Y-77027257D01*
X117012676Y-77027257D02*
X116917438Y-77122495D01*
X116917438Y-77122495D02*
X116869819Y-77265352D01*
X116869819Y-77265352D02*
X116869819Y-77360590D01*
X116869819Y-77360590D02*
X116917438Y-77503447D01*
X116917438Y-77503447D02*
X116965057Y-77551066D01*
X97944580Y-55908207D02*
X97992200Y-55860588D01*
X97992200Y-55860588D02*
X98039819Y-55717731D01*
X98039819Y-55717731D02*
X98039819Y-55622493D01*
X98039819Y-55622493D02*
X97992200Y-55479636D01*
X97992200Y-55479636D02*
X97896961Y-55384398D01*
X97896961Y-55384398D02*
X97801723Y-55336779D01*
X97801723Y-55336779D02*
X97611247Y-55289160D01*
X97611247Y-55289160D02*
X97468390Y-55289160D01*
X97468390Y-55289160D02*
X97277914Y-55336779D01*
X97277914Y-55336779D02*
X97182676Y-55384398D01*
X97182676Y-55384398D02*
X97087438Y-55479636D01*
X97087438Y-55479636D02*
X97039819Y-55622493D01*
X97039819Y-55622493D02*
X97039819Y-55717731D01*
X97039819Y-55717731D02*
X97087438Y-55860588D01*
X97087438Y-55860588D02*
X97135057Y-55908207D01*
X98039819Y-56860588D02*
X98039819Y-56289160D01*
X98039819Y-56574874D02*
X97039819Y-56574874D01*
X97039819Y-56574874D02*
X97182676Y-56479636D01*
X97182676Y-56479636D02*
X97277914Y-56384398D01*
X97277914Y-56384398D02*
X97325533Y-56289160D01*
X97944580Y-57289160D02*
X97992200Y-57336779D01*
X97992200Y-57336779D02*
X98039819Y-57289160D01*
X98039819Y-57289160D02*
X97992200Y-57241541D01*
X97992200Y-57241541D02*
X97944580Y-57289160D01*
X97944580Y-57289160D02*
X98039819Y-57289160D01*
X97420771Y-57289160D02*
X97468390Y-57336779D01*
X97468390Y-57336779D02*
X97516009Y-57289160D01*
X97516009Y-57289160D02*
X97468390Y-57241541D01*
X97468390Y-57241541D02*
X97420771Y-57289160D01*
X97420771Y-57289160D02*
X97516009Y-57289160D01*
X97039819Y-58717731D02*
X97039819Y-58812969D01*
X97039819Y-58812969D02*
X97087438Y-58908207D01*
X97087438Y-58908207D02*
X97135057Y-58955826D01*
X97135057Y-58955826D02*
X97230295Y-59003445D01*
X97230295Y-59003445D02*
X97420771Y-59051064D01*
X97420771Y-59051064D02*
X97658866Y-59051064D01*
X97658866Y-59051064D02*
X97849342Y-59003445D01*
X97849342Y-59003445D02*
X97944580Y-58955826D01*
X97944580Y-58955826D02*
X97992200Y-58908207D01*
X97992200Y-58908207D02*
X98039819Y-58812969D01*
X98039819Y-58812969D02*
X98039819Y-58717731D01*
X98039819Y-58717731D02*
X97992200Y-58622493D01*
X97992200Y-58622493D02*
X97944580Y-58574874D01*
X97944580Y-58574874D02*
X97849342Y-58527255D01*
X97849342Y-58527255D02*
X97658866Y-58479636D01*
X97658866Y-58479636D02*
X97420771Y-58479636D01*
X97420771Y-58479636D02*
X97230295Y-58527255D01*
X97230295Y-58527255D02*
X97135057Y-58574874D01*
X97135057Y-58574874D02*
X97087438Y-58622493D01*
X97087438Y-58622493D02*
X97039819Y-58717731D01*
X97944580Y-59479636D02*
X97992200Y-59527255D01*
X97992200Y-59527255D02*
X98039819Y-59479636D01*
X98039819Y-59479636D02*
X97992200Y-59432017D01*
X97992200Y-59432017D02*
X97944580Y-59479636D01*
X97944580Y-59479636D02*
X98039819Y-59479636D01*
X97039819Y-60146302D02*
X97039819Y-60241540D01*
X97039819Y-60241540D02*
X97087438Y-60336778D01*
X97087438Y-60336778D02*
X97135057Y-60384397D01*
X97135057Y-60384397D02*
X97230295Y-60432016D01*
X97230295Y-60432016D02*
X97420771Y-60479635D01*
X97420771Y-60479635D02*
X97658866Y-60479635D01*
X97658866Y-60479635D02*
X97849342Y-60432016D01*
X97849342Y-60432016D02*
X97944580Y-60384397D01*
X97944580Y-60384397D02*
X97992200Y-60336778D01*
X97992200Y-60336778D02*
X98039819Y-60241540D01*
X98039819Y-60241540D02*
X98039819Y-60146302D01*
X98039819Y-60146302D02*
X97992200Y-60051064D01*
X97992200Y-60051064D02*
X97944580Y-60003445D01*
X97944580Y-60003445D02*
X97849342Y-59955826D01*
X97849342Y-59955826D02*
X97658866Y-59908207D01*
X97658866Y-59908207D02*
X97420771Y-59908207D01*
X97420771Y-59908207D02*
X97230295Y-59955826D01*
X97230295Y-59955826D02*
X97135057Y-60003445D01*
X97135057Y-60003445D02*
X97087438Y-60051064D01*
X97087438Y-60051064D02*
X97039819Y-60146302D01*
X97039819Y-61098683D02*
X97039819Y-61193921D01*
X97039819Y-61193921D02*
X97087438Y-61289159D01*
X97087438Y-61289159D02*
X97135057Y-61336778D01*
X97135057Y-61336778D02*
X97230295Y-61384397D01*
X97230295Y-61384397D02*
X97420771Y-61432016D01*
X97420771Y-61432016D02*
X97658866Y-61432016D01*
X97658866Y-61432016D02*
X97849342Y-61384397D01*
X97849342Y-61384397D02*
X97944580Y-61336778D01*
X97944580Y-61336778D02*
X97992200Y-61289159D01*
X97992200Y-61289159D02*
X98039819Y-61193921D01*
X98039819Y-61193921D02*
X98039819Y-61098683D01*
X98039819Y-61098683D02*
X97992200Y-61003445D01*
X97992200Y-61003445D02*
X97944580Y-60955826D01*
X97944580Y-60955826D02*
X97849342Y-60908207D01*
X97849342Y-60908207D02*
X97658866Y-60860588D01*
X97658866Y-60860588D02*
X97420771Y-60860588D01*
X97420771Y-60860588D02*
X97230295Y-60908207D01*
X97230295Y-60908207D02*
X97135057Y-60955826D01*
X97135057Y-60955826D02*
X97087438Y-61003445D01*
X97087438Y-61003445D02*
X97039819Y-61098683D01*
X98039819Y-62384397D02*
X98039819Y-61812969D01*
X98039819Y-62098683D02*
X97039819Y-62098683D01*
X97039819Y-62098683D02*
X97182676Y-62003445D01*
X97182676Y-62003445D02*
X97277914Y-61908207D01*
X97277914Y-61908207D02*
X97325533Y-61812969D01*
X97373152Y-63241540D02*
X98039819Y-63241540D01*
X97373152Y-62812969D02*
X97896961Y-62812969D01*
X97896961Y-62812969D02*
X97992200Y-62860588D01*
X97992200Y-62860588D02*
X98039819Y-62955826D01*
X98039819Y-62955826D02*
X98039819Y-63098683D01*
X98039819Y-63098683D02*
X97992200Y-63193921D01*
X97992200Y-63193921D02*
X97944580Y-63241540D01*
X97516009Y-64051064D02*
X97516009Y-63717731D01*
X98039819Y-63717731D02*
X97039819Y-63717731D01*
X97039819Y-63717731D02*
X97039819Y-64193921D01*
X99554580Y-55908207D02*
X99602200Y-55860588D01*
X99602200Y-55860588D02*
X99649819Y-55717731D01*
X99649819Y-55717731D02*
X99649819Y-55622493D01*
X99649819Y-55622493D02*
X99602200Y-55479636D01*
X99602200Y-55479636D02*
X99506961Y-55384398D01*
X99506961Y-55384398D02*
X99411723Y-55336779D01*
X99411723Y-55336779D02*
X99221247Y-55289160D01*
X99221247Y-55289160D02*
X99078390Y-55289160D01*
X99078390Y-55289160D02*
X98887914Y-55336779D01*
X98887914Y-55336779D02*
X98792676Y-55384398D01*
X98792676Y-55384398D02*
X98697438Y-55479636D01*
X98697438Y-55479636D02*
X98649819Y-55622493D01*
X98649819Y-55622493D02*
X98649819Y-55717731D01*
X98649819Y-55717731D02*
X98697438Y-55860588D01*
X98697438Y-55860588D02*
X98745057Y-55908207D01*
X98745057Y-56289160D02*
X98697438Y-56336779D01*
X98697438Y-56336779D02*
X98649819Y-56432017D01*
X98649819Y-56432017D02*
X98649819Y-56670112D01*
X98649819Y-56670112D02*
X98697438Y-56765350D01*
X98697438Y-56765350D02*
X98745057Y-56812969D01*
X98745057Y-56812969D02*
X98840295Y-56860588D01*
X98840295Y-56860588D02*
X98935533Y-56860588D01*
X98935533Y-56860588D02*
X99078390Y-56812969D01*
X99078390Y-56812969D02*
X99649819Y-56241541D01*
X99649819Y-56241541D02*
X99649819Y-56860588D01*
X99554580Y-57289160D02*
X99602200Y-57336779D01*
X99602200Y-57336779D02*
X99649819Y-57289160D01*
X99649819Y-57289160D02*
X99602200Y-57241541D01*
X99602200Y-57241541D02*
X99554580Y-57289160D01*
X99554580Y-57289160D02*
X99649819Y-57289160D01*
X99030771Y-57289160D02*
X99078390Y-57336779D01*
X99078390Y-57336779D02*
X99126009Y-57289160D01*
X99126009Y-57289160D02*
X99078390Y-57241541D01*
X99078390Y-57241541D02*
X99030771Y-57289160D01*
X99030771Y-57289160D02*
X99126009Y-57289160D01*
X98649819Y-58717731D02*
X98649819Y-58812969D01*
X98649819Y-58812969D02*
X98697438Y-58908207D01*
X98697438Y-58908207D02*
X98745057Y-58955826D01*
X98745057Y-58955826D02*
X98840295Y-59003445D01*
X98840295Y-59003445D02*
X99030771Y-59051064D01*
X99030771Y-59051064D02*
X99268866Y-59051064D01*
X99268866Y-59051064D02*
X99459342Y-59003445D01*
X99459342Y-59003445D02*
X99554580Y-58955826D01*
X99554580Y-58955826D02*
X99602200Y-58908207D01*
X99602200Y-58908207D02*
X99649819Y-58812969D01*
X99649819Y-58812969D02*
X99649819Y-58717731D01*
X99649819Y-58717731D02*
X99602200Y-58622493D01*
X99602200Y-58622493D02*
X99554580Y-58574874D01*
X99554580Y-58574874D02*
X99459342Y-58527255D01*
X99459342Y-58527255D02*
X99268866Y-58479636D01*
X99268866Y-58479636D02*
X99030771Y-58479636D01*
X99030771Y-58479636D02*
X98840295Y-58527255D01*
X98840295Y-58527255D02*
X98745057Y-58574874D01*
X98745057Y-58574874D02*
X98697438Y-58622493D01*
X98697438Y-58622493D02*
X98649819Y-58717731D01*
X99554580Y-59479636D02*
X99602200Y-59527255D01*
X99602200Y-59527255D02*
X99649819Y-59479636D01*
X99649819Y-59479636D02*
X99602200Y-59432017D01*
X99602200Y-59432017D02*
X99554580Y-59479636D01*
X99554580Y-59479636D02*
X99649819Y-59479636D01*
X98649819Y-60146302D02*
X98649819Y-60241540D01*
X98649819Y-60241540D02*
X98697438Y-60336778D01*
X98697438Y-60336778D02*
X98745057Y-60384397D01*
X98745057Y-60384397D02*
X98840295Y-60432016D01*
X98840295Y-60432016D02*
X99030771Y-60479635D01*
X99030771Y-60479635D02*
X99268866Y-60479635D01*
X99268866Y-60479635D02*
X99459342Y-60432016D01*
X99459342Y-60432016D02*
X99554580Y-60384397D01*
X99554580Y-60384397D02*
X99602200Y-60336778D01*
X99602200Y-60336778D02*
X99649819Y-60241540D01*
X99649819Y-60241540D02*
X99649819Y-60146302D01*
X99649819Y-60146302D02*
X99602200Y-60051064D01*
X99602200Y-60051064D02*
X99554580Y-60003445D01*
X99554580Y-60003445D02*
X99459342Y-59955826D01*
X99459342Y-59955826D02*
X99268866Y-59908207D01*
X99268866Y-59908207D02*
X99030771Y-59908207D01*
X99030771Y-59908207D02*
X98840295Y-59955826D01*
X98840295Y-59955826D02*
X98745057Y-60003445D01*
X98745057Y-60003445D02*
X98697438Y-60051064D01*
X98697438Y-60051064D02*
X98649819Y-60146302D01*
X99649819Y-61432016D02*
X99649819Y-60860588D01*
X99649819Y-61146302D02*
X98649819Y-61146302D01*
X98649819Y-61146302D02*
X98792676Y-61051064D01*
X98792676Y-61051064D02*
X98887914Y-60955826D01*
X98887914Y-60955826D02*
X98935533Y-60860588D01*
X98983152Y-62289159D02*
X99649819Y-62289159D01*
X98983152Y-61860588D02*
X99506961Y-61860588D01*
X99506961Y-61860588D02*
X99602200Y-61908207D01*
X99602200Y-61908207D02*
X99649819Y-62003445D01*
X99649819Y-62003445D02*
X99649819Y-62146302D01*
X99649819Y-62146302D02*
X99602200Y-62241540D01*
X99602200Y-62241540D02*
X99554580Y-62289159D01*
X99126009Y-63098683D02*
X99126009Y-62765350D01*
X99649819Y-62765350D02*
X98649819Y-62765350D01*
X98649819Y-62765350D02*
X98649819Y-63241540D01*
X101164580Y-55908207D02*
X101212200Y-55860588D01*
X101212200Y-55860588D02*
X101259819Y-55717731D01*
X101259819Y-55717731D02*
X101259819Y-55622493D01*
X101259819Y-55622493D02*
X101212200Y-55479636D01*
X101212200Y-55479636D02*
X101116961Y-55384398D01*
X101116961Y-55384398D02*
X101021723Y-55336779D01*
X101021723Y-55336779D02*
X100831247Y-55289160D01*
X100831247Y-55289160D02*
X100688390Y-55289160D01*
X100688390Y-55289160D02*
X100497914Y-55336779D01*
X100497914Y-55336779D02*
X100402676Y-55384398D01*
X100402676Y-55384398D02*
X100307438Y-55479636D01*
X100307438Y-55479636D02*
X100259819Y-55622493D01*
X100259819Y-55622493D02*
X100259819Y-55717731D01*
X100259819Y-55717731D02*
X100307438Y-55860588D01*
X100307438Y-55860588D02*
X100355057Y-55908207D01*
X100259819Y-56241541D02*
X100259819Y-56860588D01*
X100259819Y-56860588D02*
X100640771Y-56527255D01*
X100640771Y-56527255D02*
X100640771Y-56670112D01*
X100640771Y-56670112D02*
X100688390Y-56765350D01*
X100688390Y-56765350D02*
X100736009Y-56812969D01*
X100736009Y-56812969D02*
X100831247Y-56860588D01*
X100831247Y-56860588D02*
X101069342Y-56860588D01*
X101069342Y-56860588D02*
X101164580Y-56812969D01*
X101164580Y-56812969D02*
X101212200Y-56765350D01*
X101212200Y-56765350D02*
X101259819Y-56670112D01*
X101259819Y-56670112D02*
X101259819Y-56384398D01*
X101259819Y-56384398D02*
X101212200Y-56289160D01*
X101212200Y-56289160D02*
X101164580Y-56241541D01*
X101164580Y-57289160D02*
X101212200Y-57336779D01*
X101212200Y-57336779D02*
X101259819Y-57289160D01*
X101259819Y-57289160D02*
X101212200Y-57241541D01*
X101212200Y-57241541D02*
X101164580Y-57289160D01*
X101164580Y-57289160D02*
X101259819Y-57289160D01*
X100640771Y-57289160D02*
X100688390Y-57336779D01*
X100688390Y-57336779D02*
X100736009Y-57289160D01*
X100736009Y-57289160D02*
X100688390Y-57241541D01*
X100688390Y-57241541D02*
X100640771Y-57289160D01*
X100640771Y-57289160D02*
X100736009Y-57289160D01*
X100259819Y-58717731D02*
X100259819Y-58812969D01*
X100259819Y-58812969D02*
X100307438Y-58908207D01*
X100307438Y-58908207D02*
X100355057Y-58955826D01*
X100355057Y-58955826D02*
X100450295Y-59003445D01*
X100450295Y-59003445D02*
X100640771Y-59051064D01*
X100640771Y-59051064D02*
X100878866Y-59051064D01*
X100878866Y-59051064D02*
X101069342Y-59003445D01*
X101069342Y-59003445D02*
X101164580Y-58955826D01*
X101164580Y-58955826D02*
X101212200Y-58908207D01*
X101212200Y-58908207D02*
X101259819Y-58812969D01*
X101259819Y-58812969D02*
X101259819Y-58717731D01*
X101259819Y-58717731D02*
X101212200Y-58622493D01*
X101212200Y-58622493D02*
X101164580Y-58574874D01*
X101164580Y-58574874D02*
X101069342Y-58527255D01*
X101069342Y-58527255D02*
X100878866Y-58479636D01*
X100878866Y-58479636D02*
X100640771Y-58479636D01*
X100640771Y-58479636D02*
X100450295Y-58527255D01*
X100450295Y-58527255D02*
X100355057Y-58574874D01*
X100355057Y-58574874D02*
X100307438Y-58622493D01*
X100307438Y-58622493D02*
X100259819Y-58717731D01*
X101164580Y-59479636D02*
X101212200Y-59527255D01*
X101212200Y-59527255D02*
X101259819Y-59479636D01*
X101259819Y-59479636D02*
X101212200Y-59432017D01*
X101212200Y-59432017D02*
X101164580Y-59479636D01*
X101164580Y-59479636D02*
X101259819Y-59479636D01*
X101259819Y-60479635D02*
X101259819Y-59908207D01*
X101259819Y-60193921D02*
X100259819Y-60193921D01*
X100259819Y-60193921D02*
X100402676Y-60098683D01*
X100402676Y-60098683D02*
X100497914Y-60003445D01*
X100497914Y-60003445D02*
X100545533Y-59908207D01*
X100593152Y-61336778D02*
X101259819Y-61336778D01*
X100593152Y-60908207D02*
X101116961Y-60908207D01*
X101116961Y-60908207D02*
X101212200Y-60955826D01*
X101212200Y-60955826D02*
X101259819Y-61051064D01*
X101259819Y-61051064D02*
X101259819Y-61193921D01*
X101259819Y-61193921D02*
X101212200Y-61289159D01*
X101212200Y-61289159D02*
X101164580Y-61336778D01*
X100736009Y-62146302D02*
X100736009Y-61812969D01*
X101259819Y-61812969D02*
X100259819Y-61812969D01*
X100259819Y-61812969D02*
X100259819Y-62289159D01*
X102774580Y-55908207D02*
X102822200Y-55860588D01*
X102822200Y-55860588D02*
X102869819Y-55717731D01*
X102869819Y-55717731D02*
X102869819Y-55622493D01*
X102869819Y-55622493D02*
X102822200Y-55479636D01*
X102822200Y-55479636D02*
X102726961Y-55384398D01*
X102726961Y-55384398D02*
X102631723Y-55336779D01*
X102631723Y-55336779D02*
X102441247Y-55289160D01*
X102441247Y-55289160D02*
X102298390Y-55289160D01*
X102298390Y-55289160D02*
X102107914Y-55336779D01*
X102107914Y-55336779D02*
X102012676Y-55384398D01*
X102012676Y-55384398D02*
X101917438Y-55479636D01*
X101917438Y-55479636D02*
X101869819Y-55622493D01*
X101869819Y-55622493D02*
X101869819Y-55717731D01*
X101869819Y-55717731D02*
X101917438Y-55860588D01*
X101917438Y-55860588D02*
X101965057Y-55908207D01*
X102203152Y-56765350D02*
X102869819Y-56765350D01*
X101822200Y-56527255D02*
X102536485Y-56289160D01*
X102536485Y-56289160D02*
X102536485Y-56908207D01*
X102774580Y-57289160D02*
X102822200Y-57336779D01*
X102822200Y-57336779D02*
X102869819Y-57289160D01*
X102869819Y-57289160D02*
X102822200Y-57241541D01*
X102822200Y-57241541D02*
X102774580Y-57289160D01*
X102774580Y-57289160D02*
X102869819Y-57289160D01*
X102250771Y-57289160D02*
X102298390Y-57336779D01*
X102298390Y-57336779D02*
X102346009Y-57289160D01*
X102346009Y-57289160D02*
X102298390Y-57241541D01*
X102298390Y-57241541D02*
X102250771Y-57289160D01*
X102250771Y-57289160D02*
X102346009Y-57289160D01*
X102869819Y-59051064D02*
X102869819Y-58479636D01*
X102869819Y-58765350D02*
X101869819Y-58765350D01*
X101869819Y-58765350D02*
X102012676Y-58670112D01*
X102012676Y-58670112D02*
X102107914Y-58574874D01*
X102107914Y-58574874D02*
X102155533Y-58479636D01*
X102203152Y-59908207D02*
X102869819Y-59908207D01*
X102203152Y-59479636D02*
X102726961Y-59479636D01*
X102726961Y-59479636D02*
X102822200Y-59527255D01*
X102822200Y-59527255D02*
X102869819Y-59622493D01*
X102869819Y-59622493D02*
X102869819Y-59765350D01*
X102869819Y-59765350D02*
X102822200Y-59860588D01*
X102822200Y-59860588D02*
X102774580Y-59908207D01*
X102346009Y-60717731D02*
X102346009Y-60384398D01*
X102869819Y-60384398D02*
X101869819Y-60384398D01*
X101869819Y-60384398D02*
X101869819Y-60860588D01*
X98039819Y-44408207D02*
X97563628Y-44074874D01*
X98039819Y-43836779D02*
X97039819Y-43836779D01*
X97039819Y-43836779D02*
X97039819Y-44217731D01*
X97039819Y-44217731D02*
X97087438Y-44312969D01*
X97087438Y-44312969D02*
X97135057Y-44360588D01*
X97135057Y-44360588D02*
X97230295Y-44408207D01*
X97230295Y-44408207D02*
X97373152Y-44408207D01*
X97373152Y-44408207D02*
X97468390Y-44360588D01*
X97468390Y-44360588D02*
X97516009Y-44312969D01*
X97516009Y-44312969D02*
X97563628Y-44217731D01*
X97563628Y-44217731D02*
X97563628Y-43836779D01*
X98039819Y-45360588D02*
X98039819Y-44789160D01*
X98039819Y-45074874D02*
X97039819Y-45074874D01*
X97039819Y-45074874D02*
X97182676Y-44979636D01*
X97182676Y-44979636D02*
X97277914Y-44884398D01*
X97277914Y-44884398D02*
X97325533Y-44789160D01*
X97658866Y-45789160D02*
X97658866Y-46551065D01*
X97468390Y-47170112D02*
X97420771Y-47074874D01*
X97420771Y-47074874D02*
X97373152Y-47027255D01*
X97373152Y-47027255D02*
X97277914Y-46979636D01*
X97277914Y-46979636D02*
X97230295Y-46979636D01*
X97230295Y-46979636D02*
X97135057Y-47027255D01*
X97135057Y-47027255D02*
X97087438Y-47074874D01*
X97087438Y-47074874D02*
X97039819Y-47170112D01*
X97039819Y-47170112D02*
X97039819Y-47360588D01*
X97039819Y-47360588D02*
X97087438Y-47455826D01*
X97087438Y-47455826D02*
X97135057Y-47503445D01*
X97135057Y-47503445D02*
X97230295Y-47551064D01*
X97230295Y-47551064D02*
X97277914Y-47551064D01*
X97277914Y-47551064D02*
X97373152Y-47503445D01*
X97373152Y-47503445D02*
X97420771Y-47455826D01*
X97420771Y-47455826D02*
X97468390Y-47360588D01*
X97468390Y-47360588D02*
X97468390Y-47170112D01*
X97468390Y-47170112D02*
X97516009Y-47074874D01*
X97516009Y-47074874D02*
X97563628Y-47027255D01*
X97563628Y-47027255D02*
X97658866Y-46979636D01*
X97658866Y-46979636D02*
X97849342Y-46979636D01*
X97849342Y-46979636D02*
X97944580Y-47027255D01*
X97944580Y-47027255D02*
X97992200Y-47074874D01*
X97992200Y-47074874D02*
X98039819Y-47170112D01*
X98039819Y-47170112D02*
X98039819Y-47360588D01*
X98039819Y-47360588D02*
X97992200Y-47455826D01*
X97992200Y-47455826D02*
X97944580Y-47503445D01*
X97944580Y-47503445D02*
X97849342Y-47551064D01*
X97849342Y-47551064D02*
X97658866Y-47551064D01*
X97658866Y-47551064D02*
X97563628Y-47503445D01*
X97563628Y-47503445D02*
X97516009Y-47455826D01*
X97516009Y-47455826D02*
X97468390Y-47360588D01*
X97944580Y-47979636D02*
X97992200Y-48027255D01*
X97992200Y-48027255D02*
X98039819Y-47979636D01*
X98039819Y-47979636D02*
X97992200Y-47932017D01*
X97992200Y-47932017D02*
X97944580Y-47979636D01*
X97944580Y-47979636D02*
X98039819Y-47979636D01*
X97420771Y-47979636D02*
X97468390Y-48027255D01*
X97468390Y-48027255D02*
X97516009Y-47979636D01*
X97516009Y-47979636D02*
X97468390Y-47932017D01*
X97468390Y-47932017D02*
X97420771Y-47979636D01*
X97420771Y-47979636D02*
X97516009Y-47979636D01*
X97135057Y-49170112D02*
X97087438Y-49217731D01*
X97087438Y-49217731D02*
X97039819Y-49312969D01*
X97039819Y-49312969D02*
X97039819Y-49551064D01*
X97039819Y-49551064D02*
X97087438Y-49646302D01*
X97087438Y-49646302D02*
X97135057Y-49693921D01*
X97135057Y-49693921D02*
X97230295Y-49741540D01*
X97230295Y-49741540D02*
X97325533Y-49741540D01*
X97325533Y-49741540D02*
X97468390Y-49693921D01*
X97468390Y-49693921D02*
X98039819Y-49122493D01*
X98039819Y-49122493D02*
X98039819Y-49741540D01*
X97039819Y-50360588D02*
X97039819Y-50455826D01*
X97039819Y-50455826D02*
X97087438Y-50551064D01*
X97087438Y-50551064D02*
X97135057Y-50598683D01*
X97135057Y-50598683D02*
X97230295Y-50646302D01*
X97230295Y-50646302D02*
X97420771Y-50693921D01*
X97420771Y-50693921D02*
X97658866Y-50693921D01*
X97658866Y-50693921D02*
X97849342Y-50646302D01*
X97849342Y-50646302D02*
X97944580Y-50598683D01*
X97944580Y-50598683D02*
X97992200Y-50551064D01*
X97992200Y-50551064D02*
X98039819Y-50455826D01*
X98039819Y-50455826D02*
X98039819Y-50360588D01*
X98039819Y-50360588D02*
X97992200Y-50265350D01*
X97992200Y-50265350D02*
X97944580Y-50217731D01*
X97944580Y-50217731D02*
X97849342Y-50170112D01*
X97849342Y-50170112D02*
X97658866Y-50122493D01*
X97658866Y-50122493D02*
X97420771Y-50122493D01*
X97420771Y-50122493D02*
X97230295Y-50170112D01*
X97230295Y-50170112D02*
X97135057Y-50217731D01*
X97135057Y-50217731D02*
X97087438Y-50265350D01*
X97087438Y-50265350D02*
X97039819Y-50360588D01*
X97039819Y-51312969D02*
X97039819Y-51408207D01*
X97039819Y-51408207D02*
X97087438Y-51503445D01*
X97087438Y-51503445D02*
X97135057Y-51551064D01*
X97135057Y-51551064D02*
X97230295Y-51598683D01*
X97230295Y-51598683D02*
X97420771Y-51646302D01*
X97420771Y-51646302D02*
X97658866Y-51646302D01*
X97658866Y-51646302D02*
X97849342Y-51598683D01*
X97849342Y-51598683D02*
X97944580Y-51551064D01*
X97944580Y-51551064D02*
X97992200Y-51503445D01*
X97992200Y-51503445D02*
X98039819Y-51408207D01*
X98039819Y-51408207D02*
X98039819Y-51312969D01*
X98039819Y-51312969D02*
X97992200Y-51217731D01*
X97992200Y-51217731D02*
X97944580Y-51170112D01*
X97944580Y-51170112D02*
X97849342Y-51122493D01*
X97849342Y-51122493D02*
X97658866Y-51074874D01*
X97658866Y-51074874D02*
X97420771Y-51074874D01*
X97420771Y-51074874D02*
X97230295Y-51122493D01*
X97230295Y-51122493D02*
X97135057Y-51170112D01*
X97135057Y-51170112D02*
X97087438Y-51217731D01*
X97087438Y-51217731D02*
X97039819Y-51312969D01*
X98039819Y-52074874D02*
X97039819Y-52074874D01*
X98039819Y-52646302D02*
X97468390Y-52217731D01*
X97039819Y-52646302D02*
X97611247Y-52074874D01*
X99649819Y-44408207D02*
X99173628Y-44074874D01*
X99649819Y-43836779D02*
X98649819Y-43836779D01*
X98649819Y-43836779D02*
X98649819Y-44217731D01*
X98649819Y-44217731D02*
X98697438Y-44312969D01*
X98697438Y-44312969D02*
X98745057Y-44360588D01*
X98745057Y-44360588D02*
X98840295Y-44408207D01*
X98840295Y-44408207D02*
X98983152Y-44408207D01*
X98983152Y-44408207D02*
X99078390Y-44360588D01*
X99078390Y-44360588D02*
X99126009Y-44312969D01*
X99126009Y-44312969D02*
X99173628Y-44217731D01*
X99173628Y-44217731D02*
X99173628Y-43836779D01*
X99649819Y-44884398D02*
X99649819Y-45074874D01*
X99649819Y-45074874D02*
X99602200Y-45170112D01*
X99602200Y-45170112D02*
X99554580Y-45217731D01*
X99554580Y-45217731D02*
X99411723Y-45312969D01*
X99411723Y-45312969D02*
X99221247Y-45360588D01*
X99221247Y-45360588D02*
X98840295Y-45360588D01*
X98840295Y-45360588D02*
X98745057Y-45312969D01*
X98745057Y-45312969D02*
X98697438Y-45265350D01*
X98697438Y-45265350D02*
X98649819Y-45170112D01*
X98649819Y-45170112D02*
X98649819Y-44979636D01*
X98649819Y-44979636D02*
X98697438Y-44884398D01*
X98697438Y-44884398D02*
X98745057Y-44836779D01*
X98745057Y-44836779D02*
X98840295Y-44789160D01*
X98840295Y-44789160D02*
X99078390Y-44789160D01*
X99078390Y-44789160D02*
X99173628Y-44836779D01*
X99173628Y-44836779D02*
X99221247Y-44884398D01*
X99221247Y-44884398D02*
X99268866Y-44979636D01*
X99268866Y-44979636D02*
X99268866Y-45170112D01*
X99268866Y-45170112D02*
X99221247Y-45265350D01*
X99221247Y-45265350D02*
X99173628Y-45312969D01*
X99173628Y-45312969D02*
X99078390Y-45360588D01*
X99268866Y-45789160D02*
X99268866Y-46551065D01*
X99649819Y-47551064D02*
X99649819Y-46979636D01*
X99649819Y-47265350D02*
X98649819Y-47265350D01*
X98649819Y-47265350D02*
X98792676Y-47170112D01*
X98792676Y-47170112D02*
X98887914Y-47074874D01*
X98887914Y-47074874D02*
X98935533Y-46979636D01*
X98649819Y-48455826D02*
X98649819Y-47979636D01*
X98649819Y-47979636D02*
X99126009Y-47932017D01*
X99126009Y-47932017D02*
X99078390Y-47979636D01*
X99078390Y-47979636D02*
X99030771Y-48074874D01*
X99030771Y-48074874D02*
X99030771Y-48312969D01*
X99030771Y-48312969D02*
X99078390Y-48408207D01*
X99078390Y-48408207D02*
X99126009Y-48455826D01*
X99126009Y-48455826D02*
X99221247Y-48503445D01*
X99221247Y-48503445D02*
X99459342Y-48503445D01*
X99459342Y-48503445D02*
X99554580Y-48455826D01*
X99554580Y-48455826D02*
X99602200Y-48408207D01*
X99602200Y-48408207D02*
X99649819Y-48312969D01*
X99649819Y-48312969D02*
X99649819Y-48074874D01*
X99649819Y-48074874D02*
X99602200Y-47979636D01*
X99602200Y-47979636D02*
X99554580Y-47932017D01*
X99554580Y-48932017D02*
X99602200Y-48979636D01*
X99602200Y-48979636D02*
X99649819Y-48932017D01*
X99649819Y-48932017D02*
X99602200Y-48884398D01*
X99602200Y-48884398D02*
X99554580Y-48932017D01*
X99554580Y-48932017D02*
X99649819Y-48932017D01*
X99030771Y-48932017D02*
X99078390Y-48979636D01*
X99078390Y-48979636D02*
X99126009Y-48932017D01*
X99126009Y-48932017D02*
X99078390Y-48884398D01*
X99078390Y-48884398D02*
X99030771Y-48932017D01*
X99030771Y-48932017D02*
X99126009Y-48932017D01*
X99649819Y-50693921D02*
X99649819Y-50122493D01*
X99649819Y-50408207D02*
X98649819Y-50408207D01*
X98649819Y-50408207D02*
X98792676Y-50312969D01*
X98792676Y-50312969D02*
X98887914Y-50217731D01*
X98887914Y-50217731D02*
X98935533Y-50122493D01*
X98649819Y-51312969D02*
X98649819Y-51408207D01*
X98649819Y-51408207D02*
X98697438Y-51503445D01*
X98697438Y-51503445D02*
X98745057Y-51551064D01*
X98745057Y-51551064D02*
X98840295Y-51598683D01*
X98840295Y-51598683D02*
X99030771Y-51646302D01*
X99030771Y-51646302D02*
X99268866Y-51646302D01*
X99268866Y-51646302D02*
X99459342Y-51598683D01*
X99459342Y-51598683D02*
X99554580Y-51551064D01*
X99554580Y-51551064D02*
X99602200Y-51503445D01*
X99602200Y-51503445D02*
X99649819Y-51408207D01*
X99649819Y-51408207D02*
X99649819Y-51312969D01*
X99649819Y-51312969D02*
X99602200Y-51217731D01*
X99602200Y-51217731D02*
X99554580Y-51170112D01*
X99554580Y-51170112D02*
X99459342Y-51122493D01*
X99459342Y-51122493D02*
X99268866Y-51074874D01*
X99268866Y-51074874D02*
X99030771Y-51074874D01*
X99030771Y-51074874D02*
X98840295Y-51122493D01*
X98840295Y-51122493D02*
X98745057Y-51170112D01*
X98745057Y-51170112D02*
X98697438Y-51217731D01*
X98697438Y-51217731D02*
X98649819Y-51312969D01*
X98649819Y-52265350D02*
X98649819Y-52360588D01*
X98649819Y-52360588D02*
X98697438Y-52455826D01*
X98697438Y-52455826D02*
X98745057Y-52503445D01*
X98745057Y-52503445D02*
X98840295Y-52551064D01*
X98840295Y-52551064D02*
X99030771Y-52598683D01*
X99030771Y-52598683D02*
X99268866Y-52598683D01*
X99268866Y-52598683D02*
X99459342Y-52551064D01*
X99459342Y-52551064D02*
X99554580Y-52503445D01*
X99554580Y-52503445D02*
X99602200Y-52455826D01*
X99602200Y-52455826D02*
X99649819Y-52360588D01*
X99649819Y-52360588D02*
X99649819Y-52265350D01*
X99649819Y-52265350D02*
X99602200Y-52170112D01*
X99602200Y-52170112D02*
X99554580Y-52122493D01*
X99554580Y-52122493D02*
X99459342Y-52074874D01*
X99459342Y-52074874D02*
X99268866Y-52027255D01*
X99268866Y-52027255D02*
X99030771Y-52027255D01*
X99030771Y-52027255D02*
X98840295Y-52074874D01*
X98840295Y-52074874D02*
X98745057Y-52122493D01*
X98745057Y-52122493D02*
X98697438Y-52170112D01*
X98697438Y-52170112D02*
X98649819Y-52265350D01*
X99649819Y-53027255D02*
X98649819Y-53027255D01*
X99649819Y-53598683D02*
X99078390Y-53170112D01*
X98649819Y-53598683D02*
X99221247Y-53027255D01*
X101259819Y-44408207D02*
X100783628Y-44074874D01*
X101259819Y-43836779D02*
X100259819Y-43836779D01*
X100259819Y-43836779D02*
X100259819Y-44217731D01*
X100259819Y-44217731D02*
X100307438Y-44312969D01*
X100307438Y-44312969D02*
X100355057Y-44360588D01*
X100355057Y-44360588D02*
X100450295Y-44408207D01*
X100450295Y-44408207D02*
X100593152Y-44408207D01*
X100593152Y-44408207D02*
X100688390Y-44360588D01*
X100688390Y-44360588D02*
X100736009Y-44312969D01*
X100736009Y-44312969D02*
X100783628Y-44217731D01*
X100783628Y-44217731D02*
X100783628Y-43836779D01*
X101259819Y-45360588D02*
X101259819Y-44789160D01*
X101259819Y-45074874D02*
X100259819Y-45074874D01*
X100259819Y-45074874D02*
X100402676Y-44979636D01*
X100402676Y-44979636D02*
X100497914Y-44884398D01*
X100497914Y-44884398D02*
X100545533Y-44789160D01*
X100259819Y-46217731D02*
X100259819Y-46027255D01*
X100259819Y-46027255D02*
X100307438Y-45932017D01*
X100307438Y-45932017D02*
X100355057Y-45884398D01*
X100355057Y-45884398D02*
X100497914Y-45789160D01*
X100497914Y-45789160D02*
X100688390Y-45741541D01*
X100688390Y-45741541D02*
X101069342Y-45741541D01*
X101069342Y-45741541D02*
X101164580Y-45789160D01*
X101164580Y-45789160D02*
X101212200Y-45836779D01*
X101212200Y-45836779D02*
X101259819Y-45932017D01*
X101259819Y-45932017D02*
X101259819Y-46122493D01*
X101259819Y-46122493D02*
X101212200Y-46217731D01*
X101212200Y-46217731D02*
X101164580Y-46265350D01*
X101164580Y-46265350D02*
X101069342Y-46312969D01*
X101069342Y-46312969D02*
X100831247Y-46312969D01*
X100831247Y-46312969D02*
X100736009Y-46265350D01*
X100736009Y-46265350D02*
X100688390Y-46217731D01*
X100688390Y-46217731D02*
X100640771Y-46122493D01*
X100640771Y-46122493D02*
X100640771Y-45932017D01*
X100640771Y-45932017D02*
X100688390Y-45836779D01*
X100688390Y-45836779D02*
X100736009Y-45789160D01*
X100736009Y-45789160D02*
X100831247Y-45741541D01*
X101164580Y-46741541D02*
X101212200Y-46789160D01*
X101212200Y-46789160D02*
X101259819Y-46741541D01*
X101259819Y-46741541D02*
X101212200Y-46693922D01*
X101212200Y-46693922D02*
X101164580Y-46741541D01*
X101164580Y-46741541D02*
X101259819Y-46741541D01*
X100640771Y-46741541D02*
X100688390Y-46789160D01*
X100688390Y-46789160D02*
X100736009Y-46741541D01*
X100736009Y-46741541D02*
X100688390Y-46693922D01*
X100688390Y-46693922D02*
X100640771Y-46741541D01*
X100640771Y-46741541D02*
X100736009Y-46741541D01*
X101259819Y-47741540D02*
X101259819Y-47170112D01*
X101259819Y-47455826D02*
X100259819Y-47455826D01*
X100259819Y-47455826D02*
X100402676Y-47360588D01*
X100402676Y-47360588D02*
X100497914Y-47265350D01*
X100497914Y-47265350D02*
X100545533Y-47170112D01*
X100259819Y-48646302D02*
X100259819Y-48170112D01*
X100259819Y-48170112D02*
X100736009Y-48122493D01*
X100736009Y-48122493D02*
X100688390Y-48170112D01*
X100688390Y-48170112D02*
X100640771Y-48265350D01*
X100640771Y-48265350D02*
X100640771Y-48503445D01*
X100640771Y-48503445D02*
X100688390Y-48598683D01*
X100688390Y-48598683D02*
X100736009Y-48646302D01*
X100736009Y-48646302D02*
X100831247Y-48693921D01*
X100831247Y-48693921D02*
X101069342Y-48693921D01*
X101069342Y-48693921D02*
X101164580Y-48646302D01*
X101164580Y-48646302D02*
X101212200Y-48598683D01*
X101212200Y-48598683D02*
X101259819Y-48503445D01*
X101259819Y-48503445D02*
X101259819Y-48265350D01*
X101259819Y-48265350D02*
X101212200Y-48170112D01*
X101212200Y-48170112D02*
X101164580Y-48122493D01*
X101259819Y-49122493D02*
X100259819Y-49122493D01*
X101259819Y-49693921D02*
X100688390Y-49265350D01*
X100259819Y-49693921D02*
X100831247Y-49122493D01*
X101869819Y-44027255D02*
X101869819Y-44122493D01*
X101869819Y-44122493D02*
X101917438Y-44217731D01*
X101917438Y-44217731D02*
X101965057Y-44265350D01*
X101965057Y-44265350D02*
X102060295Y-44312969D01*
X102060295Y-44312969D02*
X102250771Y-44360588D01*
X102250771Y-44360588D02*
X102488866Y-44360588D01*
X102488866Y-44360588D02*
X102679342Y-44312969D01*
X102679342Y-44312969D02*
X102774580Y-44265350D01*
X102774580Y-44265350D02*
X102822200Y-44217731D01*
X102822200Y-44217731D02*
X102869819Y-44122493D01*
X102869819Y-44122493D02*
X102869819Y-44027255D01*
X102869819Y-44027255D02*
X102822200Y-43932017D01*
X102822200Y-43932017D02*
X102774580Y-43884398D01*
X102774580Y-43884398D02*
X102679342Y-43836779D01*
X102679342Y-43836779D02*
X102488866Y-43789160D01*
X102488866Y-43789160D02*
X102250771Y-43789160D01*
X102250771Y-43789160D02*
X102060295Y-43836779D01*
X102060295Y-43836779D02*
X101965057Y-43884398D01*
X101965057Y-43884398D02*
X101917438Y-43932017D01*
X101917438Y-43932017D02*
X101869819Y-44027255D01*
X102774580Y-44789160D02*
X102822200Y-44836779D01*
X102822200Y-44836779D02*
X102869819Y-44789160D01*
X102869819Y-44789160D02*
X102822200Y-44741541D01*
X102822200Y-44741541D02*
X102774580Y-44789160D01*
X102774580Y-44789160D02*
X102869819Y-44789160D01*
X102869819Y-45789159D02*
X102869819Y-45217731D01*
X102869819Y-45503445D02*
X101869819Y-45503445D01*
X101869819Y-45503445D02*
X102012676Y-45408207D01*
X102012676Y-45408207D02*
X102107914Y-45312969D01*
X102107914Y-45312969D02*
X102155533Y-45217731D01*
X102869819Y-46170112D02*
X101869819Y-46932016D01*
X101869819Y-46312969D02*
X101917438Y-46408207D01*
X101917438Y-46408207D02*
X102012676Y-46455826D01*
X102012676Y-46455826D02*
X102107914Y-46408207D01*
X102107914Y-46408207D02*
X102155533Y-46312969D01*
X102155533Y-46312969D02*
X102107914Y-46217731D01*
X102107914Y-46217731D02*
X102012676Y-46170112D01*
X102012676Y-46170112D02*
X101917438Y-46217731D01*
X101917438Y-46217731D02*
X101869819Y-46312969D01*
X102822200Y-46884397D02*
X102726961Y-46932016D01*
X102726961Y-46932016D02*
X102631723Y-46884397D01*
X102631723Y-46884397D02*
X102584104Y-46789159D01*
X102584104Y-46789159D02*
X102631723Y-46693921D01*
X102631723Y-46693921D02*
X102726961Y-46646302D01*
X102726961Y-46646302D02*
X102822200Y-46693921D01*
X102822200Y-46693921D02*
X102869819Y-46789159D01*
X102869819Y-46789159D02*
X102822200Y-46884397D01*
X102822200Y-47408207D02*
X102869819Y-47408207D01*
X102869819Y-47408207D02*
X102965057Y-47360588D01*
X102965057Y-47360588D02*
X103012676Y-47312969D01*
X101965057Y-48551064D02*
X101917438Y-48598683D01*
X101917438Y-48598683D02*
X101869819Y-48693921D01*
X101869819Y-48693921D02*
X101869819Y-48932016D01*
X101869819Y-48932016D02*
X101917438Y-49027254D01*
X101917438Y-49027254D02*
X101965057Y-49074873D01*
X101965057Y-49074873D02*
X102060295Y-49122492D01*
X102060295Y-49122492D02*
X102155533Y-49122492D01*
X102155533Y-49122492D02*
X102298390Y-49074873D01*
X102298390Y-49074873D02*
X102869819Y-48503445D01*
X102869819Y-48503445D02*
X102869819Y-49122492D01*
X101869819Y-50027254D02*
X101869819Y-49551064D01*
X101869819Y-49551064D02*
X102346009Y-49503445D01*
X102346009Y-49503445D02*
X102298390Y-49551064D01*
X102298390Y-49551064D02*
X102250771Y-49646302D01*
X102250771Y-49646302D02*
X102250771Y-49884397D01*
X102250771Y-49884397D02*
X102298390Y-49979635D01*
X102298390Y-49979635D02*
X102346009Y-50027254D01*
X102346009Y-50027254D02*
X102441247Y-50074873D01*
X102441247Y-50074873D02*
X102679342Y-50074873D01*
X102679342Y-50074873D02*
X102774580Y-50027254D01*
X102774580Y-50027254D02*
X102822200Y-49979635D01*
X102822200Y-49979635D02*
X102869819Y-49884397D01*
X102869819Y-49884397D02*
X102869819Y-49646302D01*
X102869819Y-49646302D02*
X102822200Y-49551064D01*
X102822200Y-49551064D02*
X102774580Y-49503445D01*
X102203152Y-50503445D02*
X103203152Y-50503445D01*
X102250771Y-50503445D02*
X102203152Y-50598683D01*
X102203152Y-50598683D02*
X102203152Y-50789159D01*
X102203152Y-50789159D02*
X102250771Y-50884397D01*
X102250771Y-50884397D02*
X102298390Y-50932016D01*
X102298390Y-50932016D02*
X102393628Y-50979635D01*
X102393628Y-50979635D02*
X102679342Y-50979635D01*
X102679342Y-50979635D02*
X102774580Y-50932016D01*
X102774580Y-50932016D02*
X102822200Y-50884397D01*
X102822200Y-50884397D02*
X102869819Y-50789159D01*
X102869819Y-50789159D02*
X102869819Y-50598683D01*
X102869819Y-50598683D02*
X102822200Y-50503445D01*
X102203152Y-51408207D02*
X103203152Y-51408207D01*
X102250771Y-51408207D02*
X102203152Y-51503445D01*
X102203152Y-51503445D02*
X102203152Y-51693921D01*
X102203152Y-51693921D02*
X102250771Y-51789159D01*
X102250771Y-51789159D02*
X102298390Y-51836778D01*
X102298390Y-51836778D02*
X102393628Y-51884397D01*
X102393628Y-51884397D02*
X102679342Y-51884397D01*
X102679342Y-51884397D02*
X102774580Y-51836778D01*
X102774580Y-51836778D02*
X102822200Y-51789159D01*
X102822200Y-51789159D02*
X102869819Y-51693921D01*
X102869819Y-51693921D02*
X102869819Y-51503445D01*
X102869819Y-51503445D02*
X102822200Y-51408207D01*
X102869819Y-52312969D02*
X102203152Y-52312969D01*
X102298390Y-52312969D02*
X102250771Y-52360588D01*
X102250771Y-52360588D02*
X102203152Y-52455826D01*
X102203152Y-52455826D02*
X102203152Y-52598683D01*
X102203152Y-52598683D02*
X102250771Y-52693921D01*
X102250771Y-52693921D02*
X102346009Y-52741540D01*
X102346009Y-52741540D02*
X102869819Y-52741540D01*
X102346009Y-52741540D02*
X102250771Y-52789159D01*
X102250771Y-52789159D02*
X102203152Y-52884397D01*
X102203152Y-52884397D02*
X102203152Y-53027254D01*
X102203152Y-53027254D02*
X102250771Y-53122493D01*
X102250771Y-53122493D02*
X102346009Y-53170112D01*
X102346009Y-53170112D02*
X102869819Y-53170112D01*
%TO.C,REF\u002A\u002A*%
D12*
X150938738Y-73899697D02*
X150920787Y-73946754D01*
X150903511Y-73981985D01*
X150881242Y-74004983D01*
X150847165Y-74018345D01*
X150794463Y-74024672D01*
X150716323Y-74026563D01*
X150605928Y-74026615D01*
X150517935Y-74026883D01*
X150433502Y-74028479D01*
X150375834Y-74032288D01*
X150337988Y-74039180D01*
X150313024Y-74050025D01*
X150294000Y-74065692D01*
X150267153Y-74104208D01*
X150257034Y-74168909D01*
X150282606Y-74232919D01*
X150285880Y-74237144D01*
X150301007Y-74250311D01*
X150325268Y-74260025D01*
X150364650Y-74267097D01*
X150425141Y-74272344D01*
X150512729Y-74276579D01*
X150633402Y-74280615D01*
X150956515Y-74290385D01*
X150882065Y-74456461D01*
X150587062Y-74456461D01*
X150506919Y-74456117D01*
X150395431Y-74453153D01*
X150312421Y-74445649D01*
X150251199Y-74431810D01*
X150205075Y-74409845D01*
X150167358Y-74377961D01*
X150131358Y-74334367D01*
X150095089Y-74271664D01*
X150071412Y-74172883D01*
X150081684Y-74073628D01*
X150124569Y-73982371D01*
X150198729Y-73907584D01*
X150221944Y-73892083D01*
X150248256Y-73879226D01*
X150281420Y-73870107D01*
X150327881Y-73863898D01*
X150394082Y-73859767D01*
X150486468Y-73856884D01*
X150611485Y-73854421D01*
X150958278Y-73848303D01*
X150938738Y-73899697D01*
G36*
X150938738Y-73899697D02*
G01*
X150920787Y-73946754D01*
X150903511Y-73981985D01*
X150881242Y-74004983D01*
X150847165Y-74018345D01*
X150794463Y-74024672D01*
X150716323Y-74026563D01*
X150605928Y-74026615D01*
X150517935Y-74026883D01*
X150433502Y-74028479D01*
X150375834Y-74032288D01*
X150337988Y-74039180D01*
X150313024Y-74050025D01*
X150294000Y-74065692D01*
X150267153Y-74104208D01*
X150257034Y-74168909D01*
X150282606Y-74232919D01*
X150285880Y-74237144D01*
X150301007Y-74250311D01*
X150325268Y-74260025D01*
X150364650Y-74267097D01*
X150425141Y-74272344D01*
X150512729Y-74276579D01*
X150633402Y-74280615D01*
X150956515Y-74290385D01*
X150882065Y-74456461D01*
X150587062Y-74456461D01*
X150506919Y-74456117D01*
X150395431Y-74453153D01*
X150312421Y-74445649D01*
X150251199Y-74431810D01*
X150205075Y-74409845D01*
X150167358Y-74377961D01*
X150131358Y-74334367D01*
X150095089Y-74271664D01*
X150071412Y-74172883D01*
X150081684Y-74073628D01*
X150124569Y-73982371D01*
X150198729Y-73907584D01*
X150221944Y-73892083D01*
X150248256Y-73879226D01*
X150281420Y-73870107D01*
X150327881Y-73863898D01*
X150394082Y-73859767D01*
X150486468Y-73856884D01*
X150611485Y-73854421D01*
X150958278Y-73848303D01*
X150938738Y-73899697D01*
G37*
X150604652Y-77037161D02*
X150708507Y-77048190D01*
X150786333Y-77072186D01*
X150845760Y-77111957D01*
X150894418Y-77170312D01*
X150922546Y-77225900D01*
X150938199Y-77319249D01*
X150921084Y-77412470D01*
X150873388Y-77496728D01*
X150797294Y-77563182D01*
X150783262Y-77571207D01*
X150758679Y-77581804D01*
X150727309Y-77589665D01*
X150683769Y-77595193D01*
X150622678Y-77598794D01*
X150538655Y-77600872D01*
X150426320Y-77601833D01*
X150280289Y-77602081D01*
X149826963Y-77602154D01*
X149853564Y-77538654D01*
X149860845Y-77521864D01*
X149877287Y-77495141D01*
X149902187Y-77479844D01*
X149945732Y-77471437D01*
X150018106Y-77465385D01*
X150083089Y-77459856D01*
X150125750Y-77452550D01*
X150141670Y-77442082D01*
X150137400Y-77426308D01*
X150122397Y-77386110D01*
X150118678Y-77314272D01*
X150122089Y-77295301D01*
X150258057Y-77295301D01*
X150262575Y-77363600D01*
X150300144Y-77422902D01*
X150315040Y-77435667D01*
X150343089Y-77451236D01*
X150382258Y-77460238D01*
X150441858Y-77464383D01*
X150531200Y-77465385D01*
X150602316Y-77464923D01*
X150666641Y-77462001D01*
X150708166Y-77454779D01*
X150736067Y-77441439D01*
X150759517Y-77420164D01*
X150764025Y-77415179D01*
X150797295Y-77351137D01*
X150793890Y-77283375D01*
X150754042Y-77220266D01*
X150733398Y-77201474D01*
X150706029Y-77185746D01*
X150668192Y-77176961D01*
X150610355Y-77173141D01*
X150522986Y-77172308D01*
X150456319Y-77172719D01*
X150391245Y-77175566D01*
X150349251Y-77182744D01*
X150321063Y-77196111D01*
X150297406Y-77217528D01*
X150286753Y-77230110D01*
X150258057Y-77295301D01*
X150122089Y-77295301D01*
X150132572Y-77236990D01*
X150162505Y-77170312D01*
X150190211Y-77133629D01*
X150244269Y-77086528D01*
X150313577Y-77056362D01*
X150405765Y-77040322D01*
X150522986Y-77035809D01*
X150528462Y-77035599D01*
X150604652Y-77037161D01*
G36*
X150604652Y-77037161D02*
G01*
X150708507Y-77048190D01*
X150786333Y-77072186D01*
X150845760Y-77111957D01*
X150894418Y-77170312D01*
X150922546Y-77225900D01*
X150938199Y-77319249D01*
X150921084Y-77412470D01*
X150873388Y-77496728D01*
X150797294Y-77563182D01*
X150783262Y-77571207D01*
X150758679Y-77581804D01*
X150727309Y-77589665D01*
X150683769Y-77595193D01*
X150622678Y-77598794D01*
X150538655Y-77600872D01*
X150426320Y-77601833D01*
X150280289Y-77602081D01*
X149826963Y-77602154D01*
X149853564Y-77538654D01*
X149860845Y-77521864D01*
X149877287Y-77495141D01*
X149902187Y-77479844D01*
X149945732Y-77471437D01*
X150018106Y-77465385D01*
X150083089Y-77459856D01*
X150125750Y-77452550D01*
X150141670Y-77442082D01*
X150137400Y-77426308D01*
X150122397Y-77386110D01*
X150118678Y-77314272D01*
X150122089Y-77295301D01*
X150258057Y-77295301D01*
X150262575Y-77363600D01*
X150300144Y-77422902D01*
X150315040Y-77435667D01*
X150343089Y-77451236D01*
X150382258Y-77460238D01*
X150441858Y-77464383D01*
X150531200Y-77465385D01*
X150602316Y-77464923D01*
X150666641Y-77462001D01*
X150708166Y-77454779D01*
X150736067Y-77441439D01*
X150759517Y-77420164D01*
X150764025Y-77415179D01*
X150797295Y-77351137D01*
X150793890Y-77283375D01*
X150754042Y-77220266D01*
X150733398Y-77201474D01*
X150706029Y-77185746D01*
X150668192Y-77176961D01*
X150610355Y-77173141D01*
X150522986Y-77172308D01*
X150456319Y-77172719D01*
X150391245Y-77175566D01*
X150349251Y-77182744D01*
X150321063Y-77196111D01*
X150297406Y-77217528D01*
X150286753Y-77230110D01*
X150258057Y-77295301D01*
X150122089Y-77295301D01*
X150132572Y-77236990D01*
X150162505Y-77170312D01*
X150190211Y-77133629D01*
X150244269Y-77086528D01*
X150313577Y-77056362D01*
X150405765Y-77040322D01*
X150522986Y-77035809D01*
X150528462Y-77035599D01*
X150604652Y-77037161D01*
G37*
X150555094Y-75023340D02*
X150679805Y-75024042D01*
X150785557Y-75025117D01*
X150867322Y-75026500D01*
X150920069Y-75028126D01*
X150938769Y-75029930D01*
X150938706Y-75030636D01*
X150931912Y-75054613D01*
X150917320Y-75098315D01*
X150895870Y-75159846D01*
X150620617Y-75159846D01*
X150512466Y-75160237D01*
X150434026Y-75162054D01*
X150380647Y-75166233D01*
X150345256Y-75173714D01*
X150320779Y-75185433D01*
X150300144Y-75202329D01*
X150289170Y-75213848D01*
X150258775Y-75276136D01*
X150261466Y-75344789D01*
X150297406Y-75407702D01*
X150306325Y-75416861D01*
X150324844Y-75431529D01*
X150349326Y-75441567D01*
X150386393Y-75447849D01*
X150442667Y-75451252D01*
X150524771Y-75452651D01*
X150639329Y-75452923D01*
X150697430Y-75453053D01*
X150792993Y-75453901D01*
X150869526Y-75455406D01*
X150920345Y-75457415D01*
X150938769Y-75459777D01*
X150938706Y-75460482D01*
X150931912Y-75484459D01*
X150917320Y-75528161D01*
X150895870Y-75589692D01*
X150619358Y-75589662D01*
X150594742Y-75589616D01*
X150466419Y-75587030D01*
X150369384Y-75579087D01*
X150297057Y-75563845D01*
X150242855Y-75539364D01*
X150200198Y-75503702D01*
X150162505Y-75454918D01*
X150138910Y-75407339D01*
X150120672Y-75331268D01*
X150119636Y-75256444D01*
X150137378Y-75198923D01*
X150139829Y-75194598D01*
X150139566Y-75181262D01*
X150119039Y-75172149D01*
X150071980Y-75165572D01*
X149992120Y-75159846D01*
X149828236Y-75150077D01*
X149881806Y-75023077D01*
X150416455Y-75023077D01*
X150555094Y-75023340D01*
G36*
X150555094Y-75023340D02*
G01*
X150679805Y-75024042D01*
X150785557Y-75025117D01*
X150867322Y-75026500D01*
X150920069Y-75028126D01*
X150938769Y-75029930D01*
X150938706Y-75030636D01*
X150931912Y-75054613D01*
X150917320Y-75098315D01*
X150895870Y-75159846D01*
X150620617Y-75159846D01*
X150512466Y-75160237D01*
X150434026Y-75162054D01*
X150380647Y-75166233D01*
X150345256Y-75173714D01*
X150320779Y-75185433D01*
X150300144Y-75202329D01*
X150289170Y-75213848D01*
X150258775Y-75276136D01*
X150261466Y-75344789D01*
X150297406Y-75407702D01*
X150306325Y-75416861D01*
X150324844Y-75431529D01*
X150349326Y-75441567D01*
X150386393Y-75447849D01*
X150442667Y-75451252D01*
X150524771Y-75452651D01*
X150639329Y-75452923D01*
X150697430Y-75453053D01*
X150792993Y-75453901D01*
X150869526Y-75455406D01*
X150920345Y-75457415D01*
X150938769Y-75459777D01*
X150938706Y-75460482D01*
X150931912Y-75484459D01*
X150917320Y-75528161D01*
X150895870Y-75589692D01*
X150619358Y-75589662D01*
X150594742Y-75589616D01*
X150466419Y-75587030D01*
X150369384Y-75579087D01*
X150297057Y-75563845D01*
X150242855Y-75539364D01*
X150200198Y-75503702D01*
X150162505Y-75454918D01*
X150138910Y-75407339D01*
X150120672Y-75331268D01*
X150119636Y-75256444D01*
X150137378Y-75198923D01*
X150139829Y-75194598D01*
X150139566Y-75181262D01*
X150119039Y-75172149D01*
X150071980Y-75165572D01*
X149992120Y-75159846D01*
X149828236Y-75150077D01*
X149881806Y-75023077D01*
X150416455Y-75023077D01*
X150555094Y-75023340D01*
G37*
X150441518Y-75769809D02*
X150414837Y-75813300D01*
X150359446Y-75847574D01*
X150348024Y-75851093D01*
X150289838Y-75888972D01*
X150258407Y-75946064D01*
X150257058Y-76011617D01*
X150289116Y-76074883D01*
X150297383Y-76084328D01*
X150333311Y-76115913D01*
X150364635Y-76121129D01*
X150395391Y-76097235D01*
X150429617Y-76041490D01*
X150471350Y-75951154D01*
X150473993Y-75945044D01*
X150520755Y-75844759D01*
X150562181Y-75776265D01*
X150603542Y-75734101D01*
X150650111Y-75712807D01*
X150707160Y-75706923D01*
X150770408Y-75714634D01*
X150851364Y-75753570D01*
X150909522Y-75822068D01*
X150926983Y-75871612D01*
X150936537Y-75941531D01*
X150934496Y-76009425D01*
X150920082Y-76057907D01*
X150916493Y-76063057D01*
X150891416Y-76076733D01*
X150847218Y-76067243D01*
X150812527Y-76050754D01*
X150798084Y-76024313D01*
X150798803Y-75974166D01*
X150794660Y-75904547D01*
X150766054Y-75859057D01*
X150713104Y-75843692D01*
X150711582Y-75843706D01*
X150680845Y-75853017D01*
X150652643Y-75884689D01*
X150620136Y-75946269D01*
X150580998Y-76030014D01*
X150559706Y-76085482D01*
X150561079Y-76117503D01*
X150589203Y-76132466D01*
X150648170Y-76136758D01*
X150742068Y-76136769D01*
X150800031Y-76137248D01*
X150871612Y-76139444D01*
X150920606Y-76143014D01*
X150938769Y-76147509D01*
X150938646Y-76148710D01*
X150928802Y-76174681D01*
X150908028Y-76217695D01*
X150877287Y-76277141D01*
X150600298Y-76270077D01*
X150581928Y-76269586D01*
X150452992Y-76263975D01*
X150355814Y-76254062D01*
X150283925Y-76237825D01*
X150230852Y-76213241D01*
X150190127Y-76178285D01*
X150155279Y-76130936D01*
X150154733Y-76130060D01*
X150126303Y-76053501D01*
X150121500Y-75964956D01*
X150139228Y-75879542D01*
X150178389Y-75812378D01*
X150208902Y-75782831D01*
X150300110Y-75726052D01*
X150399548Y-75706923D01*
X150467960Y-75706923D01*
X150441518Y-75769809D01*
G36*
X150441518Y-75769809D02*
G01*
X150414837Y-75813300D01*
X150359446Y-75847574D01*
X150348024Y-75851093D01*
X150289838Y-75888972D01*
X150258407Y-75946064D01*
X150257058Y-76011617D01*
X150289116Y-76074883D01*
X150297383Y-76084328D01*
X150333311Y-76115913D01*
X150364635Y-76121129D01*
X150395391Y-76097235D01*
X150429617Y-76041490D01*
X150471350Y-75951154D01*
X150473993Y-75945044D01*
X150520755Y-75844759D01*
X150562181Y-75776265D01*
X150603542Y-75734101D01*
X150650111Y-75712807D01*
X150707160Y-75706923D01*
X150770408Y-75714634D01*
X150851364Y-75753570D01*
X150909522Y-75822068D01*
X150926983Y-75871612D01*
X150936537Y-75941531D01*
X150934496Y-76009425D01*
X150920082Y-76057907D01*
X150916493Y-76063057D01*
X150891416Y-76076733D01*
X150847218Y-76067243D01*
X150812527Y-76050754D01*
X150798084Y-76024313D01*
X150798803Y-75974166D01*
X150794660Y-75904547D01*
X150766054Y-75859057D01*
X150713104Y-75843692D01*
X150711582Y-75843706D01*
X150680845Y-75853017D01*
X150652643Y-75884689D01*
X150620136Y-75946269D01*
X150580998Y-76030014D01*
X150559706Y-76085482D01*
X150561079Y-76117503D01*
X150589203Y-76132466D01*
X150648170Y-76136758D01*
X150742068Y-76136769D01*
X150800031Y-76137248D01*
X150871612Y-76139444D01*
X150920606Y-76143014D01*
X150938769Y-76147509D01*
X150938646Y-76148710D01*
X150928802Y-76174681D01*
X150908028Y-76217695D01*
X150877287Y-76277141D01*
X150600298Y-76270077D01*
X150581928Y-76269586D01*
X150452992Y-76263975D01*
X150355814Y-76254062D01*
X150283925Y-76237825D01*
X150230852Y-76213241D01*
X150190127Y-76178285D01*
X150155279Y-76130936D01*
X150154733Y-76130060D01*
X150126303Y-76053501D01*
X150121500Y-75964956D01*
X150139228Y-75879542D01*
X150178389Y-75812378D01*
X150208902Y-75782831D01*
X150300110Y-75726052D01*
X150399548Y-75706923D01*
X150467960Y-75706923D01*
X150441518Y-75769809D01*
G37*
X151129804Y-72349723D02*
X151184522Y-72355302D01*
X151216761Y-72365433D01*
X151230422Y-72381174D01*
X151229403Y-72403583D01*
X151217603Y-72433720D01*
X151198920Y-72472645D01*
X151194933Y-72480962D01*
X151175419Y-72515598D01*
X151152202Y-72533686D01*
X151113492Y-72540608D01*
X151047497Y-72541744D01*
X150929000Y-72541795D01*
X150929000Y-72663859D01*
X150925712Y-72738945D01*
X150912377Y-72797985D01*
X150885423Y-72847014D01*
X150882788Y-72850670D01*
X150838286Y-72900419D01*
X150784523Y-72935041D01*
X150714154Y-72956877D01*
X150619830Y-72968263D01*
X150494206Y-72971538D01*
X150402536Y-72970813D01*
X150333098Y-72967510D01*
X150284945Y-72960172D01*
X150248866Y-72947345D01*
X150215648Y-72927577D01*
X150190261Y-72909431D01*
X150121727Y-72843539D01*
X150084505Y-72768886D01*
X150072722Y-72675096D01*
X150073544Y-72667584D01*
X150254923Y-72667584D01*
X150257050Y-72690683D01*
X150278147Y-72730650D01*
X150325161Y-72757074D01*
X150402175Y-72771670D01*
X150513271Y-72776154D01*
X150531131Y-72776120D01*
X150611748Y-72774265D01*
X150664447Y-72768307D01*
X150698668Y-72756494D01*
X150723846Y-72737077D01*
X150725049Y-72735867D01*
X150757628Y-72688142D01*
X150754417Y-72641890D01*
X150714965Y-72589650D01*
X150701482Y-72576872D01*
X150673837Y-72558051D01*
X150637880Y-72547438D01*
X150583364Y-72542748D01*
X150500042Y-72541692D01*
X150449598Y-72542606D01*
X150357857Y-72552523D01*
X150297752Y-72575158D01*
X150264900Y-72612762D01*
X150254923Y-72667584D01*
X150073544Y-72667584D01*
X150084467Y-72567760D01*
X150126595Y-72474969D01*
X150200898Y-72401579D01*
X150208764Y-72396046D01*
X150229668Y-72383143D01*
X150253555Y-72373258D01*
X150285582Y-72365907D01*
X150330905Y-72360606D01*
X150394679Y-72356873D01*
X150482060Y-72354222D01*
X150500042Y-72353904D01*
X150598205Y-72352172D01*
X150748269Y-72350237D01*
X150791802Y-72349700D01*
X150937344Y-72347981D01*
X151048711Y-72347635D01*
X151129804Y-72349723D01*
G36*
X151129804Y-72349723D02*
G01*
X151184522Y-72355302D01*
X151216761Y-72365433D01*
X151230422Y-72381174D01*
X151229403Y-72403583D01*
X151217603Y-72433720D01*
X151198920Y-72472645D01*
X151194933Y-72480962D01*
X151175419Y-72515598D01*
X151152202Y-72533686D01*
X151113492Y-72540608D01*
X151047497Y-72541744D01*
X150929000Y-72541795D01*
X150929000Y-72663859D01*
X150925712Y-72738945D01*
X150912377Y-72797985D01*
X150885423Y-72847014D01*
X150882788Y-72850670D01*
X150838286Y-72900419D01*
X150784523Y-72935041D01*
X150714154Y-72956877D01*
X150619830Y-72968263D01*
X150494206Y-72971538D01*
X150402536Y-72970813D01*
X150333098Y-72967510D01*
X150284945Y-72960172D01*
X150248866Y-72947345D01*
X150215648Y-72927577D01*
X150190261Y-72909431D01*
X150121727Y-72843539D01*
X150084505Y-72768886D01*
X150072722Y-72675096D01*
X150073544Y-72667584D01*
X150254923Y-72667584D01*
X150257050Y-72690683D01*
X150278147Y-72730650D01*
X150325161Y-72757074D01*
X150402175Y-72771670D01*
X150513271Y-72776154D01*
X150531131Y-72776120D01*
X150611748Y-72774265D01*
X150664447Y-72768307D01*
X150698668Y-72756494D01*
X150723846Y-72737077D01*
X150725049Y-72735867D01*
X150757628Y-72688142D01*
X150754417Y-72641890D01*
X150714965Y-72589650D01*
X150701482Y-72576872D01*
X150673837Y-72558051D01*
X150637880Y-72547438D01*
X150583364Y-72542748D01*
X150500042Y-72541692D01*
X150449598Y-72542606D01*
X150357857Y-72552523D01*
X150297752Y-72575158D01*
X150264900Y-72612762D01*
X150254923Y-72667584D01*
X150073544Y-72667584D01*
X150084467Y-72567760D01*
X150126595Y-72474969D01*
X150200898Y-72401579D01*
X150208764Y-72396046D01*
X150229668Y-72383143D01*
X150253555Y-72373258D01*
X150285582Y-72365907D01*
X150330905Y-72360606D01*
X150394679Y-72356873D01*
X150482060Y-72354222D01*
X150500042Y-72353904D01*
X150598205Y-72352172D01*
X150748269Y-72350237D01*
X150791802Y-72349700D01*
X150937344Y-72347981D01*
X151048711Y-72347635D01*
X151129804Y-72349723D01*
G37*
X150530105Y-71603865D02*
X150624584Y-71604924D01*
X150690414Y-71608564D01*
X150736394Y-71616108D01*
X150771321Y-71628878D01*
X150803995Y-71648197D01*
X150810775Y-71652950D01*
X150864231Y-71703241D01*
X150904547Y-71760543D01*
X150917629Y-71789968D01*
X150939450Y-71895701D01*
X150925336Y-72000266D01*
X150877105Y-72096632D01*
X150796579Y-72177765D01*
X150785791Y-72184615D01*
X150723153Y-72206903D01*
X150635935Y-72221921D01*
X150535210Y-72229208D01*
X150432052Y-72228301D01*
X150337533Y-72218738D01*
X150262727Y-72200057D01*
X150212905Y-72176049D01*
X150135409Y-72108464D01*
X150087256Y-72016886D01*
X150071727Y-71911720D01*
X150254923Y-71911720D01*
X150256432Y-71929984D01*
X150284107Y-71981152D01*
X150346172Y-72014965D01*
X150442037Y-72031204D01*
X150571114Y-72029651D01*
X150579420Y-72029026D01*
X150650643Y-72019923D01*
X150695809Y-72003712D01*
X150726752Y-71976340D01*
X150755737Y-71930447D01*
X150757261Y-71885058D01*
X150723846Y-71838308D01*
X150715053Y-71830176D01*
X150688741Y-71814246D01*
X150650520Y-71804841D01*
X150591349Y-71800368D01*
X150502182Y-71799231D01*
X150418664Y-71801178D01*
X150339095Y-71810895D01*
X150288808Y-71830953D01*
X150262513Y-71863760D01*
X150254923Y-71911720D01*
X150071727Y-71911720D01*
X150070703Y-71904787D01*
X150071599Y-71874849D01*
X150089929Y-71786685D01*
X150136104Y-71714267D01*
X150215648Y-71647808D01*
X150221548Y-71643853D01*
X150253288Y-71625960D01*
X150289163Y-71614322D01*
X150337906Y-71607629D01*
X150408249Y-71604574D01*
X150502182Y-71603894D01*
X150508923Y-71603846D01*
X150530105Y-71603865D01*
G36*
X150530105Y-71603865D02*
G01*
X150624584Y-71604924D01*
X150690414Y-71608564D01*
X150736394Y-71616108D01*
X150771321Y-71628878D01*
X150803995Y-71648197D01*
X150810775Y-71652950D01*
X150864231Y-71703241D01*
X150904547Y-71760543D01*
X150917629Y-71789968D01*
X150939450Y-71895701D01*
X150925336Y-72000266D01*
X150877105Y-72096632D01*
X150796579Y-72177765D01*
X150785791Y-72184615D01*
X150723153Y-72206903D01*
X150635935Y-72221921D01*
X150535210Y-72229208D01*
X150432052Y-72228301D01*
X150337533Y-72218738D01*
X150262727Y-72200057D01*
X150212905Y-72176049D01*
X150135409Y-72108464D01*
X150087256Y-72016886D01*
X150071727Y-71911720D01*
X150254923Y-71911720D01*
X150256432Y-71929984D01*
X150284107Y-71981152D01*
X150346172Y-72014965D01*
X150442037Y-72031204D01*
X150571114Y-72029651D01*
X150579420Y-72029026D01*
X150650643Y-72019923D01*
X150695809Y-72003712D01*
X150726752Y-71976340D01*
X150755737Y-71930447D01*
X150757261Y-71885058D01*
X150723846Y-71838308D01*
X150715053Y-71830176D01*
X150688741Y-71814246D01*
X150650520Y-71804841D01*
X150591349Y-71800368D01*
X150502182Y-71799231D01*
X150418664Y-71801178D01*
X150339095Y-71810895D01*
X150288808Y-71830953D01*
X150262513Y-71863760D01*
X150254923Y-71911720D01*
X150071727Y-71911720D01*
X150070703Y-71904787D01*
X150071599Y-71874849D01*
X150089929Y-71786685D01*
X150136104Y-71714267D01*
X150215648Y-71647808D01*
X150221548Y-71643853D01*
X150253288Y-71625960D01*
X150289163Y-71614322D01*
X150337906Y-71607629D01*
X150408249Y-71604574D01*
X150502182Y-71603894D01*
X150508923Y-71603846D01*
X150530105Y-71603865D01*
G37*
X147322091Y-73015500D02*
X147324518Y-73027908D01*
X147337088Y-73093801D01*
X147354170Y-73184916D01*
X147373829Y-73290896D01*
X147394132Y-73401385D01*
X147402299Y-73444895D01*
X147422167Y-73542118D01*
X147440954Y-73623142D01*
X147456859Y-73680523D01*
X147468079Y-73706813D01*
X147486411Y-73718727D01*
X147534916Y-73740417D01*
X147597692Y-73762605D01*
X147621200Y-73770415D01*
X147698366Y-73799165D01*
X147789694Y-73836248D01*
X147880093Y-73875625D01*
X147927310Y-73896685D01*
X147997837Y-73926689D01*
X148050655Y-73947308D01*
X148076912Y-73954974D01*
X148078894Y-73954548D01*
X148106751Y-73940007D01*
X148160510Y-73907217D01*
X148234963Y-73859507D01*
X148324897Y-73800202D01*
X148425104Y-73732631D01*
X148751416Y-73510287D01*
X149044016Y-73802399D01*
X149072171Y-73830651D01*
X149156449Y-73917039D01*
X149229128Y-73994244D01*
X149286112Y-74057742D01*
X149323307Y-74103010D01*
X149336616Y-74125526D01*
X149326490Y-74149977D01*
X149297421Y-74201181D01*
X149252896Y-74273253D01*
X149196411Y-74360540D01*
X149131462Y-74457388D01*
X149067314Y-74552514D01*
X149010827Y-74638331D01*
X148966184Y-74708348D01*
X148936855Y-74757124D01*
X148926308Y-74779217D01*
X148926404Y-74780512D01*
X148936802Y-74809861D01*
X148961012Y-74861907D01*
X148994249Y-74926292D01*
X148994613Y-74926968D01*
X149037441Y-75012479D01*
X149058365Y-75071074D01*
X149058423Y-75107429D01*
X149038654Y-75126225D01*
X149019195Y-75134181D01*
X148967080Y-75155653D01*
X148886964Y-75188727D01*
X148783107Y-75231644D01*
X148659767Y-75282644D01*
X148521201Y-75339967D01*
X148371670Y-75401854D01*
X148235636Y-75457948D01*
X148096050Y-75515023D01*
X147971315Y-75565521D01*
X147865672Y-75607746D01*
X147783365Y-75640005D01*
X147728635Y-75660603D01*
X147705726Y-75667846D01*
X147684718Y-75654014D01*
X147649642Y-75615588D01*
X147608887Y-75561193D01*
X147502267Y-75430605D01*
X147366025Y-75313740D01*
X147216118Y-75228220D01*
X147056971Y-75174569D01*
X146893012Y-75153316D01*
X146728667Y-75164986D01*
X146568361Y-75210106D01*
X146416520Y-75289203D01*
X146277572Y-75402803D01*
X146223460Y-75462035D01*
X146127782Y-75603946D01*
X146065405Y-75755794D01*
X146034844Y-75913139D01*
X146034615Y-76071544D01*
X146063232Y-76226571D01*
X146119210Y-76373780D01*
X146201064Y-76508734D01*
X146307309Y-76626995D01*
X146436459Y-76724123D01*
X146587031Y-76795682D01*
X146757539Y-76837231D01*
X146839722Y-76844857D01*
X147017775Y-76834366D01*
X147186704Y-76787118D01*
X147343522Y-76704511D01*
X147485245Y-76587941D01*
X147608887Y-76438807D01*
X147647982Y-76386439D01*
X147683443Y-76347168D01*
X147705692Y-76332154D01*
X147725088Y-76338141D01*
X147777059Y-76357568D01*
X147857002Y-76388806D01*
X147960673Y-76430161D01*
X148083832Y-76479939D01*
X148222234Y-76536447D01*
X148371637Y-76597991D01*
X148507020Y-76653992D01*
X148646852Y-76711816D01*
X148771872Y-76763500D01*
X148877822Y-76807282D01*
X148960441Y-76841403D01*
X149015472Y-76864102D01*
X149038654Y-76873620D01*
X149038928Y-76873731D01*
X149058503Y-76892772D01*
X149058279Y-76929306D01*
X149037210Y-76988046D01*
X148994249Y-77073708D01*
X148990631Y-77080451D01*
X148958087Y-77144062D01*
X148935050Y-77194293D01*
X148926308Y-77220782D01*
X148936639Y-77242494D01*
X148965788Y-77291016D01*
X149010287Y-77360837D01*
X149066668Y-77446516D01*
X149131462Y-77542612D01*
X149194984Y-77637294D01*
X149251705Y-77724868D01*
X149296547Y-77797358D01*
X149326016Y-77849111D01*
X149336616Y-77874474D01*
X149335270Y-77878794D01*
X149314056Y-77908908D01*
X149270237Y-77960360D01*
X149207909Y-78028625D01*
X149131170Y-78109180D01*
X149044116Y-78197500D01*
X148751617Y-78489512D01*
X148082525Y-78034640D01*
X147932916Y-78103792D01*
X147932473Y-78103997D01*
X147837101Y-78145523D01*
X147730896Y-78187956D01*
X147636769Y-78222142D01*
X147621588Y-78227316D01*
X147551109Y-78253399D01*
X147496342Y-78276919D01*
X147468079Y-78293323D01*
X147464088Y-78300004D01*
X147450697Y-78340108D01*
X147433373Y-78408205D01*
X147413917Y-78496855D01*
X147394132Y-78598615D01*
X147388551Y-78629096D01*
X147368233Y-78739372D01*
X147349095Y-78842269D01*
X147333070Y-78927431D01*
X147322091Y-78984500D01*
X147301845Y-79087077D01*
X146874701Y-79087077D01*
X146822180Y-79087054D01*
X146694047Y-79086621D01*
X146598420Y-79085341D01*
X146530411Y-79082832D01*
X146485133Y-79078714D01*
X146457697Y-79072605D01*
X146443218Y-79064122D01*
X146436807Y-79052885D01*
X146434209Y-79042006D01*
X146425022Y-78997653D01*
X146410991Y-78926894D01*
X146393486Y-78836926D01*
X146373874Y-78734944D01*
X146353525Y-78628143D01*
X146333807Y-78523719D01*
X146316089Y-78428868D01*
X146301738Y-78350786D01*
X146292124Y-78296668D01*
X146288616Y-78273709D01*
X146286497Y-78272158D01*
X146259006Y-78259675D01*
X146206406Y-78238073D01*
X146137192Y-78210877D01*
X146043937Y-78173134D01*
X145936159Y-78126672D01*
X145841172Y-78083122D01*
X145819851Y-78073142D01*
X145753086Y-78045138D01*
X145701590Y-78028359D01*
X145675095Y-78026146D01*
X145673218Y-78027287D01*
X145645565Y-78045416D01*
X145591849Y-78081356D01*
X145517303Y-78131582D01*
X145427162Y-78192570D01*
X145326657Y-78260795D01*
X145212470Y-78337670D01*
X145123770Y-78395337D01*
X145058721Y-78434574D01*
X145013295Y-78457650D01*
X144983463Y-78466834D01*
X144965195Y-78464396D01*
X144963825Y-78463576D01*
X144937205Y-78441523D01*
X144888697Y-78396564D01*
X144823108Y-78333327D01*
X144745247Y-78256441D01*
X144659922Y-78170535D01*
X144573334Y-78081421D01*
X144491947Y-77994128D01*
X144437035Y-77929982D01*
X144407190Y-77887321D01*
X144401004Y-77864479D01*
X144402394Y-77861495D01*
X144421127Y-77830064D01*
X144457733Y-77773003D01*
X144508697Y-77695657D01*
X144570504Y-77603374D01*
X144639639Y-77501498D01*
X144866420Y-77169407D01*
X144798353Y-77019434D01*
X144796381Y-77015077D01*
X144756491Y-76923000D01*
X144716818Y-76825317D01*
X144685674Y-76742461D01*
X144685545Y-76742095D01*
X144661456Y-76676315D01*
X144641110Y-76625677D01*
X144628901Y-76601116D01*
X144628458Y-76600718D01*
X144603456Y-76592381D01*
X144546598Y-76578659D01*
X144464014Y-76560877D01*
X144361831Y-76540359D01*
X144246178Y-76518429D01*
X144242033Y-76517664D01*
X144124019Y-76495771D01*
X144017151Y-76475719D01*
X143928252Y-76458808D01*
X143864145Y-76446333D01*
X143831654Y-76439594D01*
X143829853Y-76439163D01*
X143815944Y-76434727D01*
X143805489Y-76425737D01*
X143797996Y-76407263D01*
X143792972Y-76374372D01*
X143789922Y-76322132D01*
X143788355Y-76245612D01*
X143787776Y-76139878D01*
X143787692Y-76000000D01*
X143787693Y-75982425D01*
X143787807Y-75846629D01*
X143788472Y-75744424D01*
X143790182Y-75670878D01*
X143793429Y-75621058D01*
X143798706Y-75590033D01*
X143806507Y-75572871D01*
X143817325Y-75564639D01*
X143831654Y-75560406D01*
X143832168Y-75560284D01*
X143865851Y-75553328D01*
X143930917Y-75540680D01*
X144020542Y-75523640D01*
X144127904Y-75503504D01*
X144246178Y-75481571D01*
X144255856Y-75479782D01*
X144370650Y-75457917D01*
X144471480Y-75437570D01*
X144552217Y-75420066D01*
X144606734Y-75406729D01*
X144628901Y-75398884D01*
X144628936Y-75398842D01*
X144641200Y-75374116D01*
X144661576Y-75323369D01*
X144685674Y-75257538D01*
X144686983Y-75253831D01*
X144718791Y-75169669D01*
X144758685Y-75071770D01*
X144798353Y-74980565D01*
X144866420Y-74830593D01*
X144639639Y-74498501D01*
X144623688Y-74475111D01*
X144555890Y-74374920D01*
X144496208Y-74285520D01*
X144448156Y-74212255D01*
X144415250Y-74160473D01*
X144401004Y-74135520D01*
X144404270Y-74118423D01*
X144429571Y-74079605D01*
X144479675Y-74019615D01*
X144555989Y-73936790D01*
X144659922Y-73829465D01*
X144669382Y-73819861D01*
X144754145Y-73734698D01*
X144830937Y-73659051D01*
X144894947Y-73597551D01*
X144941361Y-73554827D01*
X144965369Y-73535511D01*
X144965485Y-73535448D01*
X144983763Y-73532994D01*
X145013411Y-73542044D01*
X145058486Y-73564881D01*
X145123044Y-73603787D01*
X145211140Y-73661046D01*
X145326830Y-73738941D01*
X145346357Y-73752215D01*
X145445278Y-73819348D01*
X145532848Y-73878590D01*
X145603831Y-73926412D01*
X145652991Y-73959285D01*
X145675095Y-73973682D01*
X145679777Y-73974768D01*
X145714710Y-73967956D01*
X145771753Y-73947550D01*
X145841172Y-73916877D01*
X145931959Y-73875192D01*
X146039686Y-73828648D01*
X146137192Y-73789123D01*
X146162430Y-73779324D01*
X146226870Y-73753660D01*
X146271763Y-73734807D01*
X146288616Y-73726290D01*
X146289875Y-73716889D01*
X146297159Y-73674637D01*
X146309739Y-73605479D01*
X146326246Y-73516613D01*
X146345312Y-73415232D01*
X146365569Y-73308533D01*
X146385647Y-73203712D01*
X146404179Y-73107964D01*
X146419795Y-73028484D01*
X146431127Y-72972470D01*
X146436807Y-72947115D01*
X146438408Y-72942912D01*
X146447045Y-72932666D01*
X146465433Y-72925043D01*
X146498460Y-72919662D01*
X146551013Y-72916141D01*
X146627979Y-72914099D01*
X146734246Y-72913153D01*
X146874701Y-72912923D01*
X147301845Y-72912923D01*
X147322091Y-73015500D01*
G36*
X147322091Y-73015500D02*
G01*
X147324518Y-73027908D01*
X147337088Y-73093801D01*
X147354170Y-73184916D01*
X147373829Y-73290896D01*
X147394132Y-73401385D01*
X147402299Y-73444895D01*
X147422167Y-73542118D01*
X147440954Y-73623142D01*
X147456859Y-73680523D01*
X147468079Y-73706813D01*
X147486411Y-73718727D01*
X147534916Y-73740417D01*
X147597692Y-73762605D01*
X147621200Y-73770415D01*
X147698366Y-73799165D01*
X147789694Y-73836248D01*
X147880093Y-73875625D01*
X147927310Y-73896685D01*
X147997837Y-73926689D01*
X148050655Y-73947308D01*
X148076912Y-73954974D01*
X148078894Y-73954548D01*
X148106751Y-73940007D01*
X148160510Y-73907217D01*
X148234963Y-73859507D01*
X148324897Y-73800202D01*
X148425104Y-73732631D01*
X148751416Y-73510287D01*
X149044016Y-73802399D01*
X149072171Y-73830651D01*
X149156449Y-73917039D01*
X149229128Y-73994244D01*
X149286112Y-74057742D01*
X149323307Y-74103010D01*
X149336616Y-74125526D01*
X149326490Y-74149977D01*
X149297421Y-74201181D01*
X149252896Y-74273253D01*
X149196411Y-74360540D01*
X149131462Y-74457388D01*
X149067314Y-74552514D01*
X149010827Y-74638331D01*
X148966184Y-74708348D01*
X148936855Y-74757124D01*
X148926308Y-74779217D01*
X148926404Y-74780512D01*
X148936802Y-74809861D01*
X148961012Y-74861907D01*
X148994249Y-74926292D01*
X148994613Y-74926968D01*
X149037441Y-75012479D01*
X149058365Y-75071074D01*
X149058423Y-75107429D01*
X149038654Y-75126225D01*
X149019195Y-75134181D01*
X148967080Y-75155653D01*
X148886964Y-75188727D01*
X148783107Y-75231644D01*
X148659767Y-75282644D01*
X148521201Y-75339967D01*
X148371670Y-75401854D01*
X148235636Y-75457948D01*
X148096050Y-75515023D01*
X147971315Y-75565521D01*
X147865672Y-75607746D01*
X147783365Y-75640005D01*
X147728635Y-75660603D01*
X147705726Y-75667846D01*
X147684718Y-75654014D01*
X147649642Y-75615588D01*
X147608887Y-75561193D01*
X147502267Y-75430605D01*
X147366025Y-75313740D01*
X147216118Y-75228220D01*
X147056971Y-75174569D01*
X146893012Y-75153316D01*
X146728667Y-75164986D01*
X146568361Y-75210106D01*
X146416520Y-75289203D01*
X146277572Y-75402803D01*
X146223460Y-75462035D01*
X146127782Y-75603946D01*
X146065405Y-75755794D01*
X146034844Y-75913139D01*
X146034615Y-76071544D01*
X146063232Y-76226571D01*
X146119210Y-76373780D01*
X146201064Y-76508734D01*
X146307309Y-76626995D01*
X146436459Y-76724123D01*
X146587031Y-76795682D01*
X146757539Y-76837231D01*
X146839722Y-76844857D01*
X147017775Y-76834366D01*
X147186704Y-76787118D01*
X147343522Y-76704511D01*
X147485245Y-76587941D01*
X147608887Y-76438807D01*
X147647982Y-76386439D01*
X147683443Y-76347168D01*
X147705692Y-76332154D01*
X147725088Y-76338141D01*
X147777059Y-76357568D01*
X147857002Y-76388806D01*
X147960673Y-76430161D01*
X148083832Y-76479939D01*
X148222234Y-76536447D01*
X148371637Y-76597991D01*
X148507020Y-76653992D01*
X148646852Y-76711816D01*
X148771872Y-76763500D01*
X148877822Y-76807282D01*
X148960441Y-76841403D01*
X149015472Y-76864102D01*
X149038654Y-76873620D01*
X149038928Y-76873731D01*
X149058503Y-76892772D01*
X149058279Y-76929306D01*
X149037210Y-76988046D01*
X148994249Y-77073708D01*
X148990631Y-77080451D01*
X148958087Y-77144062D01*
X148935050Y-77194293D01*
X148926308Y-77220782D01*
X148936639Y-77242494D01*
X148965788Y-77291016D01*
X149010287Y-77360837D01*
X149066668Y-77446516D01*
X149131462Y-77542612D01*
X149194984Y-77637294D01*
X149251705Y-77724868D01*
X149296547Y-77797358D01*
X149326016Y-77849111D01*
X149336616Y-77874474D01*
X149335270Y-77878794D01*
X149314056Y-77908908D01*
X149270237Y-77960360D01*
X149207909Y-78028625D01*
X149131170Y-78109180D01*
X149044116Y-78197500D01*
X148751617Y-78489512D01*
X148082525Y-78034640D01*
X147932916Y-78103792D01*
X147932473Y-78103997D01*
X147837101Y-78145523D01*
X147730896Y-78187956D01*
X147636769Y-78222142D01*
X147621588Y-78227316D01*
X147551109Y-78253399D01*
X147496342Y-78276919D01*
X147468079Y-78293323D01*
X147464088Y-78300004D01*
X147450697Y-78340108D01*
X147433373Y-78408205D01*
X147413917Y-78496855D01*
X147394132Y-78598615D01*
X147388551Y-78629096D01*
X147368233Y-78739372D01*
X147349095Y-78842269D01*
X147333070Y-78927431D01*
X147322091Y-78984500D01*
X147301845Y-79087077D01*
X146874701Y-79087077D01*
X146822180Y-79087054D01*
X146694047Y-79086621D01*
X146598420Y-79085341D01*
X146530411Y-79082832D01*
X146485133Y-79078714D01*
X146457697Y-79072605D01*
X146443218Y-79064122D01*
X146436807Y-79052885D01*
X146434209Y-79042006D01*
X146425022Y-78997653D01*
X146410991Y-78926894D01*
X146393486Y-78836926D01*
X146373874Y-78734944D01*
X146353525Y-78628143D01*
X146333807Y-78523719D01*
X146316089Y-78428868D01*
X146301738Y-78350786D01*
X146292124Y-78296668D01*
X146288616Y-78273709D01*
X146286497Y-78272158D01*
X146259006Y-78259675D01*
X146206406Y-78238073D01*
X146137192Y-78210877D01*
X146043937Y-78173134D01*
X145936159Y-78126672D01*
X145841172Y-78083122D01*
X145819851Y-78073142D01*
X145753086Y-78045138D01*
X145701590Y-78028359D01*
X145675095Y-78026146D01*
X145673218Y-78027287D01*
X145645565Y-78045416D01*
X145591849Y-78081356D01*
X145517303Y-78131582D01*
X145427162Y-78192570D01*
X145326657Y-78260795D01*
X145212470Y-78337670D01*
X145123770Y-78395337D01*
X145058721Y-78434574D01*
X145013295Y-78457650D01*
X144983463Y-78466834D01*
X144965195Y-78464396D01*
X144963825Y-78463576D01*
X144937205Y-78441523D01*
X144888697Y-78396564D01*
X144823108Y-78333327D01*
X144745247Y-78256441D01*
X144659922Y-78170535D01*
X144573334Y-78081421D01*
X144491947Y-77994128D01*
X144437035Y-77929982D01*
X144407190Y-77887321D01*
X144401004Y-77864479D01*
X144402394Y-77861495D01*
X144421127Y-77830064D01*
X144457733Y-77773003D01*
X144508697Y-77695657D01*
X144570504Y-77603374D01*
X144639639Y-77501498D01*
X144866420Y-77169407D01*
X144798353Y-77019434D01*
X144796381Y-77015077D01*
X144756491Y-76923000D01*
X144716818Y-76825317D01*
X144685674Y-76742461D01*
X144685545Y-76742095D01*
X144661456Y-76676315D01*
X144641110Y-76625677D01*
X144628901Y-76601116D01*
X144628458Y-76600718D01*
X144603456Y-76592381D01*
X144546598Y-76578659D01*
X144464014Y-76560877D01*
X144361831Y-76540359D01*
X144246178Y-76518429D01*
X144242033Y-76517664D01*
X144124019Y-76495771D01*
X144017151Y-76475719D01*
X143928252Y-76458808D01*
X143864145Y-76446333D01*
X143831654Y-76439594D01*
X143829853Y-76439163D01*
X143815944Y-76434727D01*
X143805489Y-76425737D01*
X143797996Y-76407263D01*
X143792972Y-76374372D01*
X143789922Y-76322132D01*
X143788355Y-76245612D01*
X143787776Y-76139878D01*
X143787692Y-76000000D01*
X143787693Y-75982425D01*
X143787807Y-75846629D01*
X143788472Y-75744424D01*
X143790182Y-75670878D01*
X143793429Y-75621058D01*
X143798706Y-75590033D01*
X143806507Y-75572871D01*
X143817325Y-75564639D01*
X143831654Y-75560406D01*
X143832168Y-75560284D01*
X143865851Y-75553328D01*
X143930917Y-75540680D01*
X144020542Y-75523640D01*
X144127904Y-75503504D01*
X144246178Y-75481571D01*
X144255856Y-75479782D01*
X144370650Y-75457917D01*
X144471480Y-75437570D01*
X144552217Y-75420066D01*
X144606734Y-75406729D01*
X144628901Y-75398884D01*
X144628936Y-75398842D01*
X144641200Y-75374116D01*
X144661576Y-75323369D01*
X144685674Y-75257538D01*
X144686983Y-75253831D01*
X144718791Y-75169669D01*
X144758685Y-75071770D01*
X144798353Y-74980565D01*
X144866420Y-74830593D01*
X144639639Y-74498501D01*
X144623688Y-74475111D01*
X144555890Y-74374920D01*
X144496208Y-74285520D01*
X144448156Y-74212255D01*
X144415250Y-74160473D01*
X144401004Y-74135520D01*
X144404270Y-74118423D01*
X144429571Y-74079605D01*
X144479675Y-74019615D01*
X144555989Y-73936790D01*
X144659922Y-73829465D01*
X144669382Y-73819861D01*
X144754145Y-73734698D01*
X144830937Y-73659051D01*
X144894947Y-73597551D01*
X144941361Y-73554827D01*
X144965369Y-73535511D01*
X144965485Y-73535448D01*
X144983763Y-73532994D01*
X145013411Y-73542044D01*
X145058486Y-73564881D01*
X145123044Y-73603787D01*
X145211140Y-73661046D01*
X145326830Y-73738941D01*
X145346357Y-73752215D01*
X145445278Y-73819348D01*
X145532848Y-73878590D01*
X145603831Y-73926412D01*
X145652991Y-73959285D01*
X145675095Y-73973682D01*
X145679777Y-73974768D01*
X145714710Y-73967956D01*
X145771753Y-73947550D01*
X145841172Y-73916877D01*
X145931959Y-73875192D01*
X146039686Y-73828648D01*
X146137192Y-73789123D01*
X146162430Y-73779324D01*
X146226870Y-73753660D01*
X146271763Y-73734807D01*
X146288616Y-73726290D01*
X146289875Y-73716889D01*
X146297159Y-73674637D01*
X146309739Y-73605479D01*
X146326246Y-73516613D01*
X146345312Y-73415232D01*
X146365569Y-73308533D01*
X146385647Y-73203712D01*
X146404179Y-73107964D01*
X146419795Y-73028484D01*
X146431127Y-72972470D01*
X146436807Y-72947115D01*
X146438408Y-72942912D01*
X146447045Y-72932666D01*
X146465433Y-72925043D01*
X146498460Y-72919662D01*
X146551013Y-72916141D01*
X146627979Y-72914099D01*
X146734246Y-72913153D01*
X146874701Y-72912923D01*
X147301845Y-72912923D01*
X147322091Y-73015500D01*
G37*
X150880363Y-77781215D02*
X150894228Y-77795338D01*
X150925046Y-77834464D01*
X150935028Y-77873922D01*
X150930433Y-77932638D01*
X150927462Y-77956544D01*
X150921176Y-78018199D01*
X150918672Y-78061308D01*
X150919055Y-78074095D01*
X150923200Y-78126554D01*
X150930433Y-78189978D01*
X150932918Y-78210270D01*
X150933895Y-78261390D01*
X150918462Y-78298793D01*
X150880363Y-78341401D01*
X150818533Y-78403231D01*
X150468343Y-78403231D01*
X150364857Y-78402749D01*
X150266192Y-78401247D01*
X150188068Y-78398911D01*
X150136662Y-78395929D01*
X150118154Y-78392491D01*
X150118204Y-78391770D01*
X150127413Y-78366797D01*
X150147707Y-78324601D01*
X150177261Y-78267451D01*
X150484746Y-78262072D01*
X150792231Y-78256692D01*
X150792231Y-78139461D01*
X150455192Y-78134115D01*
X150363574Y-78132421D01*
X150265649Y-78129995D01*
X150187906Y-78127366D01*
X150136642Y-78124754D01*
X150118154Y-78122377D01*
X150118219Y-78121694D01*
X150125020Y-78098004D01*
X150139604Y-78054454D01*
X150161054Y-77992923D01*
X150457104Y-77992624D01*
X150508532Y-77992324D01*
X150608466Y-77990246D01*
X150691925Y-77986530D01*
X150751377Y-77981570D01*
X150779287Y-77975760D01*
X150794214Y-77954976D01*
X150798825Y-77912560D01*
X150792231Y-77865923D01*
X150455192Y-77860577D01*
X150369546Y-77858664D01*
X150268172Y-77854697D01*
X150188655Y-77849509D01*
X150136736Y-77843501D01*
X150118154Y-77837073D01*
X150124034Y-77812002D01*
X150140829Y-77769150D01*
X150163503Y-77719385D01*
X150818533Y-77719385D01*
X150880363Y-77781215D01*
G36*
X150880363Y-77781215D02*
G01*
X150894228Y-77795338D01*
X150925046Y-77834464D01*
X150935028Y-77873922D01*
X150930433Y-77932638D01*
X150927462Y-77956544D01*
X150921176Y-78018199D01*
X150918672Y-78061308D01*
X150919055Y-78074095D01*
X150923200Y-78126554D01*
X150930433Y-78189978D01*
X150932918Y-78210270D01*
X150933895Y-78261390D01*
X150918462Y-78298793D01*
X150880363Y-78341401D01*
X150818533Y-78403231D01*
X150468343Y-78403231D01*
X150364857Y-78402749D01*
X150266192Y-78401247D01*
X150188068Y-78398911D01*
X150136662Y-78395929D01*
X150118154Y-78392491D01*
X150118204Y-78391770D01*
X150127413Y-78366797D01*
X150147707Y-78324601D01*
X150177261Y-78267451D01*
X150484746Y-78262072D01*
X150792231Y-78256692D01*
X150792231Y-78139461D01*
X150455192Y-78134115D01*
X150363574Y-78132421D01*
X150265649Y-78129995D01*
X150187906Y-78127366D01*
X150136642Y-78124754D01*
X150118154Y-78122377D01*
X150118219Y-78121694D01*
X150125020Y-78098004D01*
X150139604Y-78054454D01*
X150161054Y-77992923D01*
X150457104Y-77992624D01*
X150508532Y-77992324D01*
X150608466Y-77990246D01*
X150691925Y-77986530D01*
X150751377Y-77981570D01*
X150779287Y-77975760D01*
X150794214Y-77954976D01*
X150798825Y-77912560D01*
X150792231Y-77865923D01*
X150455192Y-77860577D01*
X150369546Y-77858664D01*
X150268172Y-77854697D01*
X150188655Y-77849509D01*
X150136736Y-77843501D01*
X150118154Y-77837073D01*
X150124034Y-77812002D01*
X150140829Y-77769150D01*
X150163503Y-77719385D01*
X150818533Y-77719385D01*
X150880363Y-77781215D01*
G37*
X150757670Y-78521690D02*
X150832868Y-78554429D01*
X150894131Y-78616159D01*
X150920210Y-78666142D01*
X150938470Y-78762697D01*
X150936007Y-78816353D01*
X150922687Y-78866024D01*
X150894739Y-78885081D01*
X150848710Y-78877955D01*
X150842624Y-78875882D01*
X150810349Y-78859444D01*
X150798133Y-78832074D01*
X150798950Y-78779932D01*
X150800061Y-78743116D01*
X150790528Y-78700039D01*
X150762026Y-78670525D01*
X150726935Y-78653714D01*
X150690175Y-78651839D01*
X150689961Y-78651926D01*
X150670098Y-78673721D01*
X150641192Y-78720368D01*
X150608886Y-78780722D01*
X150578823Y-78843640D01*
X150556646Y-78897977D01*
X150548000Y-78932590D01*
X150556467Y-78937740D01*
X150596309Y-78944222D01*
X150661371Y-78948661D01*
X150743385Y-78950308D01*
X150800153Y-78950691D01*
X150871648Y-78952495D01*
X150920610Y-78955442D01*
X150938769Y-78959157D01*
X150932667Y-78978576D01*
X150916095Y-79017773D01*
X150893420Y-79067538D01*
X150602509Y-79067538D01*
X150527940Y-79067220D01*
X150414701Y-79064211D01*
X150330692Y-79056546D01*
X150269520Y-79042438D01*
X150224795Y-79020101D01*
X150190124Y-78987747D01*
X150159117Y-78943590D01*
X150133528Y-78887333D01*
X150118154Y-78783460D01*
X150119911Y-78736064D01*
X150130547Y-78694193D01*
X150157062Y-78655209D01*
X150206420Y-78605035D01*
X150241279Y-78572768D01*
X150286534Y-78539156D01*
X150328951Y-78523997D01*
X150382768Y-78520461D01*
X150470850Y-78520461D01*
X150439787Y-78580530D01*
X150401936Y-78628133D01*
X150350950Y-78660739D01*
X150337088Y-78666339D01*
X150283358Y-78709008D01*
X150256417Y-78768293D01*
X150259039Y-78832939D01*
X150294000Y-78891692D01*
X150322394Y-78916550D01*
X150358718Y-78931030D01*
X150391046Y-78915530D01*
X150423565Y-78867333D01*
X150460461Y-78783726D01*
X150465557Y-78771038D01*
X150498907Y-78694922D01*
X150531793Y-78629604D01*
X150557769Y-78588047D01*
X150604167Y-78546424D01*
X150678211Y-78518753D01*
X150757670Y-78521690D01*
G36*
X150757670Y-78521690D02*
G01*
X150832868Y-78554429D01*
X150894131Y-78616159D01*
X150920210Y-78666142D01*
X150938470Y-78762697D01*
X150936007Y-78816353D01*
X150922687Y-78866024D01*
X150894739Y-78885081D01*
X150848710Y-78877955D01*
X150842624Y-78875882D01*
X150810349Y-78859444D01*
X150798133Y-78832074D01*
X150798950Y-78779932D01*
X150800061Y-78743116D01*
X150790528Y-78700039D01*
X150762026Y-78670525D01*
X150726935Y-78653714D01*
X150690175Y-78651839D01*
X150689961Y-78651926D01*
X150670098Y-78673721D01*
X150641192Y-78720368D01*
X150608886Y-78780722D01*
X150578823Y-78843640D01*
X150556646Y-78897977D01*
X150548000Y-78932590D01*
X150556467Y-78937740D01*
X150596309Y-78944222D01*
X150661371Y-78948661D01*
X150743385Y-78950308D01*
X150800153Y-78950691D01*
X150871648Y-78952495D01*
X150920610Y-78955442D01*
X150938769Y-78959157D01*
X150932667Y-78978576D01*
X150916095Y-79017773D01*
X150893420Y-79067538D01*
X150602509Y-79067538D01*
X150527940Y-79067220D01*
X150414701Y-79064211D01*
X150330692Y-79056546D01*
X150269520Y-79042438D01*
X150224795Y-79020101D01*
X150190124Y-78987747D01*
X150159117Y-78943590D01*
X150133528Y-78887333D01*
X150118154Y-78783460D01*
X150119911Y-78736064D01*
X150130547Y-78694193D01*
X150157062Y-78655209D01*
X150206420Y-78605035D01*
X150241279Y-78572768D01*
X150286534Y-78539156D01*
X150328951Y-78523997D01*
X150382768Y-78520461D01*
X150470850Y-78520461D01*
X150439787Y-78580530D01*
X150401936Y-78628133D01*
X150350950Y-78660739D01*
X150337088Y-78666339D01*
X150283358Y-78709008D01*
X150256417Y-78768293D01*
X150259039Y-78832939D01*
X150294000Y-78891692D01*
X150322394Y-78916550D01*
X150358718Y-78931030D01*
X150391046Y-78915530D01*
X150423565Y-78867333D01*
X150460461Y-78783726D01*
X150465557Y-78771038D01*
X150498907Y-78694922D01*
X150531793Y-78629604D01*
X150557769Y-78588047D01*
X150604167Y-78546424D01*
X150678211Y-78518753D01*
X150757670Y-78521690D01*
G37*
X150601643Y-73095426D02*
X150633021Y-73098934D01*
X150744705Y-73125073D01*
X150829642Y-73172306D01*
X150894741Y-73244138D01*
X150897428Y-73248198D01*
X150935634Y-73339513D01*
X150939034Y-73434856D01*
X150909939Y-73526726D01*
X150850660Y-73607621D01*
X150763510Y-73670038D01*
X150761409Y-73671086D01*
X150707289Y-73691827D01*
X150645781Y-73707020D01*
X150588039Y-73715079D01*
X150545215Y-73714418D01*
X150528462Y-73703452D01*
X150529480Y-73693710D01*
X150548009Y-73647123D01*
X150582081Y-73594318D01*
X150621522Y-73549397D01*
X150656155Y-73526465D01*
X150703133Y-73502627D01*
X150745862Y-73453770D01*
X150762923Y-73397037D01*
X150757990Y-73376242D01*
X150733157Y-73335196D01*
X150698685Y-73299443D01*
X150667411Y-73284154D01*
X150667295Y-73284158D01*
X150652933Y-73301505D01*
X150627025Y-73347753D01*
X150593210Y-73415933D01*
X150555129Y-73499077D01*
X150554927Y-73499534D01*
X150514709Y-73589862D01*
X150485733Y-73650408D01*
X150463474Y-73687112D01*
X150443407Y-73705914D01*
X150421009Y-73712754D01*
X150391756Y-73713571D01*
X150321654Y-73706378D01*
X150226412Y-73670816D01*
X150151567Y-73611286D01*
X150099745Y-73534254D01*
X150073573Y-73446185D01*
X150075071Y-73380177D01*
X150256856Y-73380177D01*
X150259406Y-73436819D01*
X150294120Y-73489416D01*
X150318107Y-73510090D01*
X150336363Y-73515000D01*
X150353777Y-73495089D01*
X150379872Y-73445479D01*
X150380610Y-73444024D01*
X150408483Y-73385494D01*
X150430719Y-73333132D01*
X150440126Y-73299914D01*
X150427552Y-73286590D01*
X150384468Y-73284154D01*
X150330847Y-73294276D01*
X150282119Y-73329369D01*
X150256856Y-73380177D01*
X150075071Y-73380177D01*
X150075676Y-73353546D01*
X150108681Y-73262802D01*
X150175215Y-73180421D01*
X150241055Y-73134778D01*
X150335036Y-73101992D01*
X150384468Y-73096661D01*
X150453536Y-73089213D01*
X150601643Y-73095426D01*
G36*
X150601643Y-73095426D02*
G01*
X150633021Y-73098934D01*
X150744705Y-73125073D01*
X150829642Y-73172306D01*
X150894741Y-73244138D01*
X150897428Y-73248198D01*
X150935634Y-73339513D01*
X150939034Y-73434856D01*
X150909939Y-73526726D01*
X150850660Y-73607621D01*
X150763510Y-73670038D01*
X150761409Y-73671086D01*
X150707289Y-73691827D01*
X150645781Y-73707020D01*
X150588039Y-73715079D01*
X150545215Y-73714418D01*
X150528462Y-73703452D01*
X150529480Y-73693710D01*
X150548009Y-73647123D01*
X150582081Y-73594318D01*
X150621522Y-73549397D01*
X150656155Y-73526465D01*
X150703133Y-73502627D01*
X150745862Y-73453770D01*
X150762923Y-73397037D01*
X150757990Y-73376242D01*
X150733157Y-73335196D01*
X150698685Y-73299443D01*
X150667411Y-73284154D01*
X150667295Y-73284158D01*
X150652933Y-73301505D01*
X150627025Y-73347753D01*
X150593210Y-73415933D01*
X150555129Y-73499077D01*
X150554927Y-73499534D01*
X150514709Y-73589862D01*
X150485733Y-73650408D01*
X150463474Y-73687112D01*
X150443407Y-73705914D01*
X150421009Y-73712754D01*
X150391756Y-73713571D01*
X150321654Y-73706378D01*
X150226412Y-73670816D01*
X150151567Y-73611286D01*
X150099745Y-73534254D01*
X150073573Y-73446185D01*
X150075071Y-73380177D01*
X150256856Y-73380177D01*
X150259406Y-73436819D01*
X150294120Y-73489416D01*
X150318107Y-73510090D01*
X150336363Y-73515000D01*
X150353777Y-73495089D01*
X150379872Y-73445479D01*
X150380610Y-73444024D01*
X150408483Y-73385494D01*
X150430719Y-73333132D01*
X150440126Y-73299914D01*
X150427552Y-73286590D01*
X150384468Y-73284154D01*
X150330847Y-73294276D01*
X150282119Y-73329369D01*
X150256856Y-73380177D01*
X150075071Y-73380177D01*
X150075676Y-73353546D01*
X150108681Y-73262802D01*
X150175215Y-73180421D01*
X150241055Y-73134778D01*
X150335036Y-73101992D01*
X150384468Y-73096661D01*
X150453536Y-73089213D01*
X150601643Y-73095426D01*
G37*
X150865296Y-76374239D02*
X150920507Y-76379395D01*
X150938769Y-76387842D01*
X150933301Y-76413406D01*
X150916733Y-76456834D01*
X150911888Y-76467060D01*
X150900920Y-76483033D01*
X150882890Y-76494046D01*
X150851396Y-76501250D01*
X150800036Y-76505792D01*
X150722410Y-76508820D01*
X150612115Y-76511484D01*
X150579875Y-76512215D01*
X150478050Y-76515035D01*
X150406788Y-76518696D01*
X150359332Y-76524306D01*
X150328925Y-76532971D01*
X150308810Y-76545798D01*
X150292229Y-76563895D01*
X150263161Y-76617475D01*
X150257564Y-76683388D01*
X150279807Y-76742365D01*
X150325859Y-76784797D01*
X150391692Y-76801077D01*
X150409587Y-76801530D01*
X150441982Y-76810422D01*
X150446925Y-76836675D01*
X150427633Y-76888081D01*
X150421446Y-76899987D01*
X150385058Y-76932165D01*
X150330954Y-76932802D01*
X150256128Y-76902144D01*
X150215350Y-76874022D01*
X150157421Y-76802117D01*
X150124670Y-76713362D01*
X150120212Y-76618458D01*
X150147167Y-76528108D01*
X150150581Y-76521940D01*
X150189692Y-76471553D01*
X150239975Y-76426502D01*
X150251339Y-76418645D01*
X150277860Y-76403624D01*
X150309336Y-76392893D01*
X150352591Y-76385514D01*
X150414449Y-76380548D01*
X150501733Y-76377058D01*
X150621269Y-76374107D01*
X150641478Y-76373689D01*
X150772499Y-76372346D01*
X150865296Y-76374239D01*
G36*
X150865296Y-76374239D02*
G01*
X150920507Y-76379395D01*
X150938769Y-76387842D01*
X150933301Y-76413406D01*
X150916733Y-76456834D01*
X150911888Y-76467060D01*
X150900920Y-76483033D01*
X150882890Y-76494046D01*
X150851396Y-76501250D01*
X150800036Y-76505792D01*
X150722410Y-76508820D01*
X150612115Y-76511484D01*
X150579875Y-76512215D01*
X150478050Y-76515035D01*
X150406788Y-76518696D01*
X150359332Y-76524306D01*
X150328925Y-76532971D01*
X150308810Y-76545798D01*
X150292229Y-76563895D01*
X150263161Y-76617475D01*
X150257564Y-76683388D01*
X150279807Y-76742365D01*
X150325859Y-76784797D01*
X150391692Y-76801077D01*
X150409587Y-76801530D01*
X150441982Y-76810422D01*
X150446925Y-76836675D01*
X150427633Y-76888081D01*
X150421446Y-76899987D01*
X150385058Y-76932165D01*
X150330954Y-76932802D01*
X150256128Y-76902144D01*
X150215350Y-76874022D01*
X150157421Y-76802117D01*
X150124670Y-76713362D01*
X150120212Y-76618458D01*
X150147167Y-76528108D01*
X150150581Y-76521940D01*
X150189692Y-76471553D01*
X150239975Y-76426502D01*
X150251339Y-76418645D01*
X150277860Y-76403624D01*
X150309336Y-76392893D01*
X150352591Y-76385514D01*
X150414449Y-76380548D01*
X150501733Y-76377058D01*
X150621269Y-76374107D01*
X150641478Y-76373689D01*
X150772499Y-76372346D01*
X150865296Y-76374239D01*
G37*
X150695805Y-79184997D02*
X150792308Y-79186140D01*
X150869323Y-79188081D01*
X150920319Y-79190635D01*
X150938769Y-79193619D01*
X150932667Y-79213038D01*
X150916095Y-79252234D01*
X150915558Y-79253411D01*
X150904903Y-79273765D01*
X150890282Y-79287454D01*
X150864673Y-79295801D01*
X150821054Y-79300126D01*
X150752403Y-79301752D01*
X150651698Y-79302000D01*
X150587813Y-79302500D01*
X150467751Y-79307836D01*
X150379809Y-79320055D01*
X150319375Y-79340448D01*
X150281836Y-79370305D01*
X150262581Y-79410918D01*
X150261239Y-79416552D01*
X150260191Y-79492622D01*
X150294271Y-79551948D01*
X150362598Y-79592923D01*
X150382351Y-79600230D01*
X150426066Y-79616886D01*
X150446155Y-79625321D01*
X150443387Y-79642644D01*
X150428365Y-79680475D01*
X150403556Y-79715760D01*
X150356670Y-79731846D01*
X150323087Y-79727048D01*
X150254967Y-79697569D01*
X150191134Y-79649902D01*
X150146988Y-79594161D01*
X150136782Y-79570807D01*
X150119718Y-79482381D01*
X150126476Y-79388499D01*
X150156440Y-79307833D01*
X150178954Y-79274286D01*
X150211212Y-79240313D01*
X150252246Y-79216081D01*
X150308108Y-79199999D01*
X150384851Y-79190479D01*
X150488525Y-79185932D01*
X150625184Y-79184769D01*
X150695805Y-79184997D01*
G36*
X150695805Y-79184997D02*
G01*
X150792308Y-79186140D01*
X150869323Y-79188081D01*
X150920319Y-79190635D01*
X150938769Y-79193619D01*
X150932667Y-79213038D01*
X150916095Y-79252234D01*
X150915558Y-79253411D01*
X150904903Y-79273765D01*
X150890282Y-79287454D01*
X150864673Y-79295801D01*
X150821054Y-79300126D01*
X150752403Y-79301752D01*
X150651698Y-79302000D01*
X150587813Y-79302500D01*
X150467751Y-79307836D01*
X150379809Y-79320055D01*
X150319375Y-79340448D01*
X150281836Y-79370305D01*
X150262581Y-79410918D01*
X150261239Y-79416552D01*
X150260191Y-79492622D01*
X150294271Y-79551948D01*
X150362598Y-79592923D01*
X150382351Y-79600230D01*
X150426066Y-79616886D01*
X150446155Y-79625321D01*
X150443387Y-79642644D01*
X150428365Y-79680475D01*
X150403556Y-79715760D01*
X150356670Y-79731846D01*
X150323087Y-79727048D01*
X150254967Y-79697569D01*
X150191134Y-79649902D01*
X150146988Y-79594161D01*
X150136782Y-79570807D01*
X150119718Y-79482381D01*
X150126476Y-79388499D01*
X150156440Y-79307833D01*
X150178954Y-79274286D01*
X150211212Y-79240313D01*
X150252246Y-79216081D01*
X150308108Y-79199999D01*
X150384851Y-79190479D01*
X150488525Y-79185932D01*
X150625184Y-79184769D01*
X150695805Y-79184997D01*
G37*
X150584449Y-79849587D02*
X150687047Y-79854359D01*
X150762126Y-79866850D01*
X150817748Y-79889879D01*
X150861975Y-79926268D01*
X150902869Y-79978838D01*
X150921466Y-80012286D01*
X150933991Y-80065902D01*
X150933003Y-80141220D01*
X150929035Y-80183328D01*
X150916920Y-80234121D01*
X150890585Y-80274720D01*
X150841514Y-80321951D01*
X150834346Y-80328262D01*
X150779189Y-80370723D01*
X150731150Y-80390982D01*
X150674184Y-80396154D01*
X150590471Y-80396154D01*
X150612552Y-80337654D01*
X150638364Y-80295006D01*
X150698928Y-80257936D01*
X150718320Y-80250197D01*
X150773235Y-80206926D01*
X150800879Y-80148024D01*
X150798393Y-80083889D01*
X150762923Y-80024923D01*
X150740805Y-80004658D01*
X150707436Y-79986280D01*
X150677117Y-79992029D01*
X150645913Y-80025113D01*
X150609887Y-80088739D01*
X150565103Y-80186115D01*
X150477445Y-80386385D01*
X150390607Y-80391699D01*
X150325663Y-80389353D01*
X150243590Y-80359814D01*
X150198361Y-80322528D01*
X150147838Y-80245224D01*
X150122316Y-80153522D01*
X150122490Y-80145360D01*
X150254721Y-80145360D01*
X150285339Y-80215960D01*
X150300648Y-80235526D01*
X150335296Y-80259217D01*
X150369538Y-80249312D01*
X150406096Y-80204244D01*
X150447692Y-80122443D01*
X150453718Y-80108908D01*
X150481753Y-80044182D01*
X150501472Y-79995753D01*
X150508923Y-79973249D01*
X150503438Y-79969839D01*
X150469948Y-79968471D01*
X150416116Y-79973349D01*
X150363473Y-79985636D01*
X150297151Y-80023959D01*
X150259780Y-80079280D01*
X150254721Y-80145360D01*
X150122490Y-80145360D01*
X150124336Y-80058726D01*
X150156440Y-79972141D01*
X150168767Y-79953080D01*
X150206912Y-79909360D01*
X150255167Y-79879460D01*
X150320710Y-79861032D01*
X150410720Y-79851730D01*
X150469948Y-79850501D01*
X150532376Y-79849206D01*
X150584449Y-79849587D01*
G36*
X150584449Y-79849587D02*
G01*
X150687047Y-79854359D01*
X150762126Y-79866850D01*
X150817748Y-79889879D01*
X150861975Y-79926268D01*
X150902869Y-79978838D01*
X150921466Y-80012286D01*
X150933991Y-80065902D01*
X150933003Y-80141220D01*
X150929035Y-80183328D01*
X150916920Y-80234121D01*
X150890585Y-80274720D01*
X150841514Y-80321951D01*
X150834346Y-80328262D01*
X150779189Y-80370723D01*
X150731150Y-80390982D01*
X150674184Y-80396154D01*
X150590471Y-80396154D01*
X150612552Y-80337654D01*
X150638364Y-80295006D01*
X150698928Y-80257936D01*
X150718320Y-80250197D01*
X150773235Y-80206926D01*
X150800879Y-80148024D01*
X150798393Y-80083889D01*
X150762923Y-80024923D01*
X150740805Y-80004658D01*
X150707436Y-79986280D01*
X150677117Y-79992029D01*
X150645913Y-80025113D01*
X150609887Y-80088739D01*
X150565103Y-80186115D01*
X150477445Y-80386385D01*
X150390607Y-80391699D01*
X150325663Y-80389353D01*
X150243590Y-80359814D01*
X150198361Y-80322528D01*
X150147838Y-80245224D01*
X150122316Y-80153522D01*
X150122490Y-80145360D01*
X150254721Y-80145360D01*
X150285339Y-80215960D01*
X150300648Y-80235526D01*
X150335296Y-80259217D01*
X150369538Y-80249312D01*
X150406096Y-80204244D01*
X150447692Y-80122443D01*
X150453718Y-80108908D01*
X150481753Y-80044182D01*
X150501472Y-79995753D01*
X150508923Y-79973249D01*
X150503438Y-79969839D01*
X150469948Y-79968471D01*
X150416116Y-79973349D01*
X150363473Y-79985636D01*
X150297151Y-80023959D01*
X150259780Y-80079280D01*
X150254721Y-80145360D01*
X150122490Y-80145360D01*
X150124336Y-80058726D01*
X150156440Y-79972141D01*
X150168767Y-79953080D01*
X150206912Y-79909360D01*
X150255167Y-79879460D01*
X150320710Y-79861032D01*
X150410720Y-79851730D01*
X150469948Y-79850501D01*
X150532376Y-79849206D01*
X150584449Y-79849587D01*
G37*
%TD*%
M02*
